%TF.GenerationSoftware,KiCad,Pcbnew,9.0.7*%
%TF.CreationDate,2026-09-03T01:12:11+05:45*%
%TF.ProjectId,Powerbank_Module,506f7765-7262-4616-9e6b-5f4d6f64756c,rev?*%
%TF.SameCoordinates,Original*%
%TF.FileFunction,Drillmap*%
%TF.FilePolarity,Positive*%
%FSLAX45Y45*%
G04 Gerber Fmt 4.5, Leading zero omitted, Abs format (unit mm)*
G04 Created by KiCad (PCBNEW 9.0.7) date 2026-09-03 01:12:11*
%MOMM*%
%LPD*%
G01*
G04 APERTURE LIST*
%ADD10C,0.050000*%
%ADD11C,0.200000*%
%ADD12C,0.100000*%
%ADD13C,0.220000*%
G04 APERTURE END LIST*
D10*
X22051912Y-9098000D02*
G75*
G02*
X21950088Y-9098000I-50912J0D01*
G01*
X21950088Y-9098000D02*
G75*
G02*
X22051912Y-9098000I50912J0D01*
G01*
X22066912Y-7183000D02*
G75*
G02*
X21965088Y-7183000I-50912J0D01*
G01*
X21965088Y-7183000D02*
G75*
G02*
X22066912Y-7183000I50912J0D01*
G01*
X21381000Y-7077000D02*
X24452000Y-7077000D01*
X24452000Y-9205000D01*
X21381000Y-9205000D01*
X21381000Y-7077000D01*
X24229912Y-7186000D02*
G75*
G02*
X24128088Y-7186000I-50912J0D01*
G01*
X24128088Y-7186000D02*
G75*
G02*
X24229912Y-7186000I50912J0D01*
G01*
X24243912Y-9083000D02*
G75*
G02*
X24142088Y-9083000I-50912J0D01*
G01*
X24142088Y-9083000D02*
G75*
G02*
X24243912Y-9083000I50912J0D01*
G01*
D11*
D12*
X22496000Y-7862000D02*
X22516000Y-7882000D01*
X22516000Y-7862000D02*
X22496000Y-7882000D01*
X22496000Y-7982000D02*
X22516000Y-8002000D01*
X22516000Y-7982000D02*
X22496000Y-8002000D01*
X22496000Y-8102000D02*
X22516000Y-8122000D01*
X22516000Y-8102000D02*
X22496000Y-8122000D01*
X22636000Y-7862000D02*
X22656000Y-7882000D01*
X22656000Y-7862000D02*
X22636000Y-7882000D01*
X22636000Y-7982000D02*
X22656000Y-8002000D01*
X22656000Y-7982000D02*
X22636000Y-8002000D01*
X22636000Y-8102000D02*
X22656000Y-8122000D01*
X22656000Y-8102000D02*
X22636000Y-8122000D01*
X23793000Y-7403500D02*
G75*
G02*
X23733000Y-7403500I-30000J0D01*
G01*
X23733000Y-7403500D02*
G75*
G02*
X23793000Y-7403500I30000J0D01*
G01*
X23708000Y-7433500D02*
X23818000Y-7433500D01*
X23818000Y-7373500D02*
G75*
G02*
X23818000Y-7433500I0J-30000D01*
G01*
X23818000Y-7373500D02*
X23708000Y-7373500D01*
X23708000Y-7373500D02*
G75*
G03*
X23708000Y-7433500I0J-30000D01*
G01*
X23793000Y-8267500D02*
G75*
G02*
X23733000Y-8267500I-30000J0D01*
G01*
X23733000Y-8267500D02*
G75*
G02*
X23793000Y-8267500I30000J0D01*
G01*
X23708000Y-8297500D02*
X23818000Y-8297500D01*
X23818000Y-8237500D02*
G75*
G02*
X23818000Y-8297500I0J-30000D01*
G01*
X23818000Y-8237500D02*
X23708000Y-8237500D01*
X23708000Y-8237500D02*
G75*
G03*
X23708000Y-8297500I0J-30000D01*
G01*
X24211000Y-7403500D02*
G75*
G02*
X24151000Y-7403500I-30000J0D01*
G01*
X24151000Y-7403500D02*
G75*
G02*
X24211000Y-7403500I30000J0D01*
G01*
X24141000Y-7433500D02*
X24221000Y-7433500D01*
X24221000Y-7373500D02*
G75*
G02*
X24221000Y-7433500I0J-30000D01*
G01*
X24221000Y-7373500D02*
X24141000Y-7373500D01*
X24141000Y-7373500D02*
G75*
G03*
X24141000Y-7433500I0J-30000D01*
G01*
X24211000Y-8267500D02*
G75*
G02*
X24151000Y-8267500I-30000J0D01*
G01*
X24151000Y-8267500D02*
G75*
G02*
X24211000Y-8267500I30000J0D01*
G01*
X24141000Y-8297500D02*
X24221000Y-8297500D01*
X24221000Y-8237500D02*
G75*
G02*
X24221000Y-8297500I0J-30000D01*
G01*
X24221000Y-8237500D02*
X24141000Y-8237500D01*
X24141000Y-8237500D02*
G75*
G03*
X24141000Y-8297500I0J-30000D01*
G01*
D13*
X21691000Y-7240000D02*
X21691000Y-7460000D01*
X21581000Y-7350000D02*
X21801000Y-7350000D01*
X21701000Y-8772000D02*
X21701000Y-8992000D01*
X21591000Y-8882000D02*
X21811000Y-8882000D01*
D12*
X23835981Y-7569481D02*
X23835981Y-7523519D01*
X23790019Y-7523519D01*
X23790019Y-7569481D01*
X23835981Y-7569481D01*
X23835981Y-8147481D02*
X23835981Y-8101519D01*
X23790019Y-8101519D01*
X23790019Y-8147481D01*
X23835981Y-8147481D01*
D11*
X21639277Y-9518984D02*
X21639277Y-9318984D01*
X21639277Y-9318984D02*
X21686896Y-9318984D01*
X21686896Y-9318984D02*
X21715467Y-9328508D01*
X21715467Y-9328508D02*
X21734515Y-9347555D01*
X21734515Y-9347555D02*
X21744039Y-9366603D01*
X21744039Y-9366603D02*
X21753563Y-9404698D01*
X21753563Y-9404698D02*
X21753563Y-9433270D01*
X21753563Y-9433270D02*
X21744039Y-9471365D01*
X21744039Y-9471365D02*
X21734515Y-9490412D01*
X21734515Y-9490412D02*
X21715467Y-9509460D01*
X21715467Y-9509460D02*
X21686896Y-9518984D01*
X21686896Y-9518984D02*
X21639277Y-9518984D01*
X21839277Y-9518984D02*
X21839277Y-9385650D01*
X21839277Y-9423746D02*
X21848801Y-9404698D01*
X21848801Y-9404698D02*
X21858324Y-9395174D01*
X21858324Y-9395174D02*
X21877372Y-9385650D01*
X21877372Y-9385650D02*
X21896420Y-9385650D01*
X21963086Y-9518984D02*
X21963086Y-9385650D01*
X21963086Y-9318984D02*
X21953563Y-9328508D01*
X21953563Y-9328508D02*
X21963086Y-9338031D01*
X21963086Y-9338031D02*
X21972610Y-9328508D01*
X21972610Y-9328508D02*
X21963086Y-9318984D01*
X21963086Y-9318984D02*
X21963086Y-9338031D01*
X22086896Y-9518984D02*
X22067848Y-9509460D01*
X22067848Y-9509460D02*
X22058324Y-9490412D01*
X22058324Y-9490412D02*
X22058324Y-9318984D01*
X22191658Y-9518984D02*
X22172610Y-9509460D01*
X22172610Y-9509460D02*
X22163086Y-9490412D01*
X22163086Y-9490412D02*
X22163086Y-9318984D01*
X22420229Y-9518984D02*
X22420229Y-9318984D01*
X22420229Y-9318984D02*
X22486896Y-9461841D01*
X22486896Y-9461841D02*
X22553562Y-9318984D01*
X22553562Y-9318984D02*
X22553562Y-9518984D01*
X22734515Y-9518984D02*
X22734515Y-9414222D01*
X22734515Y-9414222D02*
X22724991Y-9395174D01*
X22724991Y-9395174D02*
X22705943Y-9385650D01*
X22705943Y-9385650D02*
X22667848Y-9385650D01*
X22667848Y-9385650D02*
X22648801Y-9395174D01*
X22734515Y-9509460D02*
X22715467Y-9518984D01*
X22715467Y-9518984D02*
X22667848Y-9518984D01*
X22667848Y-9518984D02*
X22648801Y-9509460D01*
X22648801Y-9509460D02*
X22639277Y-9490412D01*
X22639277Y-9490412D02*
X22639277Y-9471365D01*
X22639277Y-9471365D02*
X22648801Y-9452317D01*
X22648801Y-9452317D02*
X22667848Y-9442793D01*
X22667848Y-9442793D02*
X22715467Y-9442793D01*
X22715467Y-9442793D02*
X22734515Y-9433270D01*
X22829753Y-9385650D02*
X22829753Y-9585650D01*
X22829753Y-9395174D02*
X22848801Y-9385650D01*
X22848801Y-9385650D02*
X22886896Y-9385650D01*
X22886896Y-9385650D02*
X22905943Y-9395174D01*
X22905943Y-9395174D02*
X22915467Y-9404698D01*
X22915467Y-9404698D02*
X22924991Y-9423746D01*
X22924991Y-9423746D02*
X22924991Y-9480889D01*
X22924991Y-9480889D02*
X22915467Y-9499936D01*
X22915467Y-9499936D02*
X22905943Y-9509460D01*
X22905943Y-9509460D02*
X22886896Y-9518984D01*
X22886896Y-9518984D02*
X22848801Y-9518984D01*
X22848801Y-9518984D02*
X22829753Y-9509460D01*
X23010705Y-9499936D02*
X23020229Y-9509460D01*
X23020229Y-9509460D02*
X23010705Y-9518984D01*
X23010705Y-9518984D02*
X23001182Y-9509460D01*
X23001182Y-9509460D02*
X23010705Y-9499936D01*
X23010705Y-9499936D02*
X23010705Y-9518984D01*
X23010705Y-9395174D02*
X23020229Y-9404698D01*
X23020229Y-9404698D02*
X23010705Y-9414222D01*
X23010705Y-9414222D02*
X23001182Y-9404698D01*
X23001182Y-9404698D02*
X23010705Y-9395174D01*
X23010705Y-9395174D02*
X23010705Y-9414222D01*
D12*
X21358500Y-9837500D02*
X21378500Y-9857500D01*
X21378500Y-9837500D02*
X21358500Y-9857500D01*
D11*
X21677372Y-9738984D02*
X21696420Y-9738984D01*
X21696420Y-9738984D02*
X21715467Y-9748508D01*
X21715467Y-9748508D02*
X21724991Y-9758031D01*
X21724991Y-9758031D02*
X21734515Y-9777079D01*
X21734515Y-9777079D02*
X21744039Y-9815174D01*
X21744039Y-9815174D02*
X21744039Y-9862793D01*
X21744039Y-9862793D02*
X21734515Y-9900889D01*
X21734515Y-9900889D02*
X21724991Y-9919936D01*
X21724991Y-9919936D02*
X21715467Y-9929460D01*
X21715467Y-9929460D02*
X21696420Y-9938984D01*
X21696420Y-9938984D02*
X21677372Y-9938984D01*
X21677372Y-9938984D02*
X21658324Y-9929460D01*
X21658324Y-9929460D02*
X21648801Y-9919936D01*
X21648801Y-9919936D02*
X21639277Y-9900889D01*
X21639277Y-9900889D02*
X21629753Y-9862793D01*
X21629753Y-9862793D02*
X21629753Y-9815174D01*
X21629753Y-9815174D02*
X21639277Y-9777079D01*
X21639277Y-9777079D02*
X21648801Y-9758031D01*
X21648801Y-9758031D02*
X21658324Y-9748508D01*
X21658324Y-9748508D02*
X21677372Y-9738984D01*
X21829753Y-9919936D02*
X21839277Y-9929460D01*
X21839277Y-9929460D02*
X21829753Y-9938984D01*
X21829753Y-9938984D02*
X21820229Y-9929460D01*
X21820229Y-9929460D02*
X21829753Y-9919936D01*
X21829753Y-9919936D02*
X21829753Y-9938984D01*
X21915467Y-9758031D02*
X21924991Y-9748508D01*
X21924991Y-9748508D02*
X21944039Y-9738984D01*
X21944039Y-9738984D02*
X21991658Y-9738984D01*
X21991658Y-9738984D02*
X22010705Y-9748508D01*
X22010705Y-9748508D02*
X22020229Y-9758031D01*
X22020229Y-9758031D02*
X22029753Y-9777079D01*
X22029753Y-9777079D02*
X22029753Y-9796127D01*
X22029753Y-9796127D02*
X22020229Y-9824698D01*
X22020229Y-9824698D02*
X21905944Y-9938984D01*
X21905944Y-9938984D02*
X22029753Y-9938984D01*
X22153563Y-9738984D02*
X22172610Y-9738984D01*
X22172610Y-9738984D02*
X22191658Y-9748508D01*
X22191658Y-9748508D02*
X22201182Y-9758031D01*
X22201182Y-9758031D02*
X22210705Y-9777079D01*
X22210705Y-9777079D02*
X22220229Y-9815174D01*
X22220229Y-9815174D02*
X22220229Y-9862793D01*
X22220229Y-9862793D02*
X22210705Y-9900889D01*
X22210705Y-9900889D02*
X22201182Y-9919936D01*
X22201182Y-9919936D02*
X22191658Y-9929460D01*
X22191658Y-9929460D02*
X22172610Y-9938984D01*
X22172610Y-9938984D02*
X22153563Y-9938984D01*
X22153563Y-9938984D02*
X22134515Y-9929460D01*
X22134515Y-9929460D02*
X22124991Y-9919936D01*
X22124991Y-9919936D02*
X22115467Y-9900889D01*
X22115467Y-9900889D02*
X22105944Y-9862793D01*
X22105944Y-9862793D02*
X22105944Y-9815174D01*
X22105944Y-9815174D02*
X22115467Y-9777079D01*
X22115467Y-9777079D02*
X22124991Y-9758031D01*
X22124991Y-9758031D02*
X22134515Y-9748508D01*
X22134515Y-9748508D02*
X22153563Y-9738984D01*
X22344039Y-9738984D02*
X22363086Y-9738984D01*
X22363086Y-9738984D02*
X22382134Y-9748508D01*
X22382134Y-9748508D02*
X22391658Y-9758031D01*
X22391658Y-9758031D02*
X22401182Y-9777079D01*
X22401182Y-9777079D02*
X22410705Y-9815174D01*
X22410705Y-9815174D02*
X22410705Y-9862793D01*
X22410705Y-9862793D02*
X22401182Y-9900889D01*
X22401182Y-9900889D02*
X22391658Y-9919936D01*
X22391658Y-9919936D02*
X22382134Y-9929460D01*
X22382134Y-9929460D02*
X22363086Y-9938984D01*
X22363086Y-9938984D02*
X22344039Y-9938984D01*
X22344039Y-9938984D02*
X22324991Y-9929460D01*
X22324991Y-9929460D02*
X22315467Y-9919936D01*
X22315467Y-9919936D02*
X22305944Y-9900889D01*
X22305944Y-9900889D02*
X22296420Y-9862793D01*
X22296420Y-9862793D02*
X22296420Y-9815174D01*
X22296420Y-9815174D02*
X22305944Y-9777079D01*
X22305944Y-9777079D02*
X22315467Y-9758031D01*
X22315467Y-9758031D02*
X22324991Y-9748508D01*
X22324991Y-9748508D02*
X22344039Y-9738984D01*
X22496420Y-9938984D02*
X22496420Y-9805650D01*
X22496420Y-9824698D02*
X22505943Y-9815174D01*
X22505943Y-9815174D02*
X22524991Y-9805650D01*
X22524991Y-9805650D02*
X22553563Y-9805650D01*
X22553563Y-9805650D02*
X22572610Y-9815174D01*
X22572610Y-9815174D02*
X22582134Y-9834222D01*
X22582134Y-9834222D02*
X22582134Y-9938984D01*
X22582134Y-9834222D02*
X22591658Y-9815174D01*
X22591658Y-9815174D02*
X22610705Y-9805650D01*
X22610705Y-9805650D02*
X22639277Y-9805650D01*
X22639277Y-9805650D02*
X22658324Y-9815174D01*
X22658324Y-9815174D02*
X22667848Y-9834222D01*
X22667848Y-9834222D02*
X22667848Y-9938984D01*
X22763086Y-9938984D02*
X22763086Y-9805650D01*
X22763086Y-9824698D02*
X22772610Y-9815174D01*
X22772610Y-9815174D02*
X22791658Y-9805650D01*
X22791658Y-9805650D02*
X22820229Y-9805650D01*
X22820229Y-9805650D02*
X22839277Y-9815174D01*
X22839277Y-9815174D02*
X22848801Y-9834222D01*
X22848801Y-9834222D02*
X22848801Y-9938984D01*
X22848801Y-9834222D02*
X22858324Y-9815174D01*
X22858324Y-9815174D02*
X22877372Y-9805650D01*
X22877372Y-9805650D02*
X22905943Y-9805650D01*
X22905943Y-9805650D02*
X22924991Y-9815174D01*
X22924991Y-9815174D02*
X22934515Y-9834222D01*
X22934515Y-9834222D02*
X22934515Y-9938984D01*
X23324991Y-9729460D02*
X23153563Y-9986603D01*
X23582134Y-9738984D02*
X23601182Y-9738984D01*
X23601182Y-9738984D02*
X23620229Y-9748508D01*
X23620229Y-9748508D02*
X23629753Y-9758031D01*
X23629753Y-9758031D02*
X23639277Y-9777079D01*
X23639277Y-9777079D02*
X23648801Y-9815174D01*
X23648801Y-9815174D02*
X23648801Y-9862793D01*
X23648801Y-9862793D02*
X23639277Y-9900889D01*
X23639277Y-9900889D02*
X23629753Y-9919936D01*
X23629753Y-9919936D02*
X23620229Y-9929460D01*
X23620229Y-9929460D02*
X23601182Y-9938984D01*
X23601182Y-9938984D02*
X23582134Y-9938984D01*
X23582134Y-9938984D02*
X23563086Y-9929460D01*
X23563086Y-9929460D02*
X23553563Y-9919936D01*
X23553563Y-9919936D02*
X23544039Y-9900889D01*
X23544039Y-9900889D02*
X23534515Y-9862793D01*
X23534515Y-9862793D02*
X23534515Y-9815174D01*
X23534515Y-9815174D02*
X23544039Y-9777079D01*
X23544039Y-9777079D02*
X23553563Y-9758031D01*
X23553563Y-9758031D02*
X23563086Y-9748508D01*
X23563086Y-9748508D02*
X23582134Y-9738984D01*
X23734515Y-9919936D02*
X23744039Y-9929460D01*
X23744039Y-9929460D02*
X23734515Y-9938984D01*
X23734515Y-9938984D02*
X23724991Y-9929460D01*
X23724991Y-9929460D02*
X23734515Y-9919936D01*
X23734515Y-9919936D02*
X23734515Y-9938984D01*
X23867848Y-9738984D02*
X23886896Y-9738984D01*
X23886896Y-9738984D02*
X23905944Y-9748508D01*
X23905944Y-9748508D02*
X23915467Y-9758031D01*
X23915467Y-9758031D02*
X23924991Y-9777079D01*
X23924991Y-9777079D02*
X23934515Y-9815174D01*
X23934515Y-9815174D02*
X23934515Y-9862793D01*
X23934515Y-9862793D02*
X23924991Y-9900889D01*
X23924991Y-9900889D02*
X23915467Y-9919936D01*
X23915467Y-9919936D02*
X23905944Y-9929460D01*
X23905944Y-9929460D02*
X23886896Y-9938984D01*
X23886896Y-9938984D02*
X23867848Y-9938984D01*
X23867848Y-9938984D02*
X23848801Y-9929460D01*
X23848801Y-9929460D02*
X23839277Y-9919936D01*
X23839277Y-9919936D02*
X23829753Y-9900889D01*
X23829753Y-9900889D02*
X23820229Y-9862793D01*
X23820229Y-9862793D02*
X23820229Y-9815174D01*
X23820229Y-9815174D02*
X23829753Y-9777079D01*
X23829753Y-9777079D02*
X23839277Y-9758031D01*
X23839277Y-9758031D02*
X23848801Y-9748508D01*
X23848801Y-9748508D02*
X23867848Y-9738984D01*
X24058325Y-9738984D02*
X24077372Y-9738984D01*
X24077372Y-9738984D02*
X24096420Y-9748508D01*
X24096420Y-9748508D02*
X24105944Y-9758031D01*
X24105944Y-9758031D02*
X24115467Y-9777079D01*
X24115467Y-9777079D02*
X24124991Y-9815174D01*
X24124991Y-9815174D02*
X24124991Y-9862793D01*
X24124991Y-9862793D02*
X24115467Y-9900889D01*
X24115467Y-9900889D02*
X24105944Y-9919936D01*
X24105944Y-9919936D02*
X24096420Y-9929460D01*
X24096420Y-9929460D02*
X24077372Y-9938984D01*
X24077372Y-9938984D02*
X24058325Y-9938984D01*
X24058325Y-9938984D02*
X24039277Y-9929460D01*
X24039277Y-9929460D02*
X24029753Y-9919936D01*
X24029753Y-9919936D02*
X24020229Y-9900889D01*
X24020229Y-9900889D02*
X24010706Y-9862793D01*
X24010706Y-9862793D02*
X24010706Y-9815174D01*
X24010706Y-9815174D02*
X24020229Y-9777079D01*
X24020229Y-9777079D02*
X24029753Y-9758031D01*
X24029753Y-9758031D02*
X24039277Y-9748508D01*
X24039277Y-9748508D02*
X24058325Y-9738984D01*
X24191658Y-9738984D02*
X24324991Y-9738984D01*
X24324991Y-9738984D02*
X24239277Y-9938984D01*
X24410706Y-9938984D02*
X24448801Y-9938984D01*
X24448801Y-9938984D02*
X24467848Y-9929460D01*
X24467848Y-9929460D02*
X24477372Y-9919936D01*
X24477372Y-9919936D02*
X24496420Y-9891365D01*
X24496420Y-9891365D02*
X24505944Y-9853270D01*
X24505944Y-9853270D02*
X24505944Y-9777079D01*
X24505944Y-9777079D02*
X24496420Y-9758031D01*
X24496420Y-9758031D02*
X24486896Y-9748508D01*
X24486896Y-9748508D02*
X24467848Y-9738984D01*
X24467848Y-9738984D02*
X24429753Y-9738984D01*
X24429753Y-9738984D02*
X24410706Y-9748508D01*
X24410706Y-9748508D02*
X24401182Y-9758031D01*
X24401182Y-9758031D02*
X24391658Y-9777079D01*
X24391658Y-9777079D02*
X24391658Y-9824698D01*
X24391658Y-9824698D02*
X24401182Y-9843746D01*
X24401182Y-9843746D02*
X24410706Y-9853270D01*
X24410706Y-9853270D02*
X24429753Y-9862793D01*
X24429753Y-9862793D02*
X24467848Y-9862793D01*
X24467848Y-9862793D02*
X24486896Y-9853270D01*
X24486896Y-9853270D02*
X24496420Y-9843746D01*
X24496420Y-9843746D02*
X24505944Y-9824698D01*
X24582134Y-9738984D02*
X24582134Y-9777079D01*
X24658325Y-9738984D02*
X24658325Y-9777079D01*
X24953563Y-10015174D02*
X24944039Y-10005650D01*
X24944039Y-10005650D02*
X24924991Y-9977079D01*
X24924991Y-9977079D02*
X24915468Y-9958031D01*
X24915468Y-9958031D02*
X24905944Y-9929460D01*
X24905944Y-9929460D02*
X24896420Y-9881841D01*
X24896420Y-9881841D02*
X24896420Y-9843746D01*
X24896420Y-9843746D02*
X24905944Y-9796127D01*
X24905944Y-9796127D02*
X24915468Y-9767555D01*
X24915468Y-9767555D02*
X24924991Y-9748508D01*
X24924991Y-9748508D02*
X24944039Y-9719936D01*
X24944039Y-9719936D02*
X24953563Y-9710412D01*
X25115468Y-9738984D02*
X25077372Y-9738984D01*
X25077372Y-9738984D02*
X25058325Y-9748508D01*
X25058325Y-9748508D02*
X25048801Y-9758031D01*
X25048801Y-9758031D02*
X25029753Y-9786603D01*
X25029753Y-9786603D02*
X25020229Y-9824698D01*
X25020229Y-9824698D02*
X25020229Y-9900889D01*
X25020229Y-9900889D02*
X25029753Y-9919936D01*
X25029753Y-9919936D02*
X25039277Y-9929460D01*
X25039277Y-9929460D02*
X25058325Y-9938984D01*
X25058325Y-9938984D02*
X25096420Y-9938984D01*
X25096420Y-9938984D02*
X25115468Y-9929460D01*
X25115468Y-9929460D02*
X25124991Y-9919936D01*
X25124991Y-9919936D02*
X25134515Y-9900889D01*
X25134515Y-9900889D02*
X25134515Y-9853270D01*
X25134515Y-9853270D02*
X25124991Y-9834222D01*
X25124991Y-9834222D02*
X25115468Y-9824698D01*
X25115468Y-9824698D02*
X25096420Y-9815174D01*
X25096420Y-9815174D02*
X25058325Y-9815174D01*
X25058325Y-9815174D02*
X25039277Y-9824698D01*
X25039277Y-9824698D02*
X25029753Y-9834222D01*
X25029753Y-9834222D02*
X25020229Y-9853270D01*
X25372610Y-9938984D02*
X25372610Y-9738984D01*
X25458325Y-9938984D02*
X25458325Y-9834222D01*
X25458325Y-9834222D02*
X25448801Y-9815174D01*
X25448801Y-9815174D02*
X25429753Y-9805650D01*
X25429753Y-9805650D02*
X25401182Y-9805650D01*
X25401182Y-9805650D02*
X25382134Y-9815174D01*
X25382134Y-9815174D02*
X25372610Y-9824698D01*
X25582134Y-9938984D02*
X25563087Y-9929460D01*
X25563087Y-9929460D02*
X25553563Y-9919936D01*
X25553563Y-9919936D02*
X25544039Y-9900889D01*
X25544039Y-9900889D02*
X25544039Y-9843746D01*
X25544039Y-9843746D02*
X25553563Y-9824698D01*
X25553563Y-9824698D02*
X25563087Y-9815174D01*
X25563087Y-9815174D02*
X25582134Y-9805650D01*
X25582134Y-9805650D02*
X25610706Y-9805650D01*
X25610706Y-9805650D02*
X25629753Y-9815174D01*
X25629753Y-9815174D02*
X25639277Y-9824698D01*
X25639277Y-9824698D02*
X25648801Y-9843746D01*
X25648801Y-9843746D02*
X25648801Y-9900889D01*
X25648801Y-9900889D02*
X25639277Y-9919936D01*
X25639277Y-9919936D02*
X25629753Y-9929460D01*
X25629753Y-9929460D02*
X25610706Y-9938984D01*
X25610706Y-9938984D02*
X25582134Y-9938984D01*
X25763087Y-9938984D02*
X25744039Y-9929460D01*
X25744039Y-9929460D02*
X25734515Y-9910412D01*
X25734515Y-9910412D02*
X25734515Y-9738984D01*
X25915468Y-9929460D02*
X25896420Y-9938984D01*
X25896420Y-9938984D02*
X25858325Y-9938984D01*
X25858325Y-9938984D02*
X25839277Y-9929460D01*
X25839277Y-9929460D02*
X25829753Y-9910412D01*
X25829753Y-9910412D02*
X25829753Y-9834222D01*
X25829753Y-9834222D02*
X25839277Y-9815174D01*
X25839277Y-9815174D02*
X25858325Y-9805650D01*
X25858325Y-9805650D02*
X25896420Y-9805650D01*
X25896420Y-9805650D02*
X25915468Y-9815174D01*
X25915468Y-9815174D02*
X25924991Y-9834222D01*
X25924991Y-9834222D02*
X25924991Y-9853270D01*
X25924991Y-9853270D02*
X25829753Y-9872317D01*
X26001182Y-9929460D02*
X26020230Y-9938984D01*
X26020230Y-9938984D02*
X26058325Y-9938984D01*
X26058325Y-9938984D02*
X26077372Y-9929460D01*
X26077372Y-9929460D02*
X26086896Y-9910412D01*
X26086896Y-9910412D02*
X26086896Y-9900889D01*
X26086896Y-9900889D02*
X26077372Y-9881841D01*
X26077372Y-9881841D02*
X26058325Y-9872317D01*
X26058325Y-9872317D02*
X26029753Y-9872317D01*
X26029753Y-9872317D02*
X26010706Y-9862793D01*
X26010706Y-9862793D02*
X26001182Y-9843746D01*
X26001182Y-9843746D02*
X26001182Y-9834222D01*
X26001182Y-9834222D02*
X26010706Y-9815174D01*
X26010706Y-9815174D02*
X26029753Y-9805650D01*
X26029753Y-9805650D02*
X26058325Y-9805650D01*
X26058325Y-9805650D02*
X26077372Y-9815174D01*
X26153563Y-10015174D02*
X26163087Y-10005650D01*
X26163087Y-10005650D02*
X26182134Y-9977079D01*
X26182134Y-9977079D02*
X26191658Y-9958031D01*
X26191658Y-9958031D02*
X26201182Y-9929460D01*
X26201182Y-9929460D02*
X26210706Y-9881841D01*
X26210706Y-9881841D02*
X26210706Y-9843746D01*
X26210706Y-9843746D02*
X26201182Y-9796127D01*
X26201182Y-9796127D02*
X26191658Y-9767555D01*
X26191658Y-9767555D02*
X26182134Y-9748508D01*
X26182134Y-9748508D02*
X26163087Y-9719936D01*
X26163087Y-9719936D02*
X26153563Y-9710412D01*
D12*
X21378500Y-10111500D02*
G75*
G02*
X21318500Y-10111500I-30000J0D01*
G01*
X21318500Y-10111500D02*
G75*
G02*
X21378500Y-10111500I30000J0D01*
G01*
D11*
X21677372Y-10002984D02*
X21696420Y-10002984D01*
X21696420Y-10002984D02*
X21715467Y-10012508D01*
X21715467Y-10012508D02*
X21724991Y-10022031D01*
X21724991Y-10022031D02*
X21734515Y-10041079D01*
X21734515Y-10041079D02*
X21744039Y-10079174D01*
X21744039Y-10079174D02*
X21744039Y-10126793D01*
X21744039Y-10126793D02*
X21734515Y-10164889D01*
X21734515Y-10164889D02*
X21724991Y-10183936D01*
X21724991Y-10183936D02*
X21715467Y-10193460D01*
X21715467Y-10193460D02*
X21696420Y-10202984D01*
X21696420Y-10202984D02*
X21677372Y-10202984D01*
X21677372Y-10202984D02*
X21658324Y-10193460D01*
X21658324Y-10193460D02*
X21648801Y-10183936D01*
X21648801Y-10183936D02*
X21639277Y-10164889D01*
X21639277Y-10164889D02*
X21629753Y-10126793D01*
X21629753Y-10126793D02*
X21629753Y-10079174D01*
X21629753Y-10079174D02*
X21639277Y-10041079D01*
X21639277Y-10041079D02*
X21648801Y-10022031D01*
X21648801Y-10022031D02*
X21658324Y-10012508D01*
X21658324Y-10012508D02*
X21677372Y-10002984D01*
X21829753Y-10183936D02*
X21839277Y-10193460D01*
X21839277Y-10193460D02*
X21829753Y-10202984D01*
X21829753Y-10202984D02*
X21820229Y-10193460D01*
X21820229Y-10193460D02*
X21829753Y-10183936D01*
X21829753Y-10183936D02*
X21829753Y-10202984D01*
X22010705Y-10002984D02*
X21972610Y-10002984D01*
X21972610Y-10002984D02*
X21953563Y-10012508D01*
X21953563Y-10012508D02*
X21944039Y-10022031D01*
X21944039Y-10022031D02*
X21924991Y-10050603D01*
X21924991Y-10050603D02*
X21915467Y-10088698D01*
X21915467Y-10088698D02*
X21915467Y-10164889D01*
X21915467Y-10164889D02*
X21924991Y-10183936D01*
X21924991Y-10183936D02*
X21934515Y-10193460D01*
X21934515Y-10193460D02*
X21953563Y-10202984D01*
X21953563Y-10202984D02*
X21991658Y-10202984D01*
X21991658Y-10202984D02*
X22010705Y-10193460D01*
X22010705Y-10193460D02*
X22020229Y-10183936D01*
X22020229Y-10183936D02*
X22029753Y-10164889D01*
X22029753Y-10164889D02*
X22029753Y-10117270D01*
X22029753Y-10117270D02*
X22020229Y-10098222D01*
X22020229Y-10098222D02*
X22010705Y-10088698D01*
X22010705Y-10088698D02*
X21991658Y-10079174D01*
X21991658Y-10079174D02*
X21953563Y-10079174D01*
X21953563Y-10079174D02*
X21934515Y-10088698D01*
X21934515Y-10088698D02*
X21924991Y-10098222D01*
X21924991Y-10098222D02*
X21915467Y-10117270D01*
X22153563Y-10002984D02*
X22172610Y-10002984D01*
X22172610Y-10002984D02*
X22191658Y-10012508D01*
X22191658Y-10012508D02*
X22201182Y-10022031D01*
X22201182Y-10022031D02*
X22210705Y-10041079D01*
X22210705Y-10041079D02*
X22220229Y-10079174D01*
X22220229Y-10079174D02*
X22220229Y-10126793D01*
X22220229Y-10126793D02*
X22210705Y-10164889D01*
X22210705Y-10164889D02*
X22201182Y-10183936D01*
X22201182Y-10183936D02*
X22191658Y-10193460D01*
X22191658Y-10193460D02*
X22172610Y-10202984D01*
X22172610Y-10202984D02*
X22153563Y-10202984D01*
X22153563Y-10202984D02*
X22134515Y-10193460D01*
X22134515Y-10193460D02*
X22124991Y-10183936D01*
X22124991Y-10183936D02*
X22115467Y-10164889D01*
X22115467Y-10164889D02*
X22105944Y-10126793D01*
X22105944Y-10126793D02*
X22105944Y-10079174D01*
X22105944Y-10079174D02*
X22115467Y-10041079D01*
X22115467Y-10041079D02*
X22124991Y-10022031D01*
X22124991Y-10022031D02*
X22134515Y-10012508D01*
X22134515Y-10012508D02*
X22153563Y-10002984D01*
X22344039Y-10002984D02*
X22363086Y-10002984D01*
X22363086Y-10002984D02*
X22382134Y-10012508D01*
X22382134Y-10012508D02*
X22391658Y-10022031D01*
X22391658Y-10022031D02*
X22401182Y-10041079D01*
X22401182Y-10041079D02*
X22410705Y-10079174D01*
X22410705Y-10079174D02*
X22410705Y-10126793D01*
X22410705Y-10126793D02*
X22401182Y-10164889D01*
X22401182Y-10164889D02*
X22391658Y-10183936D01*
X22391658Y-10183936D02*
X22382134Y-10193460D01*
X22382134Y-10193460D02*
X22363086Y-10202984D01*
X22363086Y-10202984D02*
X22344039Y-10202984D01*
X22344039Y-10202984D02*
X22324991Y-10193460D01*
X22324991Y-10193460D02*
X22315467Y-10183936D01*
X22315467Y-10183936D02*
X22305944Y-10164889D01*
X22305944Y-10164889D02*
X22296420Y-10126793D01*
X22296420Y-10126793D02*
X22296420Y-10079174D01*
X22296420Y-10079174D02*
X22305944Y-10041079D01*
X22305944Y-10041079D02*
X22315467Y-10022031D01*
X22315467Y-10022031D02*
X22324991Y-10012508D01*
X22324991Y-10012508D02*
X22344039Y-10002984D01*
X22496420Y-10202984D02*
X22496420Y-10069650D01*
X22496420Y-10088698D02*
X22505943Y-10079174D01*
X22505943Y-10079174D02*
X22524991Y-10069650D01*
X22524991Y-10069650D02*
X22553563Y-10069650D01*
X22553563Y-10069650D02*
X22572610Y-10079174D01*
X22572610Y-10079174D02*
X22582134Y-10098222D01*
X22582134Y-10098222D02*
X22582134Y-10202984D01*
X22582134Y-10098222D02*
X22591658Y-10079174D01*
X22591658Y-10079174D02*
X22610705Y-10069650D01*
X22610705Y-10069650D02*
X22639277Y-10069650D01*
X22639277Y-10069650D02*
X22658324Y-10079174D01*
X22658324Y-10079174D02*
X22667848Y-10098222D01*
X22667848Y-10098222D02*
X22667848Y-10202984D01*
X22763086Y-10202984D02*
X22763086Y-10069650D01*
X22763086Y-10088698D02*
X22772610Y-10079174D01*
X22772610Y-10079174D02*
X22791658Y-10069650D01*
X22791658Y-10069650D02*
X22820229Y-10069650D01*
X22820229Y-10069650D02*
X22839277Y-10079174D01*
X22839277Y-10079174D02*
X22848801Y-10098222D01*
X22848801Y-10098222D02*
X22848801Y-10202984D01*
X22848801Y-10098222D02*
X22858324Y-10079174D01*
X22858324Y-10079174D02*
X22877372Y-10069650D01*
X22877372Y-10069650D02*
X22905943Y-10069650D01*
X22905943Y-10069650D02*
X22924991Y-10079174D01*
X22924991Y-10079174D02*
X22934515Y-10098222D01*
X22934515Y-10098222D02*
X22934515Y-10202984D01*
X23324991Y-9993460D02*
X23153563Y-10250603D01*
X23582134Y-10002984D02*
X23601182Y-10002984D01*
X23601182Y-10002984D02*
X23620229Y-10012508D01*
X23620229Y-10012508D02*
X23629753Y-10022031D01*
X23629753Y-10022031D02*
X23639277Y-10041079D01*
X23639277Y-10041079D02*
X23648801Y-10079174D01*
X23648801Y-10079174D02*
X23648801Y-10126793D01*
X23648801Y-10126793D02*
X23639277Y-10164889D01*
X23639277Y-10164889D02*
X23629753Y-10183936D01*
X23629753Y-10183936D02*
X23620229Y-10193460D01*
X23620229Y-10193460D02*
X23601182Y-10202984D01*
X23601182Y-10202984D02*
X23582134Y-10202984D01*
X23582134Y-10202984D02*
X23563086Y-10193460D01*
X23563086Y-10193460D02*
X23553563Y-10183936D01*
X23553563Y-10183936D02*
X23544039Y-10164889D01*
X23544039Y-10164889D02*
X23534515Y-10126793D01*
X23534515Y-10126793D02*
X23534515Y-10079174D01*
X23534515Y-10079174D02*
X23544039Y-10041079D01*
X23544039Y-10041079D02*
X23553563Y-10022031D01*
X23553563Y-10022031D02*
X23563086Y-10012508D01*
X23563086Y-10012508D02*
X23582134Y-10002984D01*
X23734515Y-10183936D02*
X23744039Y-10193460D01*
X23744039Y-10193460D02*
X23734515Y-10202984D01*
X23734515Y-10202984D02*
X23724991Y-10193460D01*
X23724991Y-10193460D02*
X23734515Y-10183936D01*
X23734515Y-10183936D02*
X23734515Y-10202984D01*
X23867848Y-10002984D02*
X23886896Y-10002984D01*
X23886896Y-10002984D02*
X23905944Y-10012508D01*
X23905944Y-10012508D02*
X23915467Y-10022031D01*
X23915467Y-10022031D02*
X23924991Y-10041079D01*
X23924991Y-10041079D02*
X23934515Y-10079174D01*
X23934515Y-10079174D02*
X23934515Y-10126793D01*
X23934515Y-10126793D02*
X23924991Y-10164889D01*
X23924991Y-10164889D02*
X23915467Y-10183936D01*
X23915467Y-10183936D02*
X23905944Y-10193460D01*
X23905944Y-10193460D02*
X23886896Y-10202984D01*
X23886896Y-10202984D02*
X23867848Y-10202984D01*
X23867848Y-10202984D02*
X23848801Y-10193460D01*
X23848801Y-10193460D02*
X23839277Y-10183936D01*
X23839277Y-10183936D02*
X23829753Y-10164889D01*
X23829753Y-10164889D02*
X23820229Y-10126793D01*
X23820229Y-10126793D02*
X23820229Y-10079174D01*
X23820229Y-10079174D02*
X23829753Y-10041079D01*
X23829753Y-10041079D02*
X23839277Y-10022031D01*
X23839277Y-10022031D02*
X23848801Y-10012508D01*
X23848801Y-10012508D02*
X23867848Y-10002984D01*
X24010706Y-10022031D02*
X24020229Y-10012508D01*
X24020229Y-10012508D02*
X24039277Y-10002984D01*
X24039277Y-10002984D02*
X24086896Y-10002984D01*
X24086896Y-10002984D02*
X24105944Y-10012508D01*
X24105944Y-10012508D02*
X24115467Y-10022031D01*
X24115467Y-10022031D02*
X24124991Y-10041079D01*
X24124991Y-10041079D02*
X24124991Y-10060127D01*
X24124991Y-10060127D02*
X24115467Y-10088698D01*
X24115467Y-10088698D02*
X24001182Y-10202984D01*
X24001182Y-10202984D02*
X24124991Y-10202984D01*
X24191658Y-10002984D02*
X24315467Y-10002984D01*
X24315467Y-10002984D02*
X24248801Y-10079174D01*
X24248801Y-10079174D02*
X24277372Y-10079174D01*
X24277372Y-10079174D02*
X24296420Y-10088698D01*
X24296420Y-10088698D02*
X24305944Y-10098222D01*
X24305944Y-10098222D02*
X24315467Y-10117270D01*
X24315467Y-10117270D02*
X24315467Y-10164889D01*
X24315467Y-10164889D02*
X24305944Y-10183936D01*
X24305944Y-10183936D02*
X24296420Y-10193460D01*
X24296420Y-10193460D02*
X24277372Y-10202984D01*
X24277372Y-10202984D02*
X24220229Y-10202984D01*
X24220229Y-10202984D02*
X24201182Y-10193460D01*
X24201182Y-10193460D02*
X24191658Y-10183936D01*
X24486896Y-10002984D02*
X24448801Y-10002984D01*
X24448801Y-10002984D02*
X24429753Y-10012508D01*
X24429753Y-10012508D02*
X24420229Y-10022031D01*
X24420229Y-10022031D02*
X24401182Y-10050603D01*
X24401182Y-10050603D02*
X24391658Y-10088698D01*
X24391658Y-10088698D02*
X24391658Y-10164889D01*
X24391658Y-10164889D02*
X24401182Y-10183936D01*
X24401182Y-10183936D02*
X24410706Y-10193460D01*
X24410706Y-10193460D02*
X24429753Y-10202984D01*
X24429753Y-10202984D02*
X24467848Y-10202984D01*
X24467848Y-10202984D02*
X24486896Y-10193460D01*
X24486896Y-10193460D02*
X24496420Y-10183936D01*
X24496420Y-10183936D02*
X24505944Y-10164889D01*
X24505944Y-10164889D02*
X24505944Y-10117270D01*
X24505944Y-10117270D02*
X24496420Y-10098222D01*
X24496420Y-10098222D02*
X24486896Y-10088698D01*
X24486896Y-10088698D02*
X24467848Y-10079174D01*
X24467848Y-10079174D02*
X24429753Y-10079174D01*
X24429753Y-10079174D02*
X24410706Y-10088698D01*
X24410706Y-10088698D02*
X24401182Y-10098222D01*
X24401182Y-10098222D02*
X24391658Y-10117270D01*
X24582134Y-10002984D02*
X24582134Y-10041079D01*
X24658325Y-10002984D02*
X24658325Y-10041079D01*
X24953563Y-10279174D02*
X24944039Y-10269650D01*
X24944039Y-10269650D02*
X24924991Y-10241079D01*
X24924991Y-10241079D02*
X24915468Y-10222031D01*
X24915468Y-10222031D02*
X24905944Y-10193460D01*
X24905944Y-10193460D02*
X24896420Y-10145841D01*
X24896420Y-10145841D02*
X24896420Y-10107746D01*
X24896420Y-10107746D02*
X24905944Y-10060127D01*
X24905944Y-10060127D02*
X24915468Y-10031555D01*
X24915468Y-10031555D02*
X24924991Y-10012508D01*
X24924991Y-10012508D02*
X24944039Y-9983936D01*
X24944039Y-9983936D02*
X24953563Y-9974412D01*
X25067848Y-10002984D02*
X25086896Y-10002984D01*
X25086896Y-10002984D02*
X25105944Y-10012508D01*
X25105944Y-10012508D02*
X25115468Y-10022031D01*
X25115468Y-10022031D02*
X25124991Y-10041079D01*
X25124991Y-10041079D02*
X25134515Y-10079174D01*
X25134515Y-10079174D02*
X25134515Y-10126793D01*
X25134515Y-10126793D02*
X25124991Y-10164889D01*
X25124991Y-10164889D02*
X25115468Y-10183936D01*
X25115468Y-10183936D02*
X25105944Y-10193460D01*
X25105944Y-10193460D02*
X25086896Y-10202984D01*
X25086896Y-10202984D02*
X25067848Y-10202984D01*
X25067848Y-10202984D02*
X25048801Y-10193460D01*
X25048801Y-10193460D02*
X25039277Y-10183936D01*
X25039277Y-10183936D02*
X25029753Y-10164889D01*
X25029753Y-10164889D02*
X25020229Y-10126793D01*
X25020229Y-10126793D02*
X25020229Y-10079174D01*
X25020229Y-10079174D02*
X25029753Y-10041079D01*
X25029753Y-10041079D02*
X25039277Y-10022031D01*
X25039277Y-10022031D02*
X25048801Y-10012508D01*
X25048801Y-10012508D02*
X25067848Y-10002984D01*
X25372610Y-10202984D02*
X25372610Y-10002984D01*
X25458325Y-10202984D02*
X25458325Y-10098222D01*
X25458325Y-10098222D02*
X25448801Y-10079174D01*
X25448801Y-10079174D02*
X25429753Y-10069650D01*
X25429753Y-10069650D02*
X25401182Y-10069650D01*
X25401182Y-10069650D02*
X25382134Y-10079174D01*
X25382134Y-10079174D02*
X25372610Y-10088698D01*
X25582134Y-10202984D02*
X25563087Y-10193460D01*
X25563087Y-10193460D02*
X25553563Y-10183936D01*
X25553563Y-10183936D02*
X25544039Y-10164889D01*
X25544039Y-10164889D02*
X25544039Y-10107746D01*
X25544039Y-10107746D02*
X25553563Y-10088698D01*
X25553563Y-10088698D02*
X25563087Y-10079174D01*
X25563087Y-10079174D02*
X25582134Y-10069650D01*
X25582134Y-10069650D02*
X25610706Y-10069650D01*
X25610706Y-10069650D02*
X25629753Y-10079174D01*
X25629753Y-10079174D02*
X25639277Y-10088698D01*
X25639277Y-10088698D02*
X25648801Y-10107746D01*
X25648801Y-10107746D02*
X25648801Y-10164889D01*
X25648801Y-10164889D02*
X25639277Y-10183936D01*
X25639277Y-10183936D02*
X25629753Y-10193460D01*
X25629753Y-10193460D02*
X25610706Y-10202984D01*
X25610706Y-10202984D02*
X25582134Y-10202984D01*
X25763087Y-10202984D02*
X25744039Y-10193460D01*
X25744039Y-10193460D02*
X25734515Y-10174412D01*
X25734515Y-10174412D02*
X25734515Y-10002984D01*
X25915468Y-10193460D02*
X25896420Y-10202984D01*
X25896420Y-10202984D02*
X25858325Y-10202984D01*
X25858325Y-10202984D02*
X25839277Y-10193460D01*
X25839277Y-10193460D02*
X25829753Y-10174412D01*
X25829753Y-10174412D02*
X25829753Y-10098222D01*
X25829753Y-10098222D02*
X25839277Y-10079174D01*
X25839277Y-10079174D02*
X25858325Y-10069650D01*
X25858325Y-10069650D02*
X25896420Y-10069650D01*
X25896420Y-10069650D02*
X25915468Y-10079174D01*
X25915468Y-10079174D02*
X25924991Y-10098222D01*
X25924991Y-10098222D02*
X25924991Y-10117270D01*
X25924991Y-10117270D02*
X25829753Y-10136317D01*
X26001182Y-10193460D02*
X26020230Y-10202984D01*
X26020230Y-10202984D02*
X26058325Y-10202984D01*
X26058325Y-10202984D02*
X26077372Y-10193460D01*
X26077372Y-10193460D02*
X26086896Y-10174412D01*
X26086896Y-10174412D02*
X26086896Y-10164889D01*
X26086896Y-10164889D02*
X26077372Y-10145841D01*
X26077372Y-10145841D02*
X26058325Y-10136317D01*
X26058325Y-10136317D02*
X26029753Y-10136317D01*
X26029753Y-10136317D02*
X26010706Y-10126793D01*
X26010706Y-10126793D02*
X26001182Y-10107746D01*
X26001182Y-10107746D02*
X26001182Y-10098222D01*
X26001182Y-10098222D02*
X26010706Y-10079174D01*
X26010706Y-10079174D02*
X26029753Y-10069650D01*
X26029753Y-10069650D02*
X26058325Y-10069650D01*
X26058325Y-10069650D02*
X26077372Y-10079174D01*
X26324992Y-10126793D02*
X26477373Y-10126793D01*
X26401182Y-10202984D02*
X26401182Y-10050603D01*
X26810706Y-10069650D02*
X26810706Y-10202984D01*
X26763087Y-9993460D02*
X26715468Y-10136317D01*
X26715468Y-10136317D02*
X26839277Y-10136317D01*
X27058325Y-10193460D02*
X27077373Y-10202984D01*
X27077373Y-10202984D02*
X27115468Y-10202984D01*
X27115468Y-10202984D02*
X27134515Y-10193460D01*
X27134515Y-10193460D02*
X27144039Y-10174412D01*
X27144039Y-10174412D02*
X27144039Y-10164889D01*
X27144039Y-10164889D02*
X27134515Y-10145841D01*
X27134515Y-10145841D02*
X27115468Y-10136317D01*
X27115468Y-10136317D02*
X27086896Y-10136317D01*
X27086896Y-10136317D02*
X27067849Y-10126793D01*
X27067849Y-10126793D02*
X27058325Y-10107746D01*
X27058325Y-10107746D02*
X27058325Y-10098222D01*
X27058325Y-10098222D02*
X27067849Y-10079174D01*
X27067849Y-10079174D02*
X27086896Y-10069650D01*
X27086896Y-10069650D02*
X27115468Y-10069650D01*
X27115468Y-10069650D02*
X27134515Y-10079174D01*
X27258325Y-10202984D02*
X27239277Y-10193460D01*
X27239277Y-10193460D02*
X27229754Y-10174412D01*
X27229754Y-10174412D02*
X27229754Y-10002984D01*
X27363087Y-10202984D02*
X27344039Y-10193460D01*
X27344039Y-10193460D02*
X27334515Y-10183936D01*
X27334515Y-10183936D02*
X27324992Y-10164889D01*
X27324992Y-10164889D02*
X27324992Y-10107746D01*
X27324992Y-10107746D02*
X27334515Y-10088698D01*
X27334515Y-10088698D02*
X27344039Y-10079174D01*
X27344039Y-10079174D02*
X27363087Y-10069650D01*
X27363087Y-10069650D02*
X27391658Y-10069650D01*
X27391658Y-10069650D02*
X27410706Y-10079174D01*
X27410706Y-10079174D02*
X27420230Y-10088698D01*
X27420230Y-10088698D02*
X27429754Y-10107746D01*
X27429754Y-10107746D02*
X27429754Y-10164889D01*
X27429754Y-10164889D02*
X27420230Y-10183936D01*
X27420230Y-10183936D02*
X27410706Y-10193460D01*
X27410706Y-10193460D02*
X27391658Y-10202984D01*
X27391658Y-10202984D02*
X27363087Y-10202984D01*
X27486896Y-10069650D02*
X27563087Y-10069650D01*
X27515468Y-10002984D02*
X27515468Y-10174412D01*
X27515468Y-10174412D02*
X27524992Y-10193460D01*
X27524992Y-10193460D02*
X27544039Y-10202984D01*
X27544039Y-10202984D02*
X27563087Y-10202984D01*
X27620230Y-10193460D02*
X27639277Y-10202984D01*
X27639277Y-10202984D02*
X27677373Y-10202984D01*
X27677373Y-10202984D02*
X27696420Y-10193460D01*
X27696420Y-10193460D02*
X27705944Y-10174412D01*
X27705944Y-10174412D02*
X27705944Y-10164889D01*
X27705944Y-10164889D02*
X27696420Y-10145841D01*
X27696420Y-10145841D02*
X27677373Y-10136317D01*
X27677373Y-10136317D02*
X27648801Y-10136317D01*
X27648801Y-10136317D02*
X27629754Y-10126793D01*
X27629754Y-10126793D02*
X27620230Y-10107746D01*
X27620230Y-10107746D02*
X27620230Y-10098222D01*
X27620230Y-10098222D02*
X27629754Y-10079174D01*
X27629754Y-10079174D02*
X27648801Y-10069650D01*
X27648801Y-10069650D02*
X27677373Y-10069650D01*
X27677373Y-10069650D02*
X27696420Y-10079174D01*
X27772611Y-10279174D02*
X27782135Y-10269650D01*
X27782135Y-10269650D02*
X27801182Y-10241079D01*
X27801182Y-10241079D02*
X27810706Y-10222031D01*
X27810706Y-10222031D02*
X27820230Y-10193460D01*
X27820230Y-10193460D02*
X27829754Y-10145841D01*
X27829754Y-10145841D02*
X27829754Y-10107746D01*
X27829754Y-10107746D02*
X27820230Y-10060127D01*
X27820230Y-10060127D02*
X27810706Y-10031555D01*
X27810706Y-10031555D02*
X27801182Y-10012508D01*
X27801182Y-10012508D02*
X27782135Y-9983936D01*
X27782135Y-9983936D02*
X27772611Y-9974412D01*
X21278500Y-10275500D02*
X21278500Y-10475500D01*
X21178500Y-10375500D02*
X21378500Y-10375500D01*
X21629753Y-10286031D02*
X21639277Y-10276508D01*
X21639277Y-10276508D02*
X21658324Y-10266984D01*
X21658324Y-10266984D02*
X21705944Y-10266984D01*
X21705944Y-10266984D02*
X21724991Y-10276508D01*
X21724991Y-10276508D02*
X21734515Y-10286031D01*
X21734515Y-10286031D02*
X21744039Y-10305079D01*
X21744039Y-10305079D02*
X21744039Y-10324127D01*
X21744039Y-10324127D02*
X21734515Y-10352698D01*
X21734515Y-10352698D02*
X21620229Y-10466984D01*
X21620229Y-10466984D02*
X21744039Y-10466984D01*
X21829753Y-10447936D02*
X21839277Y-10457460D01*
X21839277Y-10457460D02*
X21829753Y-10466984D01*
X21829753Y-10466984D02*
X21820229Y-10457460D01*
X21820229Y-10457460D02*
X21829753Y-10447936D01*
X21829753Y-10447936D02*
X21829753Y-10466984D01*
X21915467Y-10286031D02*
X21924991Y-10276508D01*
X21924991Y-10276508D02*
X21944039Y-10266984D01*
X21944039Y-10266984D02*
X21991658Y-10266984D01*
X21991658Y-10266984D02*
X22010705Y-10276508D01*
X22010705Y-10276508D02*
X22020229Y-10286031D01*
X22020229Y-10286031D02*
X22029753Y-10305079D01*
X22029753Y-10305079D02*
X22029753Y-10324127D01*
X22029753Y-10324127D02*
X22020229Y-10352698D01*
X22020229Y-10352698D02*
X21905944Y-10466984D01*
X21905944Y-10466984D02*
X22029753Y-10466984D01*
X22153563Y-10266984D02*
X22172610Y-10266984D01*
X22172610Y-10266984D02*
X22191658Y-10276508D01*
X22191658Y-10276508D02*
X22201182Y-10286031D01*
X22201182Y-10286031D02*
X22210705Y-10305079D01*
X22210705Y-10305079D02*
X22220229Y-10343174D01*
X22220229Y-10343174D02*
X22220229Y-10390793D01*
X22220229Y-10390793D02*
X22210705Y-10428889D01*
X22210705Y-10428889D02*
X22201182Y-10447936D01*
X22201182Y-10447936D02*
X22191658Y-10457460D01*
X22191658Y-10457460D02*
X22172610Y-10466984D01*
X22172610Y-10466984D02*
X22153563Y-10466984D01*
X22153563Y-10466984D02*
X22134515Y-10457460D01*
X22134515Y-10457460D02*
X22124991Y-10447936D01*
X22124991Y-10447936D02*
X22115467Y-10428889D01*
X22115467Y-10428889D02*
X22105944Y-10390793D01*
X22105944Y-10390793D02*
X22105944Y-10343174D01*
X22105944Y-10343174D02*
X22115467Y-10305079D01*
X22115467Y-10305079D02*
X22124991Y-10286031D01*
X22124991Y-10286031D02*
X22134515Y-10276508D01*
X22134515Y-10276508D02*
X22153563Y-10266984D01*
X22344039Y-10266984D02*
X22363086Y-10266984D01*
X22363086Y-10266984D02*
X22382134Y-10276508D01*
X22382134Y-10276508D02*
X22391658Y-10286031D01*
X22391658Y-10286031D02*
X22401182Y-10305079D01*
X22401182Y-10305079D02*
X22410705Y-10343174D01*
X22410705Y-10343174D02*
X22410705Y-10390793D01*
X22410705Y-10390793D02*
X22401182Y-10428889D01*
X22401182Y-10428889D02*
X22391658Y-10447936D01*
X22391658Y-10447936D02*
X22382134Y-10457460D01*
X22382134Y-10457460D02*
X22363086Y-10466984D01*
X22363086Y-10466984D02*
X22344039Y-10466984D01*
X22344039Y-10466984D02*
X22324991Y-10457460D01*
X22324991Y-10457460D02*
X22315467Y-10447936D01*
X22315467Y-10447936D02*
X22305944Y-10428889D01*
X22305944Y-10428889D02*
X22296420Y-10390793D01*
X22296420Y-10390793D02*
X22296420Y-10343174D01*
X22296420Y-10343174D02*
X22305944Y-10305079D01*
X22305944Y-10305079D02*
X22315467Y-10286031D01*
X22315467Y-10286031D02*
X22324991Y-10276508D01*
X22324991Y-10276508D02*
X22344039Y-10266984D01*
X22496420Y-10466984D02*
X22496420Y-10333650D01*
X22496420Y-10352698D02*
X22505943Y-10343174D01*
X22505943Y-10343174D02*
X22524991Y-10333650D01*
X22524991Y-10333650D02*
X22553563Y-10333650D01*
X22553563Y-10333650D02*
X22572610Y-10343174D01*
X22572610Y-10343174D02*
X22582134Y-10362222D01*
X22582134Y-10362222D02*
X22582134Y-10466984D01*
X22582134Y-10362222D02*
X22591658Y-10343174D01*
X22591658Y-10343174D02*
X22610705Y-10333650D01*
X22610705Y-10333650D02*
X22639277Y-10333650D01*
X22639277Y-10333650D02*
X22658324Y-10343174D01*
X22658324Y-10343174D02*
X22667848Y-10362222D01*
X22667848Y-10362222D02*
X22667848Y-10466984D01*
X22763086Y-10466984D02*
X22763086Y-10333650D01*
X22763086Y-10352698D02*
X22772610Y-10343174D01*
X22772610Y-10343174D02*
X22791658Y-10333650D01*
X22791658Y-10333650D02*
X22820229Y-10333650D01*
X22820229Y-10333650D02*
X22839277Y-10343174D01*
X22839277Y-10343174D02*
X22848801Y-10362222D01*
X22848801Y-10362222D02*
X22848801Y-10466984D01*
X22848801Y-10362222D02*
X22858324Y-10343174D01*
X22858324Y-10343174D02*
X22877372Y-10333650D01*
X22877372Y-10333650D02*
X22905943Y-10333650D01*
X22905943Y-10333650D02*
X22924991Y-10343174D01*
X22924991Y-10343174D02*
X22934515Y-10362222D01*
X22934515Y-10362222D02*
X22934515Y-10466984D01*
X23324991Y-10257460D02*
X23153563Y-10514603D01*
X23582134Y-10266984D02*
X23601182Y-10266984D01*
X23601182Y-10266984D02*
X23620229Y-10276508D01*
X23620229Y-10276508D02*
X23629753Y-10286031D01*
X23629753Y-10286031D02*
X23639277Y-10305079D01*
X23639277Y-10305079D02*
X23648801Y-10343174D01*
X23648801Y-10343174D02*
X23648801Y-10390793D01*
X23648801Y-10390793D02*
X23639277Y-10428889D01*
X23639277Y-10428889D02*
X23629753Y-10447936D01*
X23629753Y-10447936D02*
X23620229Y-10457460D01*
X23620229Y-10457460D02*
X23601182Y-10466984D01*
X23601182Y-10466984D02*
X23582134Y-10466984D01*
X23582134Y-10466984D02*
X23563086Y-10457460D01*
X23563086Y-10457460D02*
X23553563Y-10447936D01*
X23553563Y-10447936D02*
X23544039Y-10428889D01*
X23544039Y-10428889D02*
X23534515Y-10390793D01*
X23534515Y-10390793D02*
X23534515Y-10343174D01*
X23534515Y-10343174D02*
X23544039Y-10305079D01*
X23544039Y-10305079D02*
X23553563Y-10286031D01*
X23553563Y-10286031D02*
X23563086Y-10276508D01*
X23563086Y-10276508D02*
X23582134Y-10266984D01*
X23734515Y-10447936D02*
X23744039Y-10457460D01*
X23744039Y-10457460D02*
X23734515Y-10466984D01*
X23734515Y-10466984D02*
X23724991Y-10457460D01*
X23724991Y-10457460D02*
X23734515Y-10447936D01*
X23734515Y-10447936D02*
X23734515Y-10466984D01*
X23867848Y-10266984D02*
X23886896Y-10266984D01*
X23886896Y-10266984D02*
X23905944Y-10276508D01*
X23905944Y-10276508D02*
X23915467Y-10286031D01*
X23915467Y-10286031D02*
X23924991Y-10305079D01*
X23924991Y-10305079D02*
X23934515Y-10343174D01*
X23934515Y-10343174D02*
X23934515Y-10390793D01*
X23934515Y-10390793D02*
X23924991Y-10428889D01*
X23924991Y-10428889D02*
X23915467Y-10447936D01*
X23915467Y-10447936D02*
X23905944Y-10457460D01*
X23905944Y-10457460D02*
X23886896Y-10466984D01*
X23886896Y-10466984D02*
X23867848Y-10466984D01*
X23867848Y-10466984D02*
X23848801Y-10457460D01*
X23848801Y-10457460D02*
X23839277Y-10447936D01*
X23839277Y-10447936D02*
X23829753Y-10428889D01*
X23829753Y-10428889D02*
X23820229Y-10390793D01*
X23820229Y-10390793D02*
X23820229Y-10343174D01*
X23820229Y-10343174D02*
X23829753Y-10305079D01*
X23829753Y-10305079D02*
X23839277Y-10286031D01*
X23839277Y-10286031D02*
X23848801Y-10276508D01*
X23848801Y-10276508D02*
X23867848Y-10266984D01*
X24048801Y-10352698D02*
X24029753Y-10343174D01*
X24029753Y-10343174D02*
X24020229Y-10333650D01*
X24020229Y-10333650D02*
X24010706Y-10314603D01*
X24010706Y-10314603D02*
X24010706Y-10305079D01*
X24010706Y-10305079D02*
X24020229Y-10286031D01*
X24020229Y-10286031D02*
X24029753Y-10276508D01*
X24029753Y-10276508D02*
X24048801Y-10266984D01*
X24048801Y-10266984D02*
X24086896Y-10266984D01*
X24086896Y-10266984D02*
X24105944Y-10276508D01*
X24105944Y-10276508D02*
X24115467Y-10286031D01*
X24115467Y-10286031D02*
X24124991Y-10305079D01*
X24124991Y-10305079D02*
X24124991Y-10314603D01*
X24124991Y-10314603D02*
X24115467Y-10333650D01*
X24115467Y-10333650D02*
X24105944Y-10343174D01*
X24105944Y-10343174D02*
X24086896Y-10352698D01*
X24086896Y-10352698D02*
X24048801Y-10352698D01*
X24048801Y-10352698D02*
X24029753Y-10362222D01*
X24029753Y-10362222D02*
X24020229Y-10371746D01*
X24020229Y-10371746D02*
X24010706Y-10390793D01*
X24010706Y-10390793D02*
X24010706Y-10428889D01*
X24010706Y-10428889D02*
X24020229Y-10447936D01*
X24020229Y-10447936D02*
X24029753Y-10457460D01*
X24029753Y-10457460D02*
X24048801Y-10466984D01*
X24048801Y-10466984D02*
X24086896Y-10466984D01*
X24086896Y-10466984D02*
X24105944Y-10457460D01*
X24105944Y-10457460D02*
X24115467Y-10447936D01*
X24115467Y-10447936D02*
X24124991Y-10428889D01*
X24124991Y-10428889D02*
X24124991Y-10390793D01*
X24124991Y-10390793D02*
X24115467Y-10371746D01*
X24115467Y-10371746D02*
X24105944Y-10362222D01*
X24105944Y-10362222D02*
X24086896Y-10352698D01*
X24296420Y-10266984D02*
X24258325Y-10266984D01*
X24258325Y-10266984D02*
X24239277Y-10276508D01*
X24239277Y-10276508D02*
X24229753Y-10286031D01*
X24229753Y-10286031D02*
X24210706Y-10314603D01*
X24210706Y-10314603D02*
X24201182Y-10352698D01*
X24201182Y-10352698D02*
X24201182Y-10428889D01*
X24201182Y-10428889D02*
X24210706Y-10447936D01*
X24210706Y-10447936D02*
X24220229Y-10457460D01*
X24220229Y-10457460D02*
X24239277Y-10466984D01*
X24239277Y-10466984D02*
X24277372Y-10466984D01*
X24277372Y-10466984D02*
X24296420Y-10457460D01*
X24296420Y-10457460D02*
X24305944Y-10447936D01*
X24305944Y-10447936D02*
X24315467Y-10428889D01*
X24315467Y-10428889D02*
X24315467Y-10381270D01*
X24315467Y-10381270D02*
X24305944Y-10362222D01*
X24305944Y-10362222D02*
X24296420Y-10352698D01*
X24296420Y-10352698D02*
X24277372Y-10343174D01*
X24277372Y-10343174D02*
X24239277Y-10343174D01*
X24239277Y-10343174D02*
X24220229Y-10352698D01*
X24220229Y-10352698D02*
X24210706Y-10362222D01*
X24210706Y-10362222D02*
X24201182Y-10381270D01*
X24486896Y-10266984D02*
X24448801Y-10266984D01*
X24448801Y-10266984D02*
X24429753Y-10276508D01*
X24429753Y-10276508D02*
X24420229Y-10286031D01*
X24420229Y-10286031D02*
X24401182Y-10314603D01*
X24401182Y-10314603D02*
X24391658Y-10352698D01*
X24391658Y-10352698D02*
X24391658Y-10428889D01*
X24391658Y-10428889D02*
X24401182Y-10447936D01*
X24401182Y-10447936D02*
X24410706Y-10457460D01*
X24410706Y-10457460D02*
X24429753Y-10466984D01*
X24429753Y-10466984D02*
X24467848Y-10466984D01*
X24467848Y-10466984D02*
X24486896Y-10457460D01*
X24486896Y-10457460D02*
X24496420Y-10447936D01*
X24496420Y-10447936D02*
X24505944Y-10428889D01*
X24505944Y-10428889D02*
X24505944Y-10381270D01*
X24505944Y-10381270D02*
X24496420Y-10362222D01*
X24496420Y-10362222D02*
X24486896Y-10352698D01*
X24486896Y-10352698D02*
X24467848Y-10343174D01*
X24467848Y-10343174D02*
X24429753Y-10343174D01*
X24429753Y-10343174D02*
X24410706Y-10352698D01*
X24410706Y-10352698D02*
X24401182Y-10362222D01*
X24401182Y-10362222D02*
X24391658Y-10381270D01*
X24582134Y-10266984D02*
X24582134Y-10305079D01*
X24658325Y-10266984D02*
X24658325Y-10305079D01*
X24953563Y-10543174D02*
X24944039Y-10533650D01*
X24944039Y-10533650D02*
X24924991Y-10505079D01*
X24924991Y-10505079D02*
X24915468Y-10486031D01*
X24915468Y-10486031D02*
X24905944Y-10457460D01*
X24905944Y-10457460D02*
X24896420Y-10409841D01*
X24896420Y-10409841D02*
X24896420Y-10371746D01*
X24896420Y-10371746D02*
X24905944Y-10324127D01*
X24905944Y-10324127D02*
X24915468Y-10295555D01*
X24915468Y-10295555D02*
X24924991Y-10276508D01*
X24924991Y-10276508D02*
X24944039Y-10247936D01*
X24944039Y-10247936D02*
X24953563Y-10238412D01*
X25020229Y-10286031D02*
X25029753Y-10276508D01*
X25029753Y-10276508D02*
X25048801Y-10266984D01*
X25048801Y-10266984D02*
X25096420Y-10266984D01*
X25096420Y-10266984D02*
X25115468Y-10276508D01*
X25115468Y-10276508D02*
X25124991Y-10286031D01*
X25124991Y-10286031D02*
X25134515Y-10305079D01*
X25134515Y-10305079D02*
X25134515Y-10324127D01*
X25134515Y-10324127D02*
X25124991Y-10352698D01*
X25124991Y-10352698D02*
X25010706Y-10466984D01*
X25010706Y-10466984D02*
X25134515Y-10466984D01*
X25372610Y-10466984D02*
X25372610Y-10266984D01*
X25458325Y-10466984D02*
X25458325Y-10362222D01*
X25458325Y-10362222D02*
X25448801Y-10343174D01*
X25448801Y-10343174D02*
X25429753Y-10333650D01*
X25429753Y-10333650D02*
X25401182Y-10333650D01*
X25401182Y-10333650D02*
X25382134Y-10343174D01*
X25382134Y-10343174D02*
X25372610Y-10352698D01*
X25582134Y-10466984D02*
X25563087Y-10457460D01*
X25563087Y-10457460D02*
X25553563Y-10447936D01*
X25553563Y-10447936D02*
X25544039Y-10428889D01*
X25544039Y-10428889D02*
X25544039Y-10371746D01*
X25544039Y-10371746D02*
X25553563Y-10352698D01*
X25553563Y-10352698D02*
X25563087Y-10343174D01*
X25563087Y-10343174D02*
X25582134Y-10333650D01*
X25582134Y-10333650D02*
X25610706Y-10333650D01*
X25610706Y-10333650D02*
X25629753Y-10343174D01*
X25629753Y-10343174D02*
X25639277Y-10352698D01*
X25639277Y-10352698D02*
X25648801Y-10371746D01*
X25648801Y-10371746D02*
X25648801Y-10428889D01*
X25648801Y-10428889D02*
X25639277Y-10447936D01*
X25639277Y-10447936D02*
X25629753Y-10457460D01*
X25629753Y-10457460D02*
X25610706Y-10466984D01*
X25610706Y-10466984D02*
X25582134Y-10466984D01*
X25763087Y-10466984D02*
X25744039Y-10457460D01*
X25744039Y-10457460D02*
X25734515Y-10438412D01*
X25734515Y-10438412D02*
X25734515Y-10266984D01*
X25915468Y-10457460D02*
X25896420Y-10466984D01*
X25896420Y-10466984D02*
X25858325Y-10466984D01*
X25858325Y-10466984D02*
X25839277Y-10457460D01*
X25839277Y-10457460D02*
X25829753Y-10438412D01*
X25829753Y-10438412D02*
X25829753Y-10362222D01*
X25829753Y-10362222D02*
X25839277Y-10343174D01*
X25839277Y-10343174D02*
X25858325Y-10333650D01*
X25858325Y-10333650D02*
X25896420Y-10333650D01*
X25896420Y-10333650D02*
X25915468Y-10343174D01*
X25915468Y-10343174D02*
X25924991Y-10362222D01*
X25924991Y-10362222D02*
X25924991Y-10381270D01*
X25924991Y-10381270D02*
X25829753Y-10400317D01*
X26001182Y-10457460D02*
X26020230Y-10466984D01*
X26020230Y-10466984D02*
X26058325Y-10466984D01*
X26058325Y-10466984D02*
X26077372Y-10457460D01*
X26077372Y-10457460D02*
X26086896Y-10438412D01*
X26086896Y-10438412D02*
X26086896Y-10428889D01*
X26086896Y-10428889D02*
X26077372Y-10409841D01*
X26077372Y-10409841D02*
X26058325Y-10400317D01*
X26058325Y-10400317D02*
X26029753Y-10400317D01*
X26029753Y-10400317D02*
X26010706Y-10390793D01*
X26010706Y-10390793D02*
X26001182Y-10371746D01*
X26001182Y-10371746D02*
X26001182Y-10362222D01*
X26001182Y-10362222D02*
X26010706Y-10343174D01*
X26010706Y-10343174D02*
X26029753Y-10333650D01*
X26029753Y-10333650D02*
X26058325Y-10333650D01*
X26058325Y-10333650D02*
X26077372Y-10343174D01*
X26153563Y-10543174D02*
X26163087Y-10533650D01*
X26163087Y-10533650D02*
X26182134Y-10505079D01*
X26182134Y-10505079D02*
X26191658Y-10486031D01*
X26191658Y-10486031D02*
X26201182Y-10457460D01*
X26201182Y-10457460D02*
X26210706Y-10409841D01*
X26210706Y-10409841D02*
X26210706Y-10371746D01*
X26210706Y-10371746D02*
X26201182Y-10324127D01*
X26201182Y-10324127D02*
X26191658Y-10295555D01*
X26191658Y-10295555D02*
X26182134Y-10276508D01*
X26182134Y-10276508D02*
X26163087Y-10247936D01*
X26163087Y-10247936D02*
X26153563Y-10238412D01*
D12*
X21368981Y-10718481D02*
X21368981Y-10672519D01*
X21323019Y-10672519D01*
X21323019Y-10718481D01*
X21368981Y-10718481D01*
D11*
X21677372Y-10586984D02*
X21696420Y-10586984D01*
X21696420Y-10586984D02*
X21715467Y-10596508D01*
X21715467Y-10596508D02*
X21724991Y-10606031D01*
X21724991Y-10606031D02*
X21734515Y-10625079D01*
X21734515Y-10625079D02*
X21744039Y-10663174D01*
X21744039Y-10663174D02*
X21744039Y-10710793D01*
X21744039Y-10710793D02*
X21734515Y-10748889D01*
X21734515Y-10748889D02*
X21724991Y-10767936D01*
X21724991Y-10767936D02*
X21715467Y-10777460D01*
X21715467Y-10777460D02*
X21696420Y-10786984D01*
X21696420Y-10786984D02*
X21677372Y-10786984D01*
X21677372Y-10786984D02*
X21658324Y-10777460D01*
X21658324Y-10777460D02*
X21648801Y-10767936D01*
X21648801Y-10767936D02*
X21639277Y-10748889D01*
X21639277Y-10748889D02*
X21629753Y-10710793D01*
X21629753Y-10710793D02*
X21629753Y-10663174D01*
X21629753Y-10663174D02*
X21639277Y-10625079D01*
X21639277Y-10625079D02*
X21648801Y-10606031D01*
X21648801Y-10606031D02*
X21658324Y-10596508D01*
X21658324Y-10596508D02*
X21677372Y-10586984D01*
X21829753Y-10767936D02*
X21839277Y-10777460D01*
X21839277Y-10777460D02*
X21829753Y-10786984D01*
X21829753Y-10786984D02*
X21820229Y-10777460D01*
X21820229Y-10777460D02*
X21829753Y-10767936D01*
X21829753Y-10767936D02*
X21829753Y-10786984D01*
X22010705Y-10586984D02*
X21972610Y-10586984D01*
X21972610Y-10586984D02*
X21953563Y-10596508D01*
X21953563Y-10596508D02*
X21944039Y-10606031D01*
X21944039Y-10606031D02*
X21924991Y-10634603D01*
X21924991Y-10634603D02*
X21915467Y-10672698D01*
X21915467Y-10672698D02*
X21915467Y-10748889D01*
X21915467Y-10748889D02*
X21924991Y-10767936D01*
X21924991Y-10767936D02*
X21934515Y-10777460D01*
X21934515Y-10777460D02*
X21953563Y-10786984D01*
X21953563Y-10786984D02*
X21991658Y-10786984D01*
X21991658Y-10786984D02*
X22010705Y-10777460D01*
X22010705Y-10777460D02*
X22020229Y-10767936D01*
X22020229Y-10767936D02*
X22029753Y-10748889D01*
X22029753Y-10748889D02*
X22029753Y-10701270D01*
X22029753Y-10701270D02*
X22020229Y-10682222D01*
X22020229Y-10682222D02*
X22010705Y-10672698D01*
X22010705Y-10672698D02*
X21991658Y-10663174D01*
X21991658Y-10663174D02*
X21953563Y-10663174D01*
X21953563Y-10663174D02*
X21934515Y-10672698D01*
X21934515Y-10672698D02*
X21924991Y-10682222D01*
X21924991Y-10682222D02*
X21915467Y-10701270D01*
X22210705Y-10586984D02*
X22115467Y-10586984D01*
X22115467Y-10586984D02*
X22105944Y-10682222D01*
X22105944Y-10682222D02*
X22115467Y-10672698D01*
X22115467Y-10672698D02*
X22134515Y-10663174D01*
X22134515Y-10663174D02*
X22182134Y-10663174D01*
X22182134Y-10663174D02*
X22201182Y-10672698D01*
X22201182Y-10672698D02*
X22210705Y-10682222D01*
X22210705Y-10682222D02*
X22220229Y-10701270D01*
X22220229Y-10701270D02*
X22220229Y-10748889D01*
X22220229Y-10748889D02*
X22210705Y-10767936D01*
X22210705Y-10767936D02*
X22201182Y-10777460D01*
X22201182Y-10777460D02*
X22182134Y-10786984D01*
X22182134Y-10786984D02*
X22134515Y-10786984D01*
X22134515Y-10786984D02*
X22115467Y-10777460D01*
X22115467Y-10777460D02*
X22105944Y-10767936D01*
X22344039Y-10586984D02*
X22363086Y-10586984D01*
X22363086Y-10586984D02*
X22382134Y-10596508D01*
X22382134Y-10596508D02*
X22391658Y-10606031D01*
X22391658Y-10606031D02*
X22401182Y-10625079D01*
X22401182Y-10625079D02*
X22410705Y-10663174D01*
X22410705Y-10663174D02*
X22410705Y-10710793D01*
X22410705Y-10710793D02*
X22401182Y-10748889D01*
X22401182Y-10748889D02*
X22391658Y-10767936D01*
X22391658Y-10767936D02*
X22382134Y-10777460D01*
X22382134Y-10777460D02*
X22363086Y-10786984D01*
X22363086Y-10786984D02*
X22344039Y-10786984D01*
X22344039Y-10786984D02*
X22324991Y-10777460D01*
X22324991Y-10777460D02*
X22315467Y-10767936D01*
X22315467Y-10767936D02*
X22305944Y-10748889D01*
X22305944Y-10748889D02*
X22296420Y-10710793D01*
X22296420Y-10710793D02*
X22296420Y-10663174D01*
X22296420Y-10663174D02*
X22305944Y-10625079D01*
X22305944Y-10625079D02*
X22315467Y-10606031D01*
X22315467Y-10606031D02*
X22324991Y-10596508D01*
X22324991Y-10596508D02*
X22344039Y-10586984D01*
X22496420Y-10786984D02*
X22496420Y-10653650D01*
X22496420Y-10672698D02*
X22505943Y-10663174D01*
X22505943Y-10663174D02*
X22524991Y-10653650D01*
X22524991Y-10653650D02*
X22553563Y-10653650D01*
X22553563Y-10653650D02*
X22572610Y-10663174D01*
X22572610Y-10663174D02*
X22582134Y-10682222D01*
X22582134Y-10682222D02*
X22582134Y-10786984D01*
X22582134Y-10682222D02*
X22591658Y-10663174D01*
X22591658Y-10663174D02*
X22610705Y-10653650D01*
X22610705Y-10653650D02*
X22639277Y-10653650D01*
X22639277Y-10653650D02*
X22658324Y-10663174D01*
X22658324Y-10663174D02*
X22667848Y-10682222D01*
X22667848Y-10682222D02*
X22667848Y-10786984D01*
X22763086Y-10786984D02*
X22763086Y-10653650D01*
X22763086Y-10672698D02*
X22772610Y-10663174D01*
X22772610Y-10663174D02*
X22791658Y-10653650D01*
X22791658Y-10653650D02*
X22820229Y-10653650D01*
X22820229Y-10653650D02*
X22839277Y-10663174D01*
X22839277Y-10663174D02*
X22848801Y-10682222D01*
X22848801Y-10682222D02*
X22848801Y-10786984D01*
X22848801Y-10682222D02*
X22858324Y-10663174D01*
X22858324Y-10663174D02*
X22877372Y-10653650D01*
X22877372Y-10653650D02*
X22905943Y-10653650D01*
X22905943Y-10653650D02*
X22924991Y-10663174D01*
X22924991Y-10663174D02*
X22934515Y-10682222D01*
X22934515Y-10682222D02*
X22934515Y-10786984D01*
X23324991Y-10577460D02*
X23153563Y-10834603D01*
X23582134Y-10586984D02*
X23601182Y-10586984D01*
X23601182Y-10586984D02*
X23620229Y-10596508D01*
X23620229Y-10596508D02*
X23629753Y-10606031D01*
X23629753Y-10606031D02*
X23639277Y-10625079D01*
X23639277Y-10625079D02*
X23648801Y-10663174D01*
X23648801Y-10663174D02*
X23648801Y-10710793D01*
X23648801Y-10710793D02*
X23639277Y-10748889D01*
X23639277Y-10748889D02*
X23629753Y-10767936D01*
X23629753Y-10767936D02*
X23620229Y-10777460D01*
X23620229Y-10777460D02*
X23601182Y-10786984D01*
X23601182Y-10786984D02*
X23582134Y-10786984D01*
X23582134Y-10786984D02*
X23563086Y-10777460D01*
X23563086Y-10777460D02*
X23553563Y-10767936D01*
X23553563Y-10767936D02*
X23544039Y-10748889D01*
X23544039Y-10748889D02*
X23534515Y-10710793D01*
X23534515Y-10710793D02*
X23534515Y-10663174D01*
X23534515Y-10663174D02*
X23544039Y-10625079D01*
X23544039Y-10625079D02*
X23553563Y-10606031D01*
X23553563Y-10606031D02*
X23563086Y-10596508D01*
X23563086Y-10596508D02*
X23582134Y-10586984D01*
X23734515Y-10767936D02*
X23744039Y-10777460D01*
X23744039Y-10777460D02*
X23734515Y-10786984D01*
X23734515Y-10786984D02*
X23724991Y-10777460D01*
X23724991Y-10777460D02*
X23734515Y-10767936D01*
X23734515Y-10767936D02*
X23734515Y-10786984D01*
X23867848Y-10586984D02*
X23886896Y-10586984D01*
X23886896Y-10586984D02*
X23905944Y-10596508D01*
X23905944Y-10596508D02*
X23915467Y-10606031D01*
X23915467Y-10606031D02*
X23924991Y-10625079D01*
X23924991Y-10625079D02*
X23934515Y-10663174D01*
X23934515Y-10663174D02*
X23934515Y-10710793D01*
X23934515Y-10710793D02*
X23924991Y-10748889D01*
X23924991Y-10748889D02*
X23915467Y-10767936D01*
X23915467Y-10767936D02*
X23905944Y-10777460D01*
X23905944Y-10777460D02*
X23886896Y-10786984D01*
X23886896Y-10786984D02*
X23867848Y-10786984D01*
X23867848Y-10786984D02*
X23848801Y-10777460D01*
X23848801Y-10777460D02*
X23839277Y-10767936D01*
X23839277Y-10767936D02*
X23829753Y-10748889D01*
X23829753Y-10748889D02*
X23820229Y-10710793D01*
X23820229Y-10710793D02*
X23820229Y-10663174D01*
X23820229Y-10663174D02*
X23829753Y-10625079D01*
X23829753Y-10625079D02*
X23839277Y-10606031D01*
X23839277Y-10606031D02*
X23848801Y-10596508D01*
X23848801Y-10596508D02*
X23867848Y-10586984D01*
X24010706Y-10606031D02*
X24020229Y-10596508D01*
X24020229Y-10596508D02*
X24039277Y-10586984D01*
X24039277Y-10586984D02*
X24086896Y-10586984D01*
X24086896Y-10586984D02*
X24105944Y-10596508D01*
X24105944Y-10596508D02*
X24115467Y-10606031D01*
X24115467Y-10606031D02*
X24124991Y-10625079D01*
X24124991Y-10625079D02*
X24124991Y-10644127D01*
X24124991Y-10644127D02*
X24115467Y-10672698D01*
X24115467Y-10672698D02*
X24001182Y-10786984D01*
X24001182Y-10786984D02*
X24124991Y-10786984D01*
X24305944Y-10586984D02*
X24210706Y-10586984D01*
X24210706Y-10586984D02*
X24201182Y-10682222D01*
X24201182Y-10682222D02*
X24210706Y-10672698D01*
X24210706Y-10672698D02*
X24229753Y-10663174D01*
X24229753Y-10663174D02*
X24277372Y-10663174D01*
X24277372Y-10663174D02*
X24296420Y-10672698D01*
X24296420Y-10672698D02*
X24305944Y-10682222D01*
X24305944Y-10682222D02*
X24315467Y-10701270D01*
X24315467Y-10701270D02*
X24315467Y-10748889D01*
X24315467Y-10748889D02*
X24305944Y-10767936D01*
X24305944Y-10767936D02*
X24296420Y-10777460D01*
X24296420Y-10777460D02*
X24277372Y-10786984D01*
X24277372Y-10786984D02*
X24229753Y-10786984D01*
X24229753Y-10786984D02*
X24210706Y-10777460D01*
X24210706Y-10777460D02*
X24201182Y-10767936D01*
X24486896Y-10586984D02*
X24448801Y-10586984D01*
X24448801Y-10586984D02*
X24429753Y-10596508D01*
X24429753Y-10596508D02*
X24420229Y-10606031D01*
X24420229Y-10606031D02*
X24401182Y-10634603D01*
X24401182Y-10634603D02*
X24391658Y-10672698D01*
X24391658Y-10672698D02*
X24391658Y-10748889D01*
X24391658Y-10748889D02*
X24401182Y-10767936D01*
X24401182Y-10767936D02*
X24410706Y-10777460D01*
X24410706Y-10777460D02*
X24429753Y-10786984D01*
X24429753Y-10786984D02*
X24467848Y-10786984D01*
X24467848Y-10786984D02*
X24486896Y-10777460D01*
X24486896Y-10777460D02*
X24496420Y-10767936D01*
X24496420Y-10767936D02*
X24505944Y-10748889D01*
X24505944Y-10748889D02*
X24505944Y-10701270D01*
X24505944Y-10701270D02*
X24496420Y-10682222D01*
X24496420Y-10682222D02*
X24486896Y-10672698D01*
X24486896Y-10672698D02*
X24467848Y-10663174D01*
X24467848Y-10663174D02*
X24429753Y-10663174D01*
X24429753Y-10663174D02*
X24410706Y-10672698D01*
X24410706Y-10672698D02*
X24401182Y-10682222D01*
X24401182Y-10682222D02*
X24391658Y-10701270D01*
X24582134Y-10586984D02*
X24582134Y-10625079D01*
X24658325Y-10586984D02*
X24658325Y-10625079D01*
X24953563Y-10863174D02*
X24944039Y-10853650D01*
X24944039Y-10853650D02*
X24924991Y-10825079D01*
X24924991Y-10825079D02*
X24915468Y-10806031D01*
X24915468Y-10806031D02*
X24905944Y-10777460D01*
X24905944Y-10777460D02*
X24896420Y-10729841D01*
X24896420Y-10729841D02*
X24896420Y-10691746D01*
X24896420Y-10691746D02*
X24905944Y-10644127D01*
X24905944Y-10644127D02*
X24915468Y-10615555D01*
X24915468Y-10615555D02*
X24924991Y-10596508D01*
X24924991Y-10596508D02*
X24944039Y-10567936D01*
X24944039Y-10567936D02*
X24953563Y-10558412D01*
X25020229Y-10606031D02*
X25029753Y-10596508D01*
X25029753Y-10596508D02*
X25048801Y-10586984D01*
X25048801Y-10586984D02*
X25096420Y-10586984D01*
X25096420Y-10586984D02*
X25115468Y-10596508D01*
X25115468Y-10596508D02*
X25124991Y-10606031D01*
X25124991Y-10606031D02*
X25134515Y-10625079D01*
X25134515Y-10625079D02*
X25134515Y-10644127D01*
X25134515Y-10644127D02*
X25124991Y-10672698D01*
X25124991Y-10672698D02*
X25010706Y-10786984D01*
X25010706Y-10786984D02*
X25134515Y-10786984D01*
X25372610Y-10786984D02*
X25372610Y-10586984D01*
X25458325Y-10786984D02*
X25458325Y-10682222D01*
X25458325Y-10682222D02*
X25448801Y-10663174D01*
X25448801Y-10663174D02*
X25429753Y-10653650D01*
X25429753Y-10653650D02*
X25401182Y-10653650D01*
X25401182Y-10653650D02*
X25382134Y-10663174D01*
X25382134Y-10663174D02*
X25372610Y-10672698D01*
X25582134Y-10786984D02*
X25563087Y-10777460D01*
X25563087Y-10777460D02*
X25553563Y-10767936D01*
X25553563Y-10767936D02*
X25544039Y-10748889D01*
X25544039Y-10748889D02*
X25544039Y-10691746D01*
X25544039Y-10691746D02*
X25553563Y-10672698D01*
X25553563Y-10672698D02*
X25563087Y-10663174D01*
X25563087Y-10663174D02*
X25582134Y-10653650D01*
X25582134Y-10653650D02*
X25610706Y-10653650D01*
X25610706Y-10653650D02*
X25629753Y-10663174D01*
X25629753Y-10663174D02*
X25639277Y-10672698D01*
X25639277Y-10672698D02*
X25648801Y-10691746D01*
X25648801Y-10691746D02*
X25648801Y-10748889D01*
X25648801Y-10748889D02*
X25639277Y-10767936D01*
X25639277Y-10767936D02*
X25629753Y-10777460D01*
X25629753Y-10777460D02*
X25610706Y-10786984D01*
X25610706Y-10786984D02*
X25582134Y-10786984D01*
X25763087Y-10786984D02*
X25744039Y-10777460D01*
X25744039Y-10777460D02*
X25734515Y-10758412D01*
X25734515Y-10758412D02*
X25734515Y-10586984D01*
X25915468Y-10777460D02*
X25896420Y-10786984D01*
X25896420Y-10786984D02*
X25858325Y-10786984D01*
X25858325Y-10786984D02*
X25839277Y-10777460D01*
X25839277Y-10777460D02*
X25829753Y-10758412D01*
X25829753Y-10758412D02*
X25829753Y-10682222D01*
X25829753Y-10682222D02*
X25839277Y-10663174D01*
X25839277Y-10663174D02*
X25858325Y-10653650D01*
X25858325Y-10653650D02*
X25896420Y-10653650D01*
X25896420Y-10653650D02*
X25915468Y-10663174D01*
X25915468Y-10663174D02*
X25924991Y-10682222D01*
X25924991Y-10682222D02*
X25924991Y-10701270D01*
X25924991Y-10701270D02*
X25829753Y-10720317D01*
X26001182Y-10777460D02*
X26020230Y-10786984D01*
X26020230Y-10786984D02*
X26058325Y-10786984D01*
X26058325Y-10786984D02*
X26077372Y-10777460D01*
X26077372Y-10777460D02*
X26086896Y-10758412D01*
X26086896Y-10758412D02*
X26086896Y-10748889D01*
X26086896Y-10748889D02*
X26077372Y-10729841D01*
X26077372Y-10729841D02*
X26058325Y-10720317D01*
X26058325Y-10720317D02*
X26029753Y-10720317D01*
X26029753Y-10720317D02*
X26010706Y-10710793D01*
X26010706Y-10710793D02*
X26001182Y-10691746D01*
X26001182Y-10691746D02*
X26001182Y-10682222D01*
X26001182Y-10682222D02*
X26010706Y-10663174D01*
X26010706Y-10663174D02*
X26029753Y-10653650D01*
X26029753Y-10653650D02*
X26058325Y-10653650D01*
X26058325Y-10653650D02*
X26077372Y-10663174D01*
X26153563Y-10863174D02*
X26163087Y-10853650D01*
X26163087Y-10853650D02*
X26182134Y-10825079D01*
X26182134Y-10825079D02*
X26191658Y-10806031D01*
X26191658Y-10806031D02*
X26201182Y-10777460D01*
X26201182Y-10777460D02*
X26210706Y-10729841D01*
X26210706Y-10729841D02*
X26210706Y-10691746D01*
X26210706Y-10691746D02*
X26201182Y-10644127D01*
X26201182Y-10644127D02*
X26191658Y-10615555D01*
X26191658Y-10615555D02*
X26182134Y-10596508D01*
X26182134Y-10596508D02*
X26163087Y-10567936D01*
X26163087Y-10567936D02*
X26153563Y-10558412D01*
X26515468Y-10863174D02*
X26505944Y-10853650D01*
X26505944Y-10853650D02*
X26486896Y-10825079D01*
X26486896Y-10825079D02*
X26477372Y-10806031D01*
X26477372Y-10806031D02*
X26467849Y-10777460D01*
X26467849Y-10777460D02*
X26458325Y-10729841D01*
X26458325Y-10729841D02*
X26458325Y-10691746D01*
X26458325Y-10691746D02*
X26467849Y-10644127D01*
X26467849Y-10644127D02*
X26477372Y-10615555D01*
X26477372Y-10615555D02*
X26486896Y-10596508D01*
X26486896Y-10596508D02*
X26505944Y-10567936D01*
X26505944Y-10567936D02*
X26515468Y-10558412D01*
X26591658Y-10653650D02*
X26591658Y-10786984D01*
X26591658Y-10672698D02*
X26601182Y-10663174D01*
X26601182Y-10663174D02*
X26620230Y-10653650D01*
X26620230Y-10653650D02*
X26648801Y-10653650D01*
X26648801Y-10653650D02*
X26667849Y-10663174D01*
X26667849Y-10663174D02*
X26677372Y-10682222D01*
X26677372Y-10682222D02*
X26677372Y-10786984D01*
X26801182Y-10786984D02*
X26782134Y-10777460D01*
X26782134Y-10777460D02*
X26772611Y-10767936D01*
X26772611Y-10767936D02*
X26763087Y-10748889D01*
X26763087Y-10748889D02*
X26763087Y-10691746D01*
X26763087Y-10691746D02*
X26772611Y-10672698D01*
X26772611Y-10672698D02*
X26782134Y-10663174D01*
X26782134Y-10663174D02*
X26801182Y-10653650D01*
X26801182Y-10653650D02*
X26829753Y-10653650D01*
X26829753Y-10653650D02*
X26848801Y-10663174D01*
X26848801Y-10663174D02*
X26858325Y-10672698D01*
X26858325Y-10672698D02*
X26867849Y-10691746D01*
X26867849Y-10691746D02*
X26867849Y-10748889D01*
X26867849Y-10748889D02*
X26858325Y-10767936D01*
X26858325Y-10767936D02*
X26848801Y-10777460D01*
X26848801Y-10777460D02*
X26829753Y-10786984D01*
X26829753Y-10786984D02*
X26801182Y-10786984D01*
X26924992Y-10653650D02*
X27001182Y-10653650D01*
X26953563Y-10586984D02*
X26953563Y-10758412D01*
X26953563Y-10758412D02*
X26963087Y-10777460D01*
X26963087Y-10777460D02*
X26982134Y-10786984D01*
X26982134Y-10786984D02*
X27001182Y-10786984D01*
X27220230Y-10653650D02*
X27220230Y-10853650D01*
X27220230Y-10663174D02*
X27239277Y-10653650D01*
X27239277Y-10653650D02*
X27277373Y-10653650D01*
X27277373Y-10653650D02*
X27296420Y-10663174D01*
X27296420Y-10663174D02*
X27305944Y-10672698D01*
X27305944Y-10672698D02*
X27315468Y-10691746D01*
X27315468Y-10691746D02*
X27315468Y-10748889D01*
X27315468Y-10748889D02*
X27305944Y-10767936D01*
X27305944Y-10767936D02*
X27296420Y-10777460D01*
X27296420Y-10777460D02*
X27277373Y-10786984D01*
X27277373Y-10786984D02*
X27239277Y-10786984D01*
X27239277Y-10786984D02*
X27220230Y-10777460D01*
X27429753Y-10786984D02*
X27410706Y-10777460D01*
X27410706Y-10777460D02*
X27401182Y-10758412D01*
X27401182Y-10758412D02*
X27401182Y-10586984D01*
X27591658Y-10786984D02*
X27591658Y-10682222D01*
X27591658Y-10682222D02*
X27582134Y-10663174D01*
X27582134Y-10663174D02*
X27563087Y-10653650D01*
X27563087Y-10653650D02*
X27524992Y-10653650D01*
X27524992Y-10653650D02*
X27505944Y-10663174D01*
X27591658Y-10777460D02*
X27572611Y-10786984D01*
X27572611Y-10786984D02*
X27524992Y-10786984D01*
X27524992Y-10786984D02*
X27505944Y-10777460D01*
X27505944Y-10777460D02*
X27496420Y-10758412D01*
X27496420Y-10758412D02*
X27496420Y-10739365D01*
X27496420Y-10739365D02*
X27505944Y-10720317D01*
X27505944Y-10720317D02*
X27524992Y-10710793D01*
X27524992Y-10710793D02*
X27572611Y-10710793D01*
X27572611Y-10710793D02*
X27591658Y-10701270D01*
X27658325Y-10653650D02*
X27734515Y-10653650D01*
X27686896Y-10586984D02*
X27686896Y-10758412D01*
X27686896Y-10758412D02*
X27696420Y-10777460D01*
X27696420Y-10777460D02*
X27715468Y-10786984D01*
X27715468Y-10786984D02*
X27734515Y-10786984D01*
X27877373Y-10777460D02*
X27858325Y-10786984D01*
X27858325Y-10786984D02*
X27820230Y-10786984D01*
X27820230Y-10786984D02*
X27801182Y-10777460D01*
X27801182Y-10777460D02*
X27791658Y-10758412D01*
X27791658Y-10758412D02*
X27791658Y-10682222D01*
X27791658Y-10682222D02*
X27801182Y-10663174D01*
X27801182Y-10663174D02*
X27820230Y-10653650D01*
X27820230Y-10653650D02*
X27858325Y-10653650D01*
X27858325Y-10653650D02*
X27877373Y-10663174D01*
X27877373Y-10663174D02*
X27886896Y-10682222D01*
X27886896Y-10682222D02*
X27886896Y-10701270D01*
X27886896Y-10701270D02*
X27791658Y-10720317D01*
X28058325Y-10786984D02*
X28058325Y-10586984D01*
X28058325Y-10777460D02*
X28039277Y-10786984D01*
X28039277Y-10786984D02*
X28001182Y-10786984D01*
X28001182Y-10786984D02*
X27982134Y-10777460D01*
X27982134Y-10777460D02*
X27972611Y-10767936D01*
X27972611Y-10767936D02*
X27963087Y-10748889D01*
X27963087Y-10748889D02*
X27963087Y-10691746D01*
X27963087Y-10691746D02*
X27972611Y-10672698D01*
X27972611Y-10672698D02*
X27982134Y-10663174D01*
X27982134Y-10663174D02*
X28001182Y-10653650D01*
X28001182Y-10653650D02*
X28039277Y-10653650D01*
X28039277Y-10653650D02*
X28058325Y-10663174D01*
X28134515Y-10863174D02*
X28144039Y-10853650D01*
X28144039Y-10853650D02*
X28163087Y-10825079D01*
X28163087Y-10825079D02*
X28172611Y-10806031D01*
X28172611Y-10806031D02*
X28182134Y-10777460D01*
X28182134Y-10777460D02*
X28191658Y-10729841D01*
X28191658Y-10729841D02*
X28191658Y-10691746D01*
X28191658Y-10691746D02*
X28182134Y-10644127D01*
X28182134Y-10644127D02*
X28172611Y-10615555D01*
X28172611Y-10615555D02*
X28163087Y-10596508D01*
X28163087Y-10596508D02*
X28144039Y-10567936D01*
X28144039Y-10567936D02*
X28134515Y-10558412D01*
M02*
