%TF.GenerationSoftware,KiCad,Pcbnew,9.0.7*%
%TF.CreationDate,2026-09-03T01:12:00+05:45*%
%TF.ProjectId,Powerbank_Module,506f7765-7262-4616-9e6b-5f4d6f64756c,rev?*%
%TF.SameCoordinates,Original*%
%TF.FileFunction,Copper,L2,Bot*%
%TF.FilePolarity,Positive*%
%FSLAX46Y46*%
G04 Gerber Fmt 4.6, Leading zero omitted, Abs format (unit mm)*
G04 Created by KiCad (PCBNEW 9.0.7) date 2026-09-03 01:12:00*
%MOMM*%
%LPD*%
G01*
G04 APERTURE LIST*
%ADD10C,0.300000*%
%TA.AperFunction,NonConductor*%
%ADD11C,0.300000*%
%TD*%
%TA.AperFunction,ComponentPad*%
%ADD12C,2.600000*%
%TD*%
%TA.AperFunction,HeatsinkPad*%
%ADD13O,2.100000X1.000000*%
%TD*%
%TA.AperFunction,HeatsinkPad*%
%ADD14O,1.800000X1.000000*%
%TD*%
%TA.AperFunction,HeatsinkPad*%
%ADD15C,0.500000*%
%TD*%
%TA.AperFunction,HeatsinkPad*%
%ADD16R,1.900000X2.900000*%
%TD*%
G04 APERTURE END LIST*
D10*
D11*
X240745489Y-76170828D02*
X240745489Y-74670828D01*
X240102632Y-76170828D02*
X240102632Y-75385114D01*
X240102632Y-75385114D02*
X240174060Y-75242257D01*
X240174060Y-75242257D02*
X240316917Y-75170828D01*
X240316917Y-75170828D02*
X240531203Y-75170828D01*
X240531203Y-75170828D02*
X240674060Y-75242257D01*
X240674060Y-75242257D02*
X240745489Y-75313685D01*
X238745489Y-75170828D02*
X238745489Y-76170828D01*
X239388346Y-75170828D02*
X239388346Y-75956542D01*
X239388346Y-75956542D02*
X239316917Y-76099400D01*
X239316917Y-76099400D02*
X239174060Y-76170828D01*
X239174060Y-76170828D02*
X238959774Y-76170828D01*
X238959774Y-76170828D02*
X238816917Y-76099400D01*
X238816917Y-76099400D02*
X238745489Y-76027971D01*
X238031203Y-75170828D02*
X238031203Y-76170828D01*
X238031203Y-75313685D02*
X237959774Y-75242257D01*
X237959774Y-75242257D02*
X237816917Y-75170828D01*
X237816917Y-75170828D02*
X237602631Y-75170828D01*
X237602631Y-75170828D02*
X237459774Y-75242257D01*
X237459774Y-75242257D02*
X237388346Y-75385114D01*
X237388346Y-75385114D02*
X237388346Y-76170828D01*
X236102631Y-76099400D02*
X236245488Y-76170828D01*
X236245488Y-76170828D02*
X236531203Y-76170828D01*
X236531203Y-76170828D02*
X236674060Y-76099400D01*
X236674060Y-76099400D02*
X236745488Y-75956542D01*
X236745488Y-75956542D02*
X236745488Y-75385114D01*
X236745488Y-75385114D02*
X236674060Y-75242257D01*
X236674060Y-75242257D02*
X236531203Y-75170828D01*
X236531203Y-75170828D02*
X236245488Y-75170828D01*
X236245488Y-75170828D02*
X236102631Y-75242257D01*
X236102631Y-75242257D02*
X236031203Y-75385114D01*
X236031203Y-75385114D02*
X236031203Y-75527971D01*
X236031203Y-75527971D02*
X236745488Y-75670828D01*
X235745489Y-76313685D02*
X234602631Y-76313685D01*
X234388346Y-75170828D02*
X234102632Y-76170828D01*
X234102632Y-76170828D02*
X233816917Y-75456542D01*
X233816917Y-75456542D02*
X233531203Y-76170828D01*
X233531203Y-76170828D02*
X233245489Y-75170828D01*
X232031203Y-76170828D02*
X232031203Y-75385114D01*
X232031203Y-75385114D02*
X232102631Y-75242257D01*
X232102631Y-75242257D02*
X232245488Y-75170828D01*
X232245488Y-75170828D02*
X232531203Y-75170828D01*
X232531203Y-75170828D02*
X232674060Y-75242257D01*
X232031203Y-76099400D02*
X232174060Y-76170828D01*
X232174060Y-76170828D02*
X232531203Y-76170828D01*
X232531203Y-76170828D02*
X232674060Y-76099400D01*
X232674060Y-76099400D02*
X232745488Y-75956542D01*
X232745488Y-75956542D02*
X232745488Y-75813685D01*
X232745488Y-75813685D02*
X232674060Y-75670828D01*
X232674060Y-75670828D02*
X232531203Y-75599400D01*
X232531203Y-75599400D02*
X232174060Y-75599400D01*
X232174060Y-75599400D02*
X232031203Y-75527971D01*
X231102631Y-76170828D02*
X231245488Y-76099400D01*
X231245488Y-76099400D02*
X231316917Y-75956542D01*
X231316917Y-75956542D02*
X231316917Y-74670828D01*
X229888346Y-76170828D02*
X229888346Y-75385114D01*
X229888346Y-75385114D02*
X229959774Y-75242257D01*
X229959774Y-75242257D02*
X230102631Y-75170828D01*
X230102631Y-75170828D02*
X230388346Y-75170828D01*
X230388346Y-75170828D02*
X230531203Y-75242257D01*
X229888346Y-76099400D02*
X230031203Y-76170828D01*
X230031203Y-76170828D02*
X230388346Y-76170828D01*
X230388346Y-76170828D02*
X230531203Y-76099400D01*
X230531203Y-76099400D02*
X230602631Y-75956542D01*
X230602631Y-75956542D02*
X230602631Y-75813685D01*
X230602631Y-75813685D02*
X230531203Y-75670828D01*
X230531203Y-75670828D02*
X230388346Y-75599400D01*
X230388346Y-75599400D02*
X230031203Y-75599400D01*
X230031203Y-75599400D02*
X229888346Y-75527971D01*
X229531203Y-76313685D02*
X228388345Y-76313685D01*
X227459774Y-76099400D02*
X227602631Y-76170828D01*
X227602631Y-76170828D02*
X227888346Y-76170828D01*
X227888346Y-76170828D02*
X228031203Y-76099400D01*
X228031203Y-76099400D02*
X228102631Y-75956542D01*
X228102631Y-75956542D02*
X228102631Y-75385114D01*
X228102631Y-75385114D02*
X228031203Y-75242257D01*
X228031203Y-75242257D02*
X227888346Y-75170828D01*
X227888346Y-75170828D02*
X227602631Y-75170828D01*
X227602631Y-75170828D02*
X227459774Y-75242257D01*
X227459774Y-75242257D02*
X227388346Y-75385114D01*
X227388346Y-75385114D02*
X227388346Y-75527971D01*
X227388346Y-75527971D02*
X228102631Y-75670828D01*
X226745489Y-75170828D02*
X226745489Y-76170828D01*
X226745489Y-75313685D02*
X226674060Y-75242257D01*
X226674060Y-75242257D02*
X226531203Y-75170828D01*
X226531203Y-75170828D02*
X226316917Y-75170828D01*
X226316917Y-75170828D02*
X226174060Y-75242257D01*
X226174060Y-75242257D02*
X226102632Y-75385114D01*
X226102632Y-75385114D02*
X226102632Y-76170828D01*
X224745489Y-75170828D02*
X224745489Y-76385114D01*
X224745489Y-76385114D02*
X224816917Y-76527971D01*
X224816917Y-76527971D02*
X224888346Y-76599400D01*
X224888346Y-76599400D02*
X225031203Y-76670828D01*
X225031203Y-76670828D02*
X225245489Y-76670828D01*
X225245489Y-76670828D02*
X225388346Y-76599400D01*
X224745489Y-76099400D02*
X224888346Y-76170828D01*
X224888346Y-76170828D02*
X225174060Y-76170828D01*
X225174060Y-76170828D02*
X225316917Y-76099400D01*
X225316917Y-76099400D02*
X225388346Y-76027971D01*
X225388346Y-76027971D02*
X225459774Y-75885114D01*
X225459774Y-75885114D02*
X225459774Y-75456542D01*
X225459774Y-75456542D02*
X225388346Y-75313685D01*
X225388346Y-75313685D02*
X225316917Y-75242257D01*
X225316917Y-75242257D02*
X225174060Y-75170828D01*
X225174060Y-75170828D02*
X224888346Y-75170828D01*
X224888346Y-75170828D02*
X224745489Y-75242257D01*
X224031203Y-76170828D02*
X224031203Y-75170828D01*
X224031203Y-74670828D02*
X224102631Y-74742257D01*
X224102631Y-74742257D02*
X224031203Y-74813685D01*
X224031203Y-74813685D02*
X223959774Y-74742257D01*
X223959774Y-74742257D02*
X224031203Y-74670828D01*
X224031203Y-74670828D02*
X224031203Y-74813685D01*
X223316917Y-75170828D02*
X223316917Y-76170828D01*
X223316917Y-75313685D02*
X223245488Y-75242257D01*
X223245488Y-75242257D02*
X223102631Y-75170828D01*
X223102631Y-75170828D02*
X222888345Y-75170828D01*
X222888345Y-75170828D02*
X222745488Y-75242257D01*
X222745488Y-75242257D02*
X222674060Y-75385114D01*
X222674060Y-75385114D02*
X222674060Y-76170828D01*
X221388345Y-76099400D02*
X221531202Y-76170828D01*
X221531202Y-76170828D02*
X221816917Y-76170828D01*
X221816917Y-76170828D02*
X221959774Y-76099400D01*
X221959774Y-76099400D02*
X222031202Y-75956542D01*
X222031202Y-75956542D02*
X222031202Y-75385114D01*
X222031202Y-75385114D02*
X221959774Y-75242257D01*
X221959774Y-75242257D02*
X221816917Y-75170828D01*
X221816917Y-75170828D02*
X221531202Y-75170828D01*
X221531202Y-75170828D02*
X221388345Y-75242257D01*
X221388345Y-75242257D02*
X221316917Y-75385114D01*
X221316917Y-75385114D02*
X221316917Y-75527971D01*
X221316917Y-75527971D02*
X222031202Y-75670828D01*
X220102631Y-76099400D02*
X220245488Y-76170828D01*
X220245488Y-76170828D02*
X220531203Y-76170828D01*
X220531203Y-76170828D02*
X220674060Y-76099400D01*
X220674060Y-76099400D02*
X220745488Y-75956542D01*
X220745488Y-75956542D02*
X220745488Y-75385114D01*
X220745488Y-75385114D02*
X220674060Y-75242257D01*
X220674060Y-75242257D02*
X220531203Y-75170828D01*
X220531203Y-75170828D02*
X220245488Y-75170828D01*
X220245488Y-75170828D02*
X220102631Y-75242257D01*
X220102631Y-75242257D02*
X220031203Y-75385114D01*
X220031203Y-75385114D02*
X220031203Y-75527971D01*
X220031203Y-75527971D02*
X220745488Y-75670828D01*
X219388346Y-76170828D02*
X219388346Y-75170828D01*
X219388346Y-75456542D02*
X219316917Y-75313685D01*
X219316917Y-75313685D02*
X219245489Y-75242257D01*
X219245489Y-75242257D02*
X219102631Y-75170828D01*
X219102631Y-75170828D02*
X218959774Y-75170828D01*
D10*
D11*
X239366917Y-85326542D02*
X239438346Y-85255114D01*
X239438346Y-85255114D02*
X239581203Y-85183685D01*
X239581203Y-85183685D02*
X239724060Y-85183685D01*
X239724060Y-85183685D02*
X239866917Y-85255114D01*
X239866917Y-85255114D02*
X239938346Y-85326542D01*
X239938346Y-85326542D02*
X240009774Y-85469400D01*
X240009774Y-85469400D02*
X240009774Y-85612257D01*
X240009774Y-85612257D02*
X239938346Y-85755114D01*
X239938346Y-85755114D02*
X239866917Y-85826542D01*
X239866917Y-85826542D02*
X239724060Y-85897971D01*
X239724060Y-85897971D02*
X239581203Y-85897971D01*
X239581203Y-85897971D02*
X239438346Y-85826542D01*
X239438346Y-85826542D02*
X239366917Y-85755114D01*
X239366917Y-85183685D02*
X239366917Y-85755114D01*
X239366917Y-85755114D02*
X239295489Y-85826542D01*
X239295489Y-85826542D02*
X239224060Y-85826542D01*
X239224060Y-85826542D02*
X239081203Y-85755114D01*
X239081203Y-85755114D02*
X239009774Y-85612257D01*
X239009774Y-85612257D02*
X239009774Y-85255114D01*
X239009774Y-85255114D02*
X239152632Y-85040828D01*
X239152632Y-85040828D02*
X239366917Y-84897971D01*
X239366917Y-84897971D02*
X239652632Y-84826542D01*
X239652632Y-84826542D02*
X239938346Y-84897971D01*
X239938346Y-84897971D02*
X240152632Y-85040828D01*
X240152632Y-85040828D02*
X240295489Y-85255114D01*
X240295489Y-85255114D02*
X240366917Y-85540828D01*
X240366917Y-85540828D02*
X240295489Y-85826542D01*
X240295489Y-85826542D02*
X240152632Y-86040828D01*
X240152632Y-86040828D02*
X239938346Y-86183685D01*
X239938346Y-86183685D02*
X239652632Y-86255114D01*
X239652632Y-86255114D02*
X239366917Y-86183685D01*
X239366917Y-86183685D02*
X239152632Y-86040828D01*
X237795489Y-85969400D02*
X237938346Y-86040828D01*
X237938346Y-86040828D02*
X238224061Y-86040828D01*
X238224061Y-86040828D02*
X238366918Y-85969400D01*
X238366918Y-85969400D02*
X238438346Y-85826542D01*
X238438346Y-85826542D02*
X238438346Y-85255114D01*
X238438346Y-85255114D02*
X238366918Y-85112257D01*
X238366918Y-85112257D02*
X238224061Y-85040828D01*
X238224061Y-85040828D02*
X237938346Y-85040828D01*
X237938346Y-85040828D02*
X237795489Y-85112257D01*
X237795489Y-85112257D02*
X237724061Y-85255114D01*
X237724061Y-85255114D02*
X237724061Y-85397971D01*
X237724061Y-85397971D02*
X238438346Y-85540828D01*
X237081204Y-86040828D02*
X237081204Y-85040828D01*
X237081204Y-85183685D02*
X237009775Y-85112257D01*
X237009775Y-85112257D02*
X236866918Y-85040828D01*
X236866918Y-85040828D02*
X236652632Y-85040828D01*
X236652632Y-85040828D02*
X236509775Y-85112257D01*
X236509775Y-85112257D02*
X236438347Y-85255114D01*
X236438347Y-85255114D02*
X236438347Y-86040828D01*
X236438347Y-85255114D02*
X236366918Y-85112257D01*
X236366918Y-85112257D02*
X236224061Y-85040828D01*
X236224061Y-85040828D02*
X236009775Y-85040828D01*
X236009775Y-85040828D02*
X235866918Y-85112257D01*
X235866918Y-85112257D02*
X235795489Y-85255114D01*
X235795489Y-85255114D02*
X235795489Y-86040828D01*
X235081204Y-86040828D02*
X235081204Y-84540828D01*
X235081204Y-85112257D02*
X234938347Y-85040828D01*
X234938347Y-85040828D02*
X234652632Y-85040828D01*
X234652632Y-85040828D02*
X234509775Y-85112257D01*
X234509775Y-85112257D02*
X234438347Y-85183685D01*
X234438347Y-85183685D02*
X234366918Y-85326542D01*
X234366918Y-85326542D02*
X234366918Y-85755114D01*
X234366918Y-85755114D02*
X234438347Y-85897971D01*
X234438347Y-85897971D02*
X234509775Y-85969400D01*
X234509775Y-85969400D02*
X234652632Y-86040828D01*
X234652632Y-86040828D02*
X234938347Y-86040828D01*
X234938347Y-86040828D02*
X235081204Y-85969400D01*
X233152632Y-85969400D02*
X233295489Y-86040828D01*
X233295489Y-86040828D02*
X233581204Y-86040828D01*
X233581204Y-86040828D02*
X233724061Y-85969400D01*
X233724061Y-85969400D02*
X233795489Y-85826542D01*
X233795489Y-85826542D02*
X233795489Y-85255114D01*
X233795489Y-85255114D02*
X233724061Y-85112257D01*
X233724061Y-85112257D02*
X233581204Y-85040828D01*
X233581204Y-85040828D02*
X233295489Y-85040828D01*
X233295489Y-85040828D02*
X233152632Y-85112257D01*
X233152632Y-85112257D02*
X233081204Y-85255114D01*
X233081204Y-85255114D02*
X233081204Y-85397971D01*
X233081204Y-85397971D02*
X233795489Y-85540828D01*
X231795490Y-86040828D02*
X231795490Y-84540828D01*
X231795490Y-85969400D02*
X231938347Y-86040828D01*
X231938347Y-86040828D02*
X232224061Y-86040828D01*
X232224061Y-86040828D02*
X232366918Y-85969400D01*
X232366918Y-85969400D02*
X232438347Y-85897971D01*
X232438347Y-85897971D02*
X232509775Y-85755114D01*
X232509775Y-85755114D02*
X232509775Y-85326542D01*
X232509775Y-85326542D02*
X232438347Y-85183685D01*
X232438347Y-85183685D02*
X232366918Y-85112257D01*
X232366918Y-85112257D02*
X232224061Y-85040828D01*
X232224061Y-85040828D02*
X231938347Y-85040828D01*
X231938347Y-85040828D02*
X231795490Y-85112257D01*
X230438347Y-86040828D02*
X230438347Y-84540828D01*
X230438347Y-85969400D02*
X230581204Y-86040828D01*
X230581204Y-86040828D02*
X230866918Y-86040828D01*
X230866918Y-86040828D02*
X231009775Y-85969400D01*
X231009775Y-85969400D02*
X231081204Y-85897971D01*
X231081204Y-85897971D02*
X231152632Y-85755114D01*
X231152632Y-85755114D02*
X231152632Y-85326542D01*
X231152632Y-85326542D02*
X231081204Y-85183685D01*
X231081204Y-85183685D02*
X231009775Y-85112257D01*
X231009775Y-85112257D02*
X230866918Y-85040828D01*
X230866918Y-85040828D02*
X230581204Y-85040828D01*
X230581204Y-85040828D02*
X230438347Y-85112257D01*
X229152632Y-85969400D02*
X229295489Y-86040828D01*
X229295489Y-86040828D02*
X229581204Y-86040828D01*
X229581204Y-86040828D02*
X229724061Y-85969400D01*
X229724061Y-85969400D02*
X229795489Y-85826542D01*
X229795489Y-85826542D02*
X229795489Y-85255114D01*
X229795489Y-85255114D02*
X229724061Y-85112257D01*
X229724061Y-85112257D02*
X229581204Y-85040828D01*
X229581204Y-85040828D02*
X229295489Y-85040828D01*
X229295489Y-85040828D02*
X229152632Y-85112257D01*
X229152632Y-85112257D02*
X229081204Y-85255114D01*
X229081204Y-85255114D02*
X229081204Y-85397971D01*
X229081204Y-85397971D02*
X229795489Y-85540828D01*
X227795490Y-86040828D02*
X227795490Y-84540828D01*
X227795490Y-85969400D02*
X227938347Y-86040828D01*
X227938347Y-86040828D02*
X228224061Y-86040828D01*
X228224061Y-86040828D02*
X228366918Y-85969400D01*
X228366918Y-85969400D02*
X228438347Y-85897971D01*
X228438347Y-85897971D02*
X228509775Y-85755114D01*
X228509775Y-85755114D02*
X228509775Y-85326542D01*
X228509775Y-85326542D02*
X228438347Y-85183685D01*
X228438347Y-85183685D02*
X228366918Y-85112257D01*
X228366918Y-85112257D02*
X228224061Y-85040828D01*
X228224061Y-85040828D02*
X227938347Y-85040828D01*
X227938347Y-85040828D02*
X227795490Y-85112257D01*
X227438347Y-86183685D02*
X226295489Y-86183685D01*
X225938347Y-85040828D02*
X225938347Y-86326542D01*
X225938347Y-86326542D02*
X226009775Y-86469400D01*
X226009775Y-86469400D02*
X226152632Y-86540828D01*
X226152632Y-86540828D02*
X226224061Y-86540828D01*
X225938347Y-84540828D02*
X226009775Y-84612257D01*
X226009775Y-84612257D02*
X225938347Y-84683685D01*
X225938347Y-84683685D02*
X225866918Y-84612257D01*
X225866918Y-84612257D02*
X225938347Y-84540828D01*
X225938347Y-84540828D02*
X225938347Y-84683685D01*
X225009775Y-86040828D02*
X225152632Y-85969400D01*
X225152632Y-85969400D02*
X225224061Y-85897971D01*
X225224061Y-85897971D02*
X225295489Y-85755114D01*
X225295489Y-85755114D02*
X225295489Y-85326542D01*
X225295489Y-85326542D02*
X225224061Y-85183685D01*
X225224061Y-85183685D02*
X225152632Y-85112257D01*
X225152632Y-85112257D02*
X225009775Y-85040828D01*
X225009775Y-85040828D02*
X224795489Y-85040828D01*
X224795489Y-85040828D02*
X224652632Y-85112257D01*
X224652632Y-85112257D02*
X224581204Y-85183685D01*
X224581204Y-85183685D02*
X224509775Y-85326542D01*
X224509775Y-85326542D02*
X224509775Y-85755114D01*
X224509775Y-85755114D02*
X224581204Y-85897971D01*
X224581204Y-85897971D02*
X224652632Y-85969400D01*
X224652632Y-85969400D02*
X224795489Y-86040828D01*
X224795489Y-86040828D02*
X225009775Y-86040828D01*
X223224061Y-85040828D02*
X223224061Y-86040828D01*
X223866918Y-85040828D02*
X223866918Y-85826542D01*
X223866918Y-85826542D02*
X223795489Y-85969400D01*
X223795489Y-85969400D02*
X223652632Y-86040828D01*
X223652632Y-86040828D02*
X223438346Y-86040828D01*
X223438346Y-86040828D02*
X223295489Y-85969400D01*
X223295489Y-85969400D02*
X223224061Y-85897971D01*
X222509775Y-86040828D02*
X222509775Y-85040828D01*
X222509775Y-85326542D02*
X222438346Y-85183685D01*
X222438346Y-85183685D02*
X222366918Y-85112257D01*
X222366918Y-85112257D02*
X222224060Y-85040828D01*
X222224060Y-85040828D02*
X222081203Y-85040828D01*
X221581204Y-85040828D02*
X221581204Y-86040828D01*
X221581204Y-85183685D02*
X221509775Y-85112257D01*
X221509775Y-85112257D02*
X221366918Y-85040828D01*
X221366918Y-85040828D02*
X221152632Y-85040828D01*
X221152632Y-85040828D02*
X221009775Y-85112257D01*
X221009775Y-85112257D02*
X220938347Y-85255114D01*
X220938347Y-85255114D02*
X220938347Y-86040828D01*
X219652632Y-85969400D02*
X219795489Y-86040828D01*
X219795489Y-86040828D02*
X220081204Y-86040828D01*
X220081204Y-86040828D02*
X220224061Y-85969400D01*
X220224061Y-85969400D02*
X220295489Y-85826542D01*
X220295489Y-85826542D02*
X220295489Y-85255114D01*
X220295489Y-85255114D02*
X220224061Y-85112257D01*
X220224061Y-85112257D02*
X220081204Y-85040828D01*
X220081204Y-85040828D02*
X219795489Y-85040828D01*
X219795489Y-85040828D02*
X219652632Y-85112257D01*
X219652632Y-85112257D02*
X219581204Y-85255114D01*
X219581204Y-85255114D02*
X219581204Y-85397971D01*
X219581204Y-85397971D02*
X220295489Y-85540828D01*
X219081204Y-85040828D02*
X218724061Y-86040828D01*
X218366918Y-85040828D02*
X218724061Y-86040828D01*
X218724061Y-86040828D02*
X218866918Y-86397971D01*
X218866918Y-86397971D02*
X218938347Y-86469400D01*
X218938347Y-86469400D02*
X219081204Y-86540828D01*
D12*
%TO.P,Bat-1,1,1*%
%TO.N,GND*%
X217010000Y-88820000D03*
%TD*%
%TO.P,Bat+1,1,1*%
%TO.N,Bat+*%
X216910000Y-73500000D03*
%TD*%
D13*
%TO.P,J3,S1,SHIELD*%
%TO.N,GND*%
X237630000Y-82675000D03*
D14*
X241810000Y-82675000D03*
D13*
X237630000Y-74035000D03*
D14*
X241810000Y-74035000D03*
%TD*%
D15*
%TO.P,TP1,9,EPAD*%
%TO.N,unconnected-(TP1-EPAD-Pad9)*%
X226460000Y-81120000D03*
%TO.N,unconnected-(TP1-EPAD-Pad9)_2*%
X226460000Y-79920000D03*
%TO.N,unconnected-(TP1-EPAD-Pad9)_6*%
X226460000Y-78720000D03*
D16*
%TO.N,unconnected-(TP1-EPAD-Pad9)_1*%
X225760000Y-79920000D03*
D15*
%TO.N,unconnected-(TP1-EPAD-Pad9)_5*%
X225060000Y-81120000D03*
%TO.N,unconnected-(TP1-EPAD-Pad9)_4*%
X225060000Y-79920000D03*
%TO.N,unconnected-(TP1-EPAD-Pad9)_3*%
X225060000Y-78720000D03*
%TD*%
%TA.AperFunction,Conductor*%
%TO.N,GND*%
G36*
X219180411Y-71290185D02*
G01*
X219226166Y-71342989D01*
X219236110Y-71412147D01*
X219227933Y-71441953D01*
X219189182Y-71535505D01*
X219189180Y-71535513D01*
X219150383Y-71730556D01*
X219150383Y-71929443D01*
X219189180Y-72124486D01*
X219189183Y-72124498D01*
X219265285Y-72308226D01*
X219265292Y-72308239D01*
X219375778Y-72473592D01*
X219375781Y-72473596D01*
X219516403Y-72614218D01*
X219516407Y-72614221D01*
X219681760Y-72724707D01*
X219681773Y-72724714D01*
X219854934Y-72796439D01*
X219865506Y-72800818D01*
X220011193Y-72829797D01*
X220060556Y-72839616D01*
X220060559Y-72839617D01*
X220060561Y-72839617D01*
X220259441Y-72839617D01*
X220259442Y-72839616D01*
X220454494Y-72800818D01*
X220638233Y-72724711D01*
X220803593Y-72614221D01*
X220944221Y-72473593D01*
X221054711Y-72308233D01*
X221130818Y-72124494D01*
X221169617Y-71929439D01*
X221169617Y-71730561D01*
X221169617Y-71730558D01*
X221169616Y-71730556D01*
X221163439Y-71699501D01*
X221130818Y-71535506D01*
X221092066Y-71441952D01*
X221084598Y-71372483D01*
X221115873Y-71310004D01*
X221175962Y-71274352D01*
X221206628Y-71270500D01*
X240755798Y-71270500D01*
X240822837Y-71290185D01*
X240868592Y-71342989D01*
X240878536Y-71412147D01*
X240870359Y-71441952D01*
X240819183Y-71565501D01*
X240819180Y-71565513D01*
X240780383Y-71760556D01*
X240780383Y-71959443D01*
X240819180Y-72154486D01*
X240819183Y-72154498D01*
X240895285Y-72338226D01*
X240895292Y-72338239D01*
X241005778Y-72503592D01*
X241005781Y-72503596D01*
X241146403Y-72644218D01*
X241146407Y-72644221D01*
X241311760Y-72754707D01*
X241311773Y-72754714D01*
X241412507Y-72796439D01*
X241466911Y-72840280D01*
X241488976Y-72906574D01*
X241471697Y-72974273D01*
X241420560Y-73021884D01*
X241365055Y-73035000D01*
X241311504Y-73035000D01*
X241118318Y-73073427D01*
X241118306Y-73073430D01*
X240936328Y-73148807D01*
X240936315Y-73148814D01*
X240772537Y-73258248D01*
X240772533Y-73258251D01*
X240633251Y-73397533D01*
X240633248Y-73397537D01*
X240523814Y-73561315D01*
X240523807Y-73561328D01*
X240448430Y-73743306D01*
X240448427Y-73743318D01*
X240414175Y-73915519D01*
X240381791Y-73977430D01*
X240321075Y-74012004D01*
X240292558Y-74015328D01*
X239297442Y-74015328D01*
X239230403Y-73995643D01*
X239184648Y-73942839D01*
X239175825Y-73915519D01*
X239141572Y-73743318D01*
X239141569Y-73743306D01*
X239066192Y-73561328D01*
X239066185Y-73561315D01*
X238956751Y-73397537D01*
X238956748Y-73397533D01*
X238817466Y-73258251D01*
X238817462Y-73258248D01*
X238653684Y-73148814D01*
X238653671Y-73148807D01*
X238471693Y-73073430D01*
X238471681Y-73073427D01*
X238278495Y-73035000D01*
X237880000Y-73035000D01*
X237880000Y-73735000D01*
X237380000Y-73735000D01*
X237380000Y-73035000D01*
X236981504Y-73035000D01*
X236788318Y-73073427D01*
X236788306Y-73073430D01*
X236606328Y-73148807D01*
X236606315Y-73148814D01*
X236442537Y-73258248D01*
X236442533Y-73258251D01*
X236303251Y-73397533D01*
X236303248Y-73397537D01*
X236193814Y-73561315D01*
X236193807Y-73561328D01*
X236118430Y-73743306D01*
X236118427Y-73743318D01*
X236084175Y-73915519D01*
X236051791Y-73977430D01*
X235991075Y-74012004D01*
X235962558Y-74015328D01*
X218797533Y-74015328D01*
X218730494Y-73995643D01*
X218684739Y-73942839D01*
X218674795Y-73873681D01*
X218677758Y-73859237D01*
X218678491Y-73856499D01*
X218679693Y-73852014D01*
X218710500Y-73618011D01*
X218710500Y-73381989D01*
X218679693Y-73147986D01*
X218618606Y-72920007D01*
X218528284Y-72701951D01*
X218528282Y-72701948D01*
X218528280Y-72701943D01*
X218477631Y-72614218D01*
X218410273Y-72497550D01*
X218266592Y-72310301D01*
X218266587Y-72310295D01*
X218099704Y-72143412D01*
X218099697Y-72143406D01*
X217912454Y-71999730D01*
X217912453Y-71999729D01*
X217912450Y-71999727D01*
X217790715Y-71929443D01*
X217708056Y-71881719D01*
X217708045Y-71881714D01*
X217489993Y-71791394D01*
X217262962Y-71730561D01*
X217262014Y-71730307D01*
X217262013Y-71730306D01*
X217262010Y-71730306D01*
X217028020Y-71699501D01*
X217028017Y-71699500D01*
X217028011Y-71699500D01*
X216791989Y-71699500D01*
X216791983Y-71699500D01*
X216791979Y-71699501D01*
X216557989Y-71730306D01*
X216330006Y-71791394D01*
X216111954Y-71881714D01*
X216111943Y-71881719D01*
X215907545Y-71999730D01*
X215720302Y-72143406D01*
X215720295Y-72143412D01*
X215553412Y-72310295D01*
X215553406Y-72310302D01*
X215409730Y-72497545D01*
X215291719Y-72701943D01*
X215291714Y-72701954D01*
X215201394Y-72920006D01*
X215140306Y-73147989D01*
X215109501Y-73381979D01*
X215109500Y-73381995D01*
X215109500Y-73618004D01*
X215109501Y-73618020D01*
X215140306Y-73852010D01*
X215201394Y-74079993D01*
X215291714Y-74298045D01*
X215291719Y-74298056D01*
X215362677Y-74420957D01*
X215409727Y-74502450D01*
X215409729Y-74502453D01*
X215409730Y-74502454D01*
X215553406Y-74689697D01*
X215553412Y-74689704D01*
X215720295Y-74856587D01*
X215720301Y-74856592D01*
X215907550Y-75000273D01*
X216038918Y-75076118D01*
X216111943Y-75118280D01*
X216111948Y-75118282D01*
X216111951Y-75118284D01*
X216330007Y-75208606D01*
X216557986Y-75269693D01*
X216791989Y-75300500D01*
X216791996Y-75300500D01*
X217028004Y-75300500D01*
X217028011Y-75300500D01*
X217262014Y-75269693D01*
X217489993Y-75208606D01*
X217708049Y-75118284D01*
X217912450Y-75000273D01*
X218099698Y-74856593D01*
X218102920Y-74854121D01*
X218103753Y-74855207D01*
X218161867Y-74828232D01*
X218231086Y-74837747D01*
X218284172Y-74883174D01*
X218304272Y-74950090D01*
X218304274Y-74950858D01*
X218304274Y-77328053D01*
X241400989Y-77328053D01*
X241400989Y-75159000D01*
X241420674Y-75091961D01*
X241473478Y-75046206D01*
X241524989Y-75035000D01*
X241560000Y-75035000D01*
X241560000Y-74335000D01*
X242060000Y-74335000D01*
X242060000Y-75035000D01*
X242308492Y-75035000D01*
X242308495Y-75034999D01*
X242501681Y-74996572D01*
X242501693Y-74996569D01*
X242683671Y-74921192D01*
X242683684Y-74921185D01*
X242847462Y-74811751D01*
X242847466Y-74811748D01*
X242986748Y-74672466D01*
X242986751Y-74672462D01*
X243096185Y-74508684D01*
X243096192Y-74508671D01*
X243171569Y-74326692D01*
X243171569Y-74326690D01*
X243179862Y-74285000D01*
X242376988Y-74285000D01*
X242394205Y-74275060D01*
X242450060Y-74219205D01*
X242489556Y-74150796D01*
X242510000Y-74074496D01*
X242510000Y-73995504D01*
X242489556Y-73919204D01*
X242450060Y-73850795D01*
X242394205Y-73794940D01*
X242376988Y-73785000D01*
X243179862Y-73785000D01*
X243171569Y-73743309D01*
X243171569Y-73743307D01*
X243096192Y-73561328D01*
X243096185Y-73561315D01*
X242986751Y-73397537D01*
X242986748Y-73397533D01*
X242847466Y-73258251D01*
X242847462Y-73258248D01*
X242683684Y-73148814D01*
X242683671Y-73148807D01*
X242501693Y-73073430D01*
X242501681Y-73073427D01*
X242308495Y-73035000D01*
X242214945Y-73035000D01*
X242147906Y-73015315D01*
X242102151Y-72962511D01*
X242092207Y-72893353D01*
X242121232Y-72829797D01*
X242167493Y-72796439D01*
X242268226Y-72754714D01*
X242268226Y-72754713D01*
X242268233Y-72754711D01*
X242433593Y-72644221D01*
X242574221Y-72503593D01*
X242684711Y-72338233D01*
X242760818Y-72154494D01*
X242799617Y-71959439D01*
X242799617Y-71760561D01*
X242799617Y-71760558D01*
X242799616Y-71760556D01*
X242760819Y-71565513D01*
X242760818Y-71565506D01*
X242709641Y-71441953D01*
X242709641Y-71441952D01*
X242702172Y-71372483D01*
X242733447Y-71310004D01*
X242793536Y-71274352D01*
X242824202Y-71270500D01*
X243895500Y-71270500D01*
X243962539Y-71290185D01*
X244008294Y-71342989D01*
X244019500Y-71394500D01*
X244019500Y-91425500D01*
X243999815Y-91492539D01*
X243947011Y-91538294D01*
X243895500Y-91549500D01*
X242895490Y-91549500D01*
X242828451Y-91529815D01*
X242782696Y-91477011D01*
X242772752Y-91407853D01*
X242792388Y-91356609D01*
X242824707Y-91308239D01*
X242824707Y-91308238D01*
X242824711Y-91308233D01*
X242900818Y-91124494D01*
X242939617Y-90929439D01*
X242939617Y-90730561D01*
X242939617Y-90730558D01*
X242939616Y-90730556D01*
X242900819Y-90535513D01*
X242900818Y-90535506D01*
X242900816Y-90535501D01*
X242824714Y-90351773D01*
X242824707Y-90351760D01*
X242714221Y-90186407D01*
X242714218Y-90186403D01*
X242573596Y-90045781D01*
X242573592Y-90045778D01*
X242408239Y-89935292D01*
X242408226Y-89935285D01*
X242224498Y-89859183D01*
X242224486Y-89859180D01*
X242029442Y-89820383D01*
X242029439Y-89820383D01*
X241830561Y-89820383D01*
X241830558Y-89820383D01*
X241635513Y-89859180D01*
X241635501Y-89859183D01*
X241451773Y-89935285D01*
X241451760Y-89935292D01*
X241286407Y-90045778D01*
X241286403Y-90045781D01*
X241145781Y-90186403D01*
X241145778Y-90186407D01*
X241035292Y-90351760D01*
X241035285Y-90351773D01*
X240959183Y-90535501D01*
X240959180Y-90535513D01*
X240920383Y-90730556D01*
X240920383Y-90929443D01*
X240959180Y-91124486D01*
X240959183Y-91124498D01*
X241035285Y-91308226D01*
X241035292Y-91308239D01*
X241067612Y-91356609D01*
X241088490Y-91423287D01*
X241070005Y-91490667D01*
X241018026Y-91537357D01*
X240964510Y-91549500D01*
X221052486Y-91549500D01*
X220985447Y-91529815D01*
X220939692Y-91477011D01*
X220929748Y-91407853D01*
X220937925Y-91378047D01*
X220966840Y-91308239D01*
X220980818Y-91274494D01*
X221019617Y-91079439D01*
X221019617Y-90880561D01*
X221019617Y-90880558D01*
X221019616Y-90880556D01*
X220980819Y-90685513D01*
X220980818Y-90685506D01*
X220918689Y-90535513D01*
X220904714Y-90501773D01*
X220904707Y-90501760D01*
X220794221Y-90336407D01*
X220794218Y-90336403D01*
X220653596Y-90195781D01*
X220653592Y-90195778D01*
X220488239Y-90085292D01*
X220488226Y-90085285D01*
X220304498Y-90009183D01*
X220304486Y-90009180D01*
X220109442Y-89970383D01*
X220109439Y-89970383D01*
X219910561Y-89970383D01*
X219910558Y-89970383D01*
X219715513Y-90009180D01*
X219715501Y-90009183D01*
X219531773Y-90085285D01*
X219531760Y-90085292D01*
X219366407Y-90195778D01*
X219366403Y-90195781D01*
X219225781Y-90336403D01*
X219225778Y-90336407D01*
X219115292Y-90501760D01*
X219115285Y-90501773D01*
X219039183Y-90685501D01*
X219039180Y-90685513D01*
X219000383Y-90880556D01*
X219000383Y-91079443D01*
X219039180Y-91274486D01*
X219039182Y-91274494D01*
X219082075Y-91378047D01*
X219089544Y-91447517D01*
X219058269Y-91509996D01*
X218998180Y-91545648D01*
X218967514Y-91549500D01*
X214434500Y-91549500D01*
X214367461Y-91529815D01*
X214321706Y-91477011D01*
X214310500Y-91425500D01*
X214310500Y-83885328D01*
X217710127Y-83885328D01*
X217710127Y-87198053D01*
X241025120Y-87198053D01*
X241025120Y-83885328D01*
X238480096Y-83885328D01*
X238413057Y-83865643D01*
X238367302Y-83812839D01*
X238357358Y-83743681D01*
X238386383Y-83680125D01*
X238445161Y-83642351D01*
X238455906Y-83639710D01*
X238471689Y-83636570D01*
X238471693Y-83636569D01*
X238653671Y-83561192D01*
X238653684Y-83561185D01*
X238817462Y-83451751D01*
X238817466Y-83451748D01*
X238956748Y-83312466D01*
X238956751Y-83312462D01*
X239066185Y-83148684D01*
X239066192Y-83148671D01*
X239141569Y-82966692D01*
X239141569Y-82966690D01*
X239149862Y-82925000D01*
X238346988Y-82925000D01*
X238364205Y-82915060D01*
X238420060Y-82859205D01*
X238459556Y-82790796D01*
X238480000Y-82714496D01*
X238480000Y-82635504D01*
X238459556Y-82559204D01*
X238420060Y-82490795D01*
X238364205Y-82434940D01*
X238346988Y-82425000D01*
X239149862Y-82425000D01*
X240440138Y-82425000D01*
X241243012Y-82425000D01*
X241225795Y-82434940D01*
X241169940Y-82490795D01*
X241130444Y-82559204D01*
X241110000Y-82635504D01*
X241110000Y-82714496D01*
X241130444Y-82790796D01*
X241169940Y-82859205D01*
X241225795Y-82915060D01*
X241243012Y-82925000D01*
X240440138Y-82925000D01*
X240448430Y-82966690D01*
X240448430Y-82966692D01*
X240523807Y-83148671D01*
X240523814Y-83148684D01*
X240633248Y-83312462D01*
X240633251Y-83312466D01*
X240772533Y-83451748D01*
X240772537Y-83451751D01*
X240936315Y-83561185D01*
X240936328Y-83561192D01*
X241118306Y-83636569D01*
X241118318Y-83636572D01*
X241311504Y-83674999D01*
X241311508Y-83675000D01*
X241560000Y-83675000D01*
X241560000Y-82975000D01*
X242060000Y-82975000D01*
X242060000Y-83675000D01*
X242308492Y-83675000D01*
X242308495Y-83674999D01*
X242501681Y-83636572D01*
X242501693Y-83636569D01*
X242683671Y-83561192D01*
X242683684Y-83561185D01*
X242847462Y-83451751D01*
X242847466Y-83451748D01*
X242986748Y-83312466D01*
X242986751Y-83312462D01*
X243096185Y-83148684D01*
X243096192Y-83148671D01*
X243171569Y-82966692D01*
X243171569Y-82966690D01*
X243179862Y-82925000D01*
X242376988Y-82925000D01*
X242394205Y-82915060D01*
X242450060Y-82859205D01*
X242489556Y-82790796D01*
X242510000Y-82714496D01*
X242510000Y-82635504D01*
X242489556Y-82559204D01*
X242450060Y-82490795D01*
X242394205Y-82434940D01*
X242376988Y-82425000D01*
X243179862Y-82425000D01*
X243171569Y-82383309D01*
X243171569Y-82383307D01*
X243096192Y-82201328D01*
X243096185Y-82201315D01*
X242986751Y-82037537D01*
X242986748Y-82037533D01*
X242847466Y-81898251D01*
X242847462Y-81898248D01*
X242683684Y-81788814D01*
X242683671Y-81788807D01*
X242501693Y-81713430D01*
X242501681Y-81713427D01*
X242308495Y-81675000D01*
X242060000Y-81675000D01*
X242060000Y-82375000D01*
X241560000Y-82375000D01*
X241560000Y-81675000D01*
X241311504Y-81675000D01*
X241118318Y-81713427D01*
X241118306Y-81713430D01*
X240936328Y-81788807D01*
X240936315Y-81788814D01*
X240772537Y-81898248D01*
X240772533Y-81898251D01*
X240633251Y-82037533D01*
X240633248Y-82037537D01*
X240523814Y-82201315D01*
X240523807Y-82201328D01*
X240448430Y-82383307D01*
X240448430Y-82383309D01*
X240440138Y-82425000D01*
X239149862Y-82425000D01*
X239141569Y-82383309D01*
X239141569Y-82383307D01*
X239066192Y-82201328D01*
X239066185Y-82201315D01*
X238956751Y-82037537D01*
X238956748Y-82037533D01*
X238817466Y-81898251D01*
X238817462Y-81898248D01*
X238653684Y-81788814D01*
X238653674Y-81788809D01*
X238644157Y-81784867D01*
X238589754Y-81741026D01*
X238567689Y-81674731D01*
X238584969Y-81607032D01*
X238588648Y-81601597D01*
X238590512Y-81598367D01*
X238590515Y-81598365D01*
X238666281Y-81467135D01*
X238705500Y-81320766D01*
X238705500Y-81169234D01*
X238666281Y-81022865D01*
X238590515Y-80891635D01*
X238483365Y-80784485D01*
X238417750Y-80746602D01*
X238352136Y-80708719D01*
X238278950Y-80689109D01*
X238205766Y-80669500D01*
X238054234Y-80669500D01*
X237907863Y-80708719D01*
X237776635Y-80784485D01*
X237776632Y-80784487D01*
X237669487Y-80891632D01*
X237669485Y-80891635D01*
X237593719Y-81022863D01*
X237554500Y-81169234D01*
X237554500Y-81320765D01*
X237593719Y-81467136D01*
X237599693Y-81477483D01*
X237669485Y-81598365D01*
X237776635Y-81705515D01*
X237818000Y-81729397D01*
X237866216Y-81779964D01*
X237880000Y-81836784D01*
X237880000Y-82375000D01*
X237380000Y-82375000D01*
X237380000Y-81675000D01*
X236981504Y-81675000D01*
X236788318Y-81713427D01*
X236788306Y-81713430D01*
X236606328Y-81788807D01*
X236606315Y-81788814D01*
X236442537Y-81898248D01*
X236442533Y-81898251D01*
X236303251Y-82037533D01*
X236303248Y-82037537D01*
X236193814Y-82201315D01*
X236193807Y-82201328D01*
X236118430Y-82383307D01*
X236118430Y-82383309D01*
X236110138Y-82425000D01*
X236913012Y-82425000D01*
X236895795Y-82434940D01*
X236839940Y-82490795D01*
X236800444Y-82559204D01*
X236780000Y-82635504D01*
X236780000Y-82714496D01*
X236800444Y-82790796D01*
X236839940Y-82859205D01*
X236895795Y-82915060D01*
X236913012Y-82925000D01*
X236110138Y-82925000D01*
X236118430Y-82966690D01*
X236118430Y-82966692D01*
X236193807Y-83148671D01*
X236193814Y-83148684D01*
X236303248Y-83312462D01*
X236303251Y-83312466D01*
X236442533Y-83451748D01*
X236442537Y-83451751D01*
X236606315Y-83561185D01*
X236606328Y-83561192D01*
X236788306Y-83636569D01*
X236788310Y-83636570D01*
X236804094Y-83639710D01*
X236866006Y-83672095D01*
X236900580Y-83732811D01*
X236896841Y-83802580D01*
X236855975Y-83859252D01*
X236790957Y-83884834D01*
X236779904Y-83885328D01*
X217710127Y-83885328D01*
X214310500Y-83885328D01*
X214310500Y-78422135D01*
X224309500Y-78422135D01*
X224309500Y-81417869D01*
X224309501Y-81417876D01*
X224315908Y-81477483D01*
X224366202Y-81612328D01*
X224366206Y-81612335D01*
X224452452Y-81727544D01*
X224452455Y-81727547D01*
X224567664Y-81813793D01*
X224567671Y-81813797D01*
X224585643Y-81820500D01*
X224702517Y-81864091D01*
X224762127Y-81870500D01*
X224986081Y-81870499D01*
X224986082Y-81870500D01*
X225133918Y-81870500D01*
X225133918Y-81870499D01*
X226379948Y-81870499D01*
X226379968Y-81870500D01*
X226386082Y-81870500D01*
X226541514Y-81870500D01*
X226541530Y-81870499D01*
X226757871Y-81870499D01*
X226757872Y-81870499D01*
X226817483Y-81864091D01*
X226952331Y-81813796D01*
X227067546Y-81727546D01*
X227153796Y-81612331D01*
X227204091Y-81477483D01*
X227210500Y-81417873D01*
X227210500Y-79993918D01*
X227210500Y-79846082D01*
X227210500Y-79836093D01*
X227210499Y-79836079D01*
X227210499Y-78793922D01*
X227210500Y-78793918D01*
X227210500Y-78646082D01*
X227210499Y-78646077D01*
X227210499Y-78422128D01*
X227204091Y-78362517D01*
X227153796Y-78227669D01*
X227153795Y-78227668D01*
X227153793Y-78227664D01*
X227067547Y-78112455D01*
X227067544Y-78112452D01*
X226952335Y-78026206D01*
X226952328Y-78026202D01*
X226817482Y-77975908D01*
X226817483Y-77975908D01*
X226757883Y-77969501D01*
X226757881Y-77969500D01*
X226757873Y-77969500D01*
X226533918Y-77969500D01*
X226386082Y-77969500D01*
X226386081Y-77969500D01*
X225133922Y-77969500D01*
X225133918Y-77969500D01*
X224986082Y-77969500D01*
X224986077Y-77969500D01*
X224762130Y-77969500D01*
X224762123Y-77969501D01*
X224702516Y-77975908D01*
X224567671Y-78026202D01*
X224567664Y-78026206D01*
X224452455Y-78112452D01*
X224452452Y-78112455D01*
X224366206Y-78227664D01*
X224366202Y-78227671D01*
X224315908Y-78362517D01*
X224309501Y-78422116D01*
X224309501Y-78422123D01*
X224309500Y-78422135D01*
X214310500Y-78422135D01*
X214310500Y-71394500D01*
X214330185Y-71327461D01*
X214382989Y-71281706D01*
X214434500Y-71270500D01*
X219113372Y-71270500D01*
X219180411Y-71290185D01*
G37*
%TD.AperFunction*%
%TD*%
M02*
