%TF.GenerationSoftware,KiCad,Pcbnew,9.0.7*%
%TF.CreationDate,2026-09-03T01:12:00+05:45*%
%TF.ProjectId,Powerbank_Module,506f7765-7262-4616-9e6b-5f4d6f64756c,rev?*%
%TF.SameCoordinates,Original*%
%TF.FileFunction,Copper,L1,Top*%
%TF.FilePolarity,Positive*%
%FSLAX46Y46*%
G04 Gerber Fmt 4.6, Leading zero omitted, Abs format (unit mm)*
G04 Created by KiCad (PCBNEW 9.0.7) date 2026-09-03 01:12:00*
%MOMM*%
%LPD*%
G01*
G04 APERTURE LIST*
G04 Aperture macros list*
%AMRoundRect*
0 Rectangle with rounded corners*
0 $1 Rounding radius*
0 $2 $3 $4 $5 $6 $7 $8 $9 X,Y pos of 4 corners*
0 Add a 4 corners polygon primitive as box body*
4,1,4,$2,$3,$4,$5,$6,$7,$8,$9,$2,$3,0*
0 Add four circle primitives for the rounded corners*
1,1,$1+$1,$2,$3*
1,1,$1+$1,$4,$5*
1,1,$1+$1,$6,$7*
1,1,$1+$1,$8,$9*
0 Add four rect primitives between the rounded corners*
20,1,$1+$1,$2,$3,$4,$5,0*
20,1,$1+$1,$4,$5,$6,$7,0*
20,1,$1+$1,$6,$7,$8,$9,0*
20,1,$1+$1,$8,$9,$2,$3,0*%
G04 Aperture macros list end*
%TA.AperFunction,ComponentPad*%
%ADD10C,2.600000*%
%TD*%
%TA.AperFunction,ConnectorPad*%
%ADD11C,3.800000*%
%TD*%
%TA.AperFunction,SMDPad,CuDef*%
%ADD12RoundRect,0.250000X-0.400000X-0.625000X0.400000X-0.625000X0.400000X0.625000X-0.400000X0.625000X0*%
%TD*%
%TA.AperFunction,SMDPad,CuDef*%
%ADD13RoundRect,0.250001X0.872499X1.044999X-0.872499X1.044999X-0.872499X-1.044999X0.872499X-1.044999X0*%
%TD*%
%TA.AperFunction,SMDPad,CuDef*%
%ADD14RoundRect,0.250000X0.625000X-0.400000X0.625000X0.400000X-0.625000X0.400000X-0.625000X-0.400000X0*%
%TD*%
%TA.AperFunction,SMDPad,CuDef*%
%ADD15RoundRect,0.250000X-0.625000X0.400000X-0.625000X-0.400000X0.625000X-0.400000X0.625000X0.400000X0*%
%TD*%
%TA.AperFunction,SMDPad,CuDef*%
%ADD16RoundRect,0.250000X0.400000X0.625000X-0.400000X0.625000X-0.400000X-0.625000X0.400000X-0.625000X0*%
%TD*%
%TA.AperFunction,SMDPad,CuDef*%
%ADD17RoundRect,0.250001X-0.462499X-0.624999X0.462499X-0.624999X0.462499X0.624999X-0.462499X0.624999X0*%
%TD*%
%TA.AperFunction,SMDPad,CuDef*%
%ADD18RoundRect,0.250001X-1.044999X0.872499X-1.044999X-0.872499X1.044999X-0.872499X1.044999X0.872499X0*%
%TD*%
%TA.AperFunction,SMDPad,CuDef*%
%ADD19RoundRect,0.150000X0.425000X-0.150000X0.425000X0.150000X-0.425000X0.150000X-0.425000X-0.150000X0*%
%TD*%
%TA.AperFunction,SMDPad,CuDef*%
%ADD20RoundRect,0.075000X0.500000X-0.075000X0.500000X0.075000X-0.500000X0.075000X-0.500000X-0.075000X0*%
%TD*%
%TA.AperFunction,HeatsinkPad*%
%ADD21O,2.100000X1.000000*%
%TD*%
%TA.AperFunction,HeatsinkPad*%
%ADD22O,1.800000X1.000000*%
%TD*%
%TA.AperFunction,SMDPad,CuDef*%
%ADD23RoundRect,0.150000X0.825000X0.150000X-0.825000X0.150000X-0.825000X-0.150000X0.825000X-0.150000X0*%
%TD*%
%TA.AperFunction,HeatsinkPad*%
%ADD24C,0.500000*%
%TD*%
%TA.AperFunction,HeatsinkPad*%
%ADD25R,2.410000X3.300000*%
%TD*%
%TA.AperFunction,Conductor*%
%ADD26C,0.200000*%
%TD*%
G04 APERTURE END LIST*
D10*
%TO.P,Bat-1,1,1*%
%TO.N,GND*%
X217010000Y-88820000D03*
D11*
X217010000Y-88820000D03*
%TD*%
D12*
%TO.P,R3,1*%
%TO.N,Net-(TP1-~{STDBY})*%
X232860000Y-85340000D03*
%TO.P,R3,2*%
%TO.N,Net-(D1-K)*%
X235960000Y-85340000D03*
%TD*%
D13*
%TO.P,C2,1*%
%TO.N,VCC +5V*%
X228785000Y-74020000D03*
%TO.P,C2,2*%
%TO.N,Bat+*%
X222370000Y-74020000D03*
%TD*%
D10*
%TO.P,Bat+1,1,1*%
%TO.N,Bat+*%
X216910000Y-73500000D03*
D11*
X216910000Y-73500000D03*
%TD*%
D14*
%TO.P,R1,1*%
%TO.N,Net-(J3-CC2)*%
X234510000Y-75760000D03*
%TO.P,R1,2*%
%TO.N,GND*%
X234510000Y-72660000D03*
%TD*%
D15*
%TO.P,R4,1*%
%TO.N,Net-(TP1-~{CHRG})*%
X231320000Y-80170000D03*
%TO.P,R4,2*%
%TO.N,Net-(D2-K)*%
X231320000Y-83270000D03*
%TD*%
D16*
%TO.P,R7,1*%
%TO.N,GND*%
X236220000Y-88600000D03*
%TO.P,R7,2*%
%TO.N,Net-(TP1-PROG)*%
X233120000Y-88600000D03*
%TD*%
D14*
%TO.P,R2,1*%
%TO.N,Net-(J3-CC1)*%
X234430000Y-80850000D03*
%TO.P,R2,2*%
%TO.N,GND*%
X234430000Y-77750000D03*
%TD*%
D17*
%TO.P,D2,1,K*%
%TO.N,Net-(D2-K)*%
X239625000Y-88320000D03*
%TO.P,D2,2,A*%
%TO.N,VCC +5V*%
X242600000Y-88320000D03*
%TD*%
D18*
%TO.P,C1,1*%
%TO.N,Bat+*%
X217030000Y-78202500D03*
%TO.P,C1,2*%
%TO.N,GND*%
X217030000Y-84617500D03*
%TD*%
D14*
%TO.P,R6,1*%
%TO.N,GND*%
X228010000Y-90950000D03*
%TO.P,R6,2*%
%TO.N,Net-(TP1-TEMP)*%
X228010000Y-87850000D03*
%TD*%
D12*
%TO.P,R5,1*%
%TO.N,Net-(TP1-CE)*%
X224030000Y-84880000D03*
%TO.P,R5,2*%
%TO.N,Net-(TP1-TEMP)*%
X227130000Y-84880000D03*
%TD*%
D19*
%TO.P,J3,A1,GND*%
%TO.N,GND*%
X237055000Y-81555000D03*
%TO.P,J3,A4,VBUS*%
%TO.N,VCC +5V*%
X237055000Y-80755000D03*
D20*
%TO.P,J3,A5,CC1*%
%TO.N,Net-(J3-CC1)*%
X237055000Y-79605000D03*
%TO.P,J3,A6,D+*%
%TO.N,unconnected-(J3-D+-PadA6)*%
X237055000Y-78605000D03*
%TO.P,J3,A7,D-*%
%TO.N,unconnected-(J3-D--PadA7)*%
X237055000Y-78105000D03*
%TO.P,J3,A8,SBU1*%
%TO.N,unconnected-(J3-SBU1-PadA8)*%
X237055000Y-77105000D03*
D19*
%TO.P,J3,A9,VBUS*%
%TO.N,VCC +5V*%
X237055000Y-75955000D03*
%TO.P,J3,A12,GND*%
%TO.N,GND*%
X237055000Y-75155000D03*
%TO.P,J3,B1,GND*%
X237055000Y-75155000D03*
%TO.P,J3,B4,VBUS*%
%TO.N,VCC +5V*%
X237055000Y-75955000D03*
D20*
%TO.P,J3,B5,CC2*%
%TO.N,Net-(J3-CC2)*%
X237055000Y-76605000D03*
%TO.P,J3,B6,D+*%
%TO.N,unconnected-(J3-D+-PadB6)*%
X237055000Y-77605000D03*
%TO.P,J3,B7,D-*%
%TO.N,unconnected-(J3-D--PadB7)*%
X237055000Y-79105000D03*
%TO.P,J3,B8,SBU2*%
%TO.N,unconnected-(J3-SBU2-PadB8)*%
X237055000Y-80105000D03*
D19*
%TO.P,J3,B9,VBUS*%
%TO.N,VCC +5V*%
X237055000Y-80755000D03*
%TO.P,J3,B12,GND*%
%TO.N,GND*%
X237055000Y-81555000D03*
D21*
%TO.P,J3,S1,SHIELD*%
X237630000Y-82675000D03*
D22*
X241810000Y-82675000D03*
D21*
X237630000Y-74035000D03*
D22*
X241810000Y-74035000D03*
%TD*%
D17*
%TO.P,D1,1,K*%
%TO.N,Net-(D1-K)*%
X239540000Y-85300000D03*
%TO.P,D1,2,A*%
%TO.N,VCC +5V*%
X242515000Y-85300000D03*
%TD*%
D14*
%TO.P,R8,1*%
%TO.N,GND*%
X231700000Y-76110000D03*
%TO.P,R8,2*%
%TO.N,Bat+*%
X231700000Y-73010000D03*
%TD*%
D23*
%TO.P,TP1,1,TEMP*%
%TO.N,Net-(TP1-TEMP)*%
X228235000Y-81825000D03*
%TO.P,TP1,2,PROG*%
%TO.N,Net-(TP1-PROG)*%
X228235000Y-80555000D03*
%TO.P,TP1,3,GND*%
%TO.N,GND*%
X228235000Y-79285000D03*
%TO.P,TP1,4,V_{CC}*%
%TO.N,VCC +5V*%
X228235000Y-78015000D03*
%TO.P,TP1,5,BAT*%
%TO.N,Bat+*%
X223285000Y-78015000D03*
%TO.P,TP1,6,~{STDBY}*%
%TO.N,Net-(TP1-~{STDBY})*%
X223285000Y-79285000D03*
%TO.P,TP1,7,~{CHRG}*%
%TO.N,Net-(TP1-~{CHRG})*%
X223285000Y-80555000D03*
%TO.P,TP1,8,CE*%
%TO.N,Net-(TP1-CE)*%
X223285000Y-81825000D03*
D24*
%TO.P,TP1,9,EPAD*%
%TO.N,unconnected-(TP1-EPAD-Pad9)*%
X226460000Y-81120000D03*
%TO.N,unconnected-(TP1-EPAD-Pad9)_2*%
X226460000Y-79920000D03*
%TO.N,unconnected-(TP1-EPAD-Pad9)_6*%
X226460000Y-78720000D03*
D25*
%TO.N,unconnected-(TP1-EPAD-Pad9)_7*%
X225760000Y-79920000D03*
D24*
%TO.N,unconnected-(TP1-EPAD-Pad9)_5*%
X225060000Y-81120000D03*
%TO.N,unconnected-(TP1-EPAD-Pad9)_4*%
X225060000Y-79920000D03*
%TO.N,unconnected-(TP1-EPAD-Pad9)_3*%
X225060000Y-78720000D03*
%TD*%
D26*
%TO.N,GND*%
X241140000Y-89330000D02*
X240825000Y-89645000D01*
X237630000Y-74035000D02*
X232855000Y-74035000D01*
X240890000Y-89710000D02*
X240825000Y-89645000D01*
X232855000Y-74035000D02*
X231700000Y-75190000D01*
X240825000Y-89645000D02*
X240460000Y-90010000D01*
X240460000Y-90010000D02*
X238790000Y-90010000D01*
X243630000Y-89710000D02*
X240890000Y-89710000D01*
X241140000Y-84740000D02*
X241140000Y-89330000D01*
X243880000Y-82930000D02*
X243880000Y-89460000D01*
X237630000Y-82675000D02*
X238855000Y-83900000D01*
X238790000Y-90010000D02*
X237750000Y-88970000D01*
X243880000Y-89460000D02*
X243630000Y-89710000D01*
X240300000Y-83900000D02*
X241140000Y-84740000D01*
X237750000Y-88970000D02*
X237750000Y-88610000D01*
X241810000Y-82675000D02*
X243475000Y-82675000D01*
X237750000Y-88610000D02*
X236230000Y-88610000D01*
X243475000Y-82675000D02*
X243550000Y-82600000D01*
X238855000Y-83900000D02*
X240300000Y-83900000D01*
X236230000Y-88610000D02*
X236220000Y-88600000D01*
X231700000Y-75190000D02*
X231700000Y-76110000D01*
X243550000Y-82600000D02*
X243880000Y-82930000D01*
%TO.N,Bat+*%
X216910000Y-73500000D02*
X217030000Y-73620000D01*
X224530000Y-71860000D02*
X222370000Y-74020000D01*
X216910000Y-73500000D02*
X221210000Y-73500000D01*
X230770000Y-71860000D02*
X224530000Y-71860000D01*
X217030000Y-73620000D02*
X217030000Y-78202500D01*
X222370000Y-74020000D02*
X222370000Y-77100000D01*
X221210000Y-73500000D02*
X221730000Y-74020000D01*
X231080000Y-73010000D02*
X231080000Y-72170000D01*
X231080000Y-72170000D02*
X230770000Y-71860000D01*
X216910000Y-78082500D02*
X217030000Y-78202500D01*
X222370000Y-77100000D02*
X223285000Y-78015000D01*
%TO.N,VCC +5V*%
X233190000Y-77250000D02*
X233190000Y-74780000D01*
X239920000Y-82790000D02*
X242430000Y-85300000D01*
X242600000Y-85385000D02*
X242515000Y-85300000D01*
X236990000Y-75890000D02*
X237055000Y-75955000D01*
X237050000Y-80750000D02*
X237055000Y-80755000D01*
X236100000Y-75770000D02*
X236220000Y-75890000D01*
X236090000Y-75420000D02*
X236100000Y-75420000D01*
X237055000Y-75955000D02*
X237615000Y-75955000D01*
X242430000Y-85300000D02*
X242515000Y-85300000D01*
X228235000Y-78015000D02*
X232425000Y-78015000D01*
X235290000Y-74620000D02*
X236090000Y-75420000D01*
X233350000Y-74620000D02*
X235290000Y-74620000D01*
X238150000Y-80210000D02*
X238430000Y-80210000D01*
X238150000Y-80210000D02*
X238150000Y-80310000D01*
X242600000Y-88320000D02*
X242600000Y-85385000D01*
X238150000Y-76490000D02*
X238150000Y-80210000D01*
X228235000Y-74570000D02*
X228235000Y-78015000D01*
X237905000Y-80555000D02*
X237255000Y-80555000D01*
X233190000Y-74780000D02*
X233350000Y-74620000D01*
X236100000Y-75420000D02*
X236100000Y-75770000D01*
X236220000Y-75890000D02*
X236990000Y-75890000D01*
X237255000Y-80555000D02*
X237055000Y-80755000D01*
X238150000Y-80310000D02*
X237905000Y-80555000D01*
X239920000Y-81700000D02*
X239920000Y-82790000D01*
X232425000Y-78015000D02*
X233190000Y-77250000D01*
X238430000Y-80210000D02*
X239920000Y-81700000D01*
X237615000Y-75955000D02*
X238150000Y-76490000D01*
X228785000Y-74020000D02*
X228235000Y-74570000D01*
%TO.N,Net-(D1-K)*%
X236000000Y-85300000D02*
X235960000Y-85340000D01*
X239540000Y-85300000D02*
X236000000Y-85300000D01*
%TO.N,Net-(D2-K)*%
X239490000Y-88320000D02*
X238110000Y-86940000D01*
X231380000Y-83330000D02*
X231320000Y-83270000D01*
X235100000Y-86940000D02*
X234310000Y-86150000D01*
X234310000Y-83550000D02*
X234090000Y-83330000D01*
X234090000Y-83330000D02*
X231380000Y-83330000D01*
X238110000Y-86940000D02*
X235100000Y-86940000D01*
X239625000Y-88320000D02*
X239490000Y-88320000D01*
X234310000Y-86150000D02*
X234310000Y-83550000D01*
%TO.N,Net-(J3-CC1)*%
X235910000Y-80670000D02*
X235910000Y-80000000D01*
X236305000Y-79605000D02*
X237055000Y-79605000D01*
X234430000Y-81460000D02*
X235120000Y-81460000D01*
X235120000Y-81460000D02*
X235910000Y-80670000D01*
X235910000Y-80000000D02*
X236305000Y-79605000D01*
%TO.N,Net-(J3-CC2)*%
X235975000Y-76605000D02*
X237055000Y-76605000D01*
X235130000Y-75760000D02*
X235975000Y-76605000D01*
X234510000Y-75760000D02*
X235130000Y-75760000D01*
%TO.N,Net-(TP1-~{STDBY})*%
X226430000Y-89570000D02*
X226420000Y-89560000D01*
X221350000Y-87190000D02*
X221350000Y-79430000D01*
X223720000Y-89560000D02*
X221350000Y-87190000D01*
X234880000Y-89760000D02*
X234270000Y-90370000D01*
X234880000Y-88504315D02*
X234880000Y-89760000D01*
X229750000Y-90370000D02*
X228950000Y-89570000D01*
X228950000Y-89570000D02*
X226430000Y-89570000D01*
X233330000Y-85810000D02*
X233330000Y-86390000D01*
X221350000Y-79430000D02*
X221520000Y-79260000D01*
X233930000Y-86390000D02*
X234720000Y-87180000D01*
X221520000Y-79260000D02*
X223260000Y-79260000D01*
X223260000Y-79260000D02*
X223285000Y-79285000D01*
X234720000Y-88344315D02*
X234880000Y-88504315D01*
X234720000Y-87180000D02*
X234720000Y-88344315D01*
X232860000Y-85340000D02*
X233330000Y-85810000D01*
X233330000Y-86390000D02*
X233930000Y-86390000D01*
X226420000Y-89560000D02*
X223720000Y-89560000D01*
X234270000Y-90370000D02*
X229750000Y-90370000D01*
%TO.N,Net-(TP1-~{CHRG})*%
X221750000Y-80650000D02*
X221750000Y-87020000D01*
X229150000Y-89070000D02*
X223800000Y-89070000D01*
X231350000Y-86840000D02*
X233750000Y-86840000D01*
X231320000Y-80170000D02*
X230310000Y-80170000D01*
X234310000Y-87400000D02*
X234310000Y-88500000D01*
X221850000Y-80550000D02*
X221750000Y-80650000D01*
X230050000Y-89970000D02*
X229150000Y-89070000D01*
X234080000Y-89970000D02*
X230050000Y-89970000D01*
X221750000Y-87020000D02*
X223800000Y-89070000D01*
X234480000Y-89570000D02*
X234080000Y-89970000D01*
X234480000Y-88670000D02*
X234480000Y-89570000D01*
X223280000Y-80550000D02*
X221850000Y-80550000D01*
X233750000Y-86840000D02*
X234310000Y-87400000D01*
X230310000Y-80170000D02*
X230140000Y-80340000D01*
X231240000Y-86730000D02*
X231350000Y-86840000D01*
X230140000Y-80340000D02*
X230140000Y-84540000D01*
X223285000Y-80555000D02*
X223280000Y-80550000D01*
X234310000Y-88500000D02*
X234480000Y-88670000D01*
X230140000Y-84540000D02*
X231240000Y-85640000D01*
X231240000Y-85640000D02*
X231240000Y-86730000D01*
%TO.N,Net-(TP1-CE)*%
X224030000Y-84880000D02*
X223285000Y-84135000D01*
X223285000Y-84135000D02*
X223285000Y-81825000D01*
%TO.N,Net-(TP1-TEMP)*%
X228350000Y-83660000D02*
X228350000Y-81940000D01*
X227130000Y-84880000D02*
X228350000Y-83660000D01*
X228350000Y-81940000D02*
X228235000Y-81825000D01*
%TO.N,Net-(TP1-PROG)*%
X231900000Y-88630000D02*
X230780000Y-87510000D01*
X229440000Y-80680000D02*
X228360000Y-80680000D01*
X230780000Y-87510000D02*
X230780000Y-85790000D01*
X229740000Y-84750000D02*
X229740000Y-80980000D01*
X233120000Y-88600000D02*
X233090000Y-88630000D01*
X229740000Y-80980000D02*
X229440000Y-80680000D01*
X233090000Y-88630000D02*
X231900000Y-88630000D01*
X228360000Y-80680000D02*
X228235000Y-80555000D01*
X230780000Y-85790000D02*
X229740000Y-84750000D01*
%TD*%
%TA.AperFunction,Conductor*%
%TO.N,GND*%
G36*
X214515703Y-73905410D02*
G01*
X214553477Y-73964188D01*
X214555388Y-73971521D01*
X214567613Y-74025080D01*
X214599684Y-74165594D01*
X214599687Y-74165602D01*
X214688734Y-74420082D01*
X214805714Y-74662994D01*
X214805716Y-74662997D01*
X214949162Y-74891289D01*
X215033120Y-74996569D01*
X215100371Y-75080900D01*
X215117266Y-75102085D01*
X215307915Y-75292734D01*
X215518711Y-75460838D01*
X215747003Y-75604284D01*
X215989921Y-75721267D01*
X216181049Y-75788145D01*
X216244397Y-75810312D01*
X216244409Y-75810316D01*
X216333092Y-75830557D01*
X216394071Y-75864665D01*
X216426929Y-75926326D01*
X216429500Y-75951448D01*
X216429500Y-76455500D01*
X216409815Y-76522539D01*
X216357011Y-76568294D01*
X216305500Y-76579500D01*
X215934984Y-76579500D01*
X215832204Y-76590000D01*
X215832203Y-76590001D01*
X215665664Y-76645186D01*
X215665662Y-76645187D01*
X215516348Y-76737286D01*
X215516344Y-76737289D01*
X215392289Y-76861344D01*
X215392286Y-76861348D01*
X215300187Y-77010662D01*
X215300186Y-77010664D01*
X215245001Y-77177203D01*
X215245000Y-77177204D01*
X215234500Y-77279984D01*
X215234500Y-79125015D01*
X215245000Y-79227795D01*
X215245001Y-79227797D01*
X215247814Y-79236286D01*
X215300186Y-79394335D01*
X215300187Y-79394337D01*
X215392286Y-79543651D01*
X215392289Y-79543655D01*
X215516344Y-79667710D01*
X215516348Y-79667713D01*
X215665662Y-79759812D01*
X215665664Y-79759813D01*
X215665666Y-79759814D01*
X215832203Y-79814999D01*
X215934992Y-79825500D01*
X215934997Y-79825500D01*
X218125003Y-79825500D01*
X218125008Y-79825500D01*
X218227797Y-79814999D01*
X218394334Y-79759814D01*
X218543655Y-79667711D01*
X218667711Y-79543655D01*
X218759814Y-79394334D01*
X218814999Y-79227797D01*
X218825500Y-79125008D01*
X218825500Y-77279992D01*
X218814999Y-77177203D01*
X218759814Y-77010666D01*
X218754015Y-77001265D01*
X218667713Y-76861348D01*
X218667710Y-76861344D01*
X218543655Y-76737289D01*
X218543651Y-76737286D01*
X218394337Y-76645187D01*
X218394335Y-76645186D01*
X218311065Y-76617593D01*
X218227797Y-76590001D01*
X218227795Y-76590000D01*
X218125015Y-76579500D01*
X218125008Y-76579500D01*
X217754500Y-76579500D01*
X217687461Y-76559815D01*
X217641706Y-76507011D01*
X217630500Y-76455500D01*
X217630500Y-75879085D01*
X217650185Y-75812046D01*
X217702989Y-75766291D01*
X217713541Y-75762044D01*
X217830079Y-75721267D01*
X218072997Y-75604284D01*
X218301289Y-75460838D01*
X218512085Y-75292734D01*
X218702734Y-75102085D01*
X218870838Y-74891289D01*
X219014284Y-74662997D01*
X219131267Y-74420079D01*
X219214034Y-74183545D01*
X219254755Y-74126769D01*
X219319708Y-74101022D01*
X219331075Y-74100500D01*
X220623000Y-74100500D01*
X220690039Y-74120185D01*
X220735794Y-74172989D01*
X220747000Y-74224500D01*
X220747000Y-75115015D01*
X220757500Y-75217795D01*
X220757501Y-75217796D01*
X220812686Y-75384335D01*
X220812687Y-75384337D01*
X220904786Y-75533651D01*
X220904789Y-75533655D01*
X221028844Y-75657710D01*
X221028848Y-75657713D01*
X221178162Y-75749812D01*
X221178164Y-75749813D01*
X221178166Y-75749814D01*
X221344703Y-75804999D01*
X221447492Y-75815500D01*
X221645500Y-75815500D01*
X221712539Y-75835185D01*
X221758294Y-75887989D01*
X221769500Y-75939500D01*
X221769500Y-77013330D01*
X221769499Y-77013348D01*
X221769499Y-77179054D01*
X221769498Y-77179054D01*
X221769499Y-77179057D01*
X221810423Y-77331785D01*
X221810424Y-77331787D01*
X221810423Y-77331787D01*
X221819159Y-77346917D01*
X221819161Y-77346919D01*
X221823827Y-77355000D01*
X221877524Y-77448008D01*
X221893996Y-77515908D01*
X221876869Y-77573126D01*
X221858258Y-77604595D01*
X221858254Y-77604605D01*
X221812402Y-77762426D01*
X221812401Y-77762432D01*
X221809500Y-77799298D01*
X221809500Y-78230701D01*
X221812401Y-78267567D01*
X221812402Y-78267573D01*
X221858254Y-78425393D01*
X221858254Y-78425394D01*
X221858255Y-78425396D01*
X221858256Y-78425398D01*
X221872465Y-78449424D01*
X221886041Y-78472380D01*
X221903222Y-78540104D01*
X221881062Y-78606366D01*
X221826596Y-78650129D01*
X221779308Y-78659500D01*
X221440942Y-78659500D01*
X221288212Y-78700423D01*
X221258258Y-78717719D01*
X221258256Y-78717720D01*
X221151287Y-78779477D01*
X221151282Y-78779481D01*
X220869481Y-79061282D01*
X220869479Y-79061285D01*
X220819361Y-79148094D01*
X220819359Y-79148096D01*
X220790425Y-79198209D01*
X220790424Y-79198210D01*
X220782496Y-79227797D01*
X220749499Y-79350943D01*
X220749499Y-79350945D01*
X220749499Y-79519046D01*
X220749500Y-79519059D01*
X220749500Y-87103330D01*
X220749499Y-87103348D01*
X220749499Y-87269054D01*
X220749498Y-87269054D01*
X220749499Y-87269057D01*
X220790423Y-87421785D01*
X220816903Y-87467649D01*
X220819358Y-87471900D01*
X220819359Y-87471904D01*
X220819360Y-87471904D01*
X220865246Y-87551383D01*
X220869479Y-87558714D01*
X220869481Y-87558717D01*
X220988349Y-87677585D01*
X220988355Y-87677590D01*
X223235139Y-89924374D01*
X223235149Y-89924385D01*
X223239479Y-89928715D01*
X223239480Y-89928716D01*
X223351284Y-90040520D01*
X223428827Y-90085289D01*
X223428828Y-90085290D01*
X223488209Y-90119574D01*
X223488210Y-90119574D01*
X223488215Y-90119577D01*
X223640943Y-90160500D01*
X226297298Y-90160500D01*
X226329389Y-90164724D01*
X226350943Y-90170500D01*
X226548930Y-90170500D01*
X226615969Y-90190185D01*
X226661724Y-90242989D01*
X226671668Y-90312147D01*
X226666636Y-90333505D01*
X226645494Y-90397305D01*
X226645493Y-90397309D01*
X226635000Y-90500013D01*
X226635000Y-90700000D01*
X229179401Y-90700000D01*
X229246440Y-90719685D01*
X229267082Y-90736318D01*
X229269479Y-90738715D01*
X229269480Y-90738716D01*
X229381284Y-90850520D01*
X229433313Y-90880558D01*
X229468095Y-90900639D01*
X229468097Y-90900641D01*
X229506151Y-90922611D01*
X229518215Y-90929577D01*
X229670943Y-90970501D01*
X229670946Y-90970501D01*
X229836653Y-90970501D01*
X229836669Y-90970500D01*
X234183331Y-90970500D01*
X234183347Y-90970501D01*
X234190943Y-90970501D01*
X234349054Y-90970501D01*
X234349057Y-90970501D01*
X234501785Y-90929577D01*
X234551904Y-90900639D01*
X234638716Y-90850520D01*
X234750520Y-90738716D01*
X234750520Y-90738714D01*
X234760728Y-90728507D01*
X234760730Y-90728504D01*
X235238506Y-90250728D01*
X235238511Y-90250724D01*
X235248714Y-90240520D01*
X235248716Y-90240520D01*
X235360520Y-90128716D01*
X235411440Y-90040519D01*
X235438863Y-89993020D01*
X235476061Y-89957554D01*
X235489428Y-89944808D01*
X235489429Y-89944807D01*
X235489431Y-89944806D01*
X235523908Y-89938162D01*
X235558035Y-89931584D01*
X235585252Y-89937317D01*
X235667299Y-89964504D01*
X235667309Y-89964506D01*
X235770019Y-89974999D01*
X235969999Y-89974999D01*
X236470000Y-89974999D01*
X236669972Y-89974999D01*
X236669986Y-89974998D01*
X236772697Y-89964505D01*
X236939119Y-89909358D01*
X236939124Y-89909356D01*
X237088345Y-89817315D01*
X237212315Y-89693345D01*
X237304356Y-89544124D01*
X237304358Y-89544119D01*
X237359505Y-89377697D01*
X237359506Y-89377690D01*
X237369999Y-89274986D01*
X237370000Y-89274973D01*
X237370000Y-88850000D01*
X236470000Y-88850000D01*
X236470000Y-89974999D01*
X235969999Y-89974999D01*
X235970000Y-89974998D01*
X235970000Y-88724000D01*
X235989685Y-88656961D01*
X236042489Y-88611206D01*
X236094000Y-88600000D01*
X236220000Y-88600000D01*
X236220000Y-88474000D01*
X236239685Y-88406961D01*
X236292489Y-88361206D01*
X236344000Y-88350000D01*
X237369999Y-88350000D01*
X237369999Y-87925028D01*
X237369998Y-87925013D01*
X237359506Y-87822304D01*
X237320139Y-87703505D01*
X237317737Y-87633676D01*
X237353468Y-87573634D01*
X237415989Y-87542441D01*
X237437845Y-87540500D01*
X237809903Y-87540500D01*
X237876942Y-87560185D01*
X237897584Y-87576819D01*
X238375681Y-88054916D01*
X238409166Y-88116239D01*
X238412000Y-88142597D01*
X238412000Y-88995015D01*
X238422500Y-89097795D01*
X238422501Y-89097797D01*
X238428170Y-89114905D01*
X238477686Y-89264335D01*
X238477687Y-89264337D01*
X238569786Y-89413651D01*
X238569789Y-89413655D01*
X238693844Y-89537710D01*
X238693848Y-89537713D01*
X238843162Y-89629812D01*
X238843164Y-89629813D01*
X238843166Y-89629814D01*
X239009703Y-89684999D01*
X239112492Y-89695500D01*
X239112497Y-89695500D01*
X240137503Y-89695500D01*
X240137508Y-89695500D01*
X240240297Y-89684999D01*
X240406834Y-89629814D01*
X240556155Y-89537711D01*
X240680211Y-89413655D01*
X240772314Y-89264334D01*
X240827499Y-89097797D01*
X240838000Y-88995008D01*
X240838000Y-87644992D01*
X240827499Y-87542203D01*
X240772314Y-87375666D01*
X240723915Y-87297200D01*
X240680213Y-87226348D01*
X240680210Y-87226344D01*
X240556155Y-87102289D01*
X240556151Y-87102286D01*
X240406837Y-87010187D01*
X240406835Y-87010186D01*
X240310494Y-86978262D01*
X240240297Y-86955001D01*
X240240295Y-86955000D01*
X240137515Y-86944500D01*
X240137508Y-86944500D01*
X239112492Y-86944500D01*
X239112479Y-86944500D01*
X239036139Y-86952299D01*
X239034216Y-86951941D01*
X239032384Y-86952625D01*
X239000017Y-86945583D01*
X238967446Y-86939529D01*
X238965415Y-86938056D01*
X238964111Y-86937773D01*
X238935857Y-86916622D01*
X238903335Y-86884100D01*
X238869850Y-86822777D01*
X238874834Y-86753085D01*
X238916706Y-86697152D01*
X238982170Y-86672735D01*
X239003617Y-86673060D01*
X239027492Y-86675500D01*
X239027497Y-86675500D01*
X240052503Y-86675500D01*
X240052508Y-86675500D01*
X240155297Y-86664999D01*
X240321834Y-86609814D01*
X240471155Y-86517711D01*
X240595211Y-86393655D01*
X240687314Y-86244334D01*
X240742499Y-86077797D01*
X240753000Y-85975008D01*
X240753000Y-84771597D01*
X240772685Y-84704558D01*
X240825489Y-84658803D01*
X240894647Y-84648859D01*
X240958203Y-84677884D01*
X240964681Y-84683916D01*
X241265681Y-84984916D01*
X241299166Y-85046239D01*
X241302000Y-85072597D01*
X241302000Y-85975015D01*
X241312500Y-86077795D01*
X241312501Y-86077797D01*
X241340093Y-86161065D01*
X241367686Y-86244335D01*
X241367687Y-86244337D01*
X241459786Y-86393651D01*
X241459789Y-86393655D01*
X241583844Y-86517710D01*
X241583848Y-86517713D01*
X241733162Y-86609812D01*
X241733164Y-86609813D01*
X241733166Y-86609814D01*
X241899703Y-86664999D01*
X241899711Y-86664999D01*
X241901462Y-86665375D01*
X241902441Y-86665905D01*
X241906130Y-86667128D01*
X241905911Y-86667786D01*
X241928611Y-86680084D01*
X241956703Y-86692914D01*
X241959061Y-86696583D01*
X241962894Y-86698660D01*
X241977778Y-86725708D01*
X241994477Y-86751692D01*
X241995325Y-86757595D01*
X241996579Y-86759873D01*
X241999500Y-86786627D01*
X241999500Y-86860556D01*
X241979815Y-86927595D01*
X241927011Y-86973350D01*
X241914505Y-86978262D01*
X241818162Y-87010187D01*
X241668848Y-87102286D01*
X241668844Y-87102289D01*
X241544789Y-87226344D01*
X241544786Y-87226348D01*
X241452687Y-87375662D01*
X241452686Y-87375664D01*
X241397501Y-87542203D01*
X241397500Y-87542204D01*
X241387000Y-87644984D01*
X241387000Y-88995015D01*
X241397500Y-89097795D01*
X241397501Y-89097797D01*
X241403170Y-89114905D01*
X241452686Y-89264335D01*
X241452687Y-89264337D01*
X241544786Y-89413651D01*
X241544789Y-89413655D01*
X241668844Y-89537710D01*
X241668848Y-89537713D01*
X241786311Y-89610166D01*
X241833036Y-89662114D01*
X241844257Y-89731076D01*
X241816414Y-89795158D01*
X241758345Y-89834014D01*
X241745405Y-89837321D01*
X241635513Y-89859180D01*
X241635501Y-89859183D01*
X241451773Y-89935285D01*
X241451760Y-89935292D01*
X241286407Y-90045778D01*
X241286403Y-90045781D01*
X241145781Y-90186403D01*
X241145778Y-90186407D01*
X241035292Y-90351760D01*
X241035285Y-90351773D01*
X240959183Y-90535501D01*
X240959180Y-90535513D01*
X240920383Y-90730556D01*
X240920383Y-90929443D01*
X240959180Y-91124486D01*
X240959183Y-91124498D01*
X241035285Y-91308226D01*
X241035292Y-91308239D01*
X241067612Y-91356609D01*
X241088490Y-91423287D01*
X241070005Y-91490667D01*
X241018026Y-91537357D01*
X240964510Y-91549500D01*
X229507038Y-91549500D01*
X229439999Y-91529815D01*
X229394244Y-91477011D01*
X229383680Y-91412895D01*
X229384999Y-91399980D01*
X229385000Y-91399973D01*
X229385000Y-91200000D01*
X226635001Y-91200000D01*
X226635001Y-91399981D01*
X226636321Y-91412896D01*
X226623552Y-91481589D01*
X226575673Y-91532474D01*
X226512963Y-91549500D01*
X221052486Y-91549500D01*
X220985447Y-91529815D01*
X220939692Y-91477011D01*
X220929748Y-91407853D01*
X220937925Y-91378047D01*
X220966840Y-91308239D01*
X220980818Y-91274494D01*
X221019617Y-91079439D01*
X221019617Y-90880561D01*
X221019617Y-90880558D01*
X221019616Y-90880556D01*
X220991402Y-90738716D01*
X220980818Y-90685506D01*
X220918689Y-90535513D01*
X220904714Y-90501773D01*
X220904707Y-90501760D01*
X220794221Y-90336407D01*
X220794218Y-90336403D01*
X220653596Y-90195781D01*
X220653592Y-90195778D01*
X220488235Y-90085290D01*
X220488226Y-90085285D01*
X220304498Y-90009183D01*
X220304486Y-90009180D01*
X220109442Y-89970383D01*
X220109439Y-89970383D01*
X219910561Y-89970383D01*
X219910558Y-89970383D01*
X219715513Y-90009180D01*
X219715501Y-90009183D01*
X219531773Y-90085285D01*
X219531765Y-90085290D01*
X219366407Y-90195778D01*
X219366403Y-90195781D01*
X219225781Y-90336403D01*
X219225778Y-90336407D01*
X219115292Y-90501760D01*
X219115285Y-90501773D01*
X219039183Y-90685501D01*
X219039180Y-90685513D01*
X219000383Y-90880556D01*
X219000383Y-91079443D01*
X219039180Y-91274486D01*
X219039182Y-91274494D01*
X219082075Y-91378047D01*
X219089544Y-91447517D01*
X219058269Y-91509996D01*
X218998180Y-91545648D01*
X218967514Y-91549500D01*
X214434500Y-91549500D01*
X214367461Y-91529815D01*
X214321706Y-91477011D01*
X214310500Y-91425500D01*
X214310500Y-85539985D01*
X215235000Y-85539985D01*
X215245493Y-85642689D01*
X215245494Y-85642696D01*
X215300641Y-85809118D01*
X215300643Y-85809123D01*
X215392684Y-85958344D01*
X215516655Y-86082315D01*
X215665876Y-86174356D01*
X215665881Y-86174358D01*
X215832303Y-86229505D01*
X215832310Y-86229506D01*
X215935014Y-86239999D01*
X215935027Y-86240000D01*
X216780000Y-86240000D01*
X217280000Y-86240000D01*
X218124973Y-86240000D01*
X218124985Y-86239999D01*
X218227689Y-86229506D01*
X218227696Y-86229505D01*
X218394118Y-86174358D01*
X218394123Y-86174356D01*
X218543344Y-86082315D01*
X218667315Y-85958344D01*
X218759356Y-85809123D01*
X218759358Y-85809118D01*
X218814505Y-85642696D01*
X218814506Y-85642689D01*
X218824999Y-85539985D01*
X218825000Y-85539972D01*
X218825000Y-84867500D01*
X217280000Y-84867500D01*
X217280000Y-86240000D01*
X216780000Y-86240000D01*
X216780000Y-84867500D01*
X215235000Y-84867500D01*
X215235000Y-85539985D01*
X214310500Y-85539985D01*
X214310500Y-83695014D01*
X215235000Y-83695014D01*
X215235000Y-84367500D01*
X216780000Y-84367500D01*
X217280000Y-84367500D01*
X218825000Y-84367500D01*
X218825000Y-83695027D01*
X218824999Y-83695014D01*
X218814506Y-83592310D01*
X218814505Y-83592303D01*
X218759358Y-83425881D01*
X218759356Y-83425876D01*
X218667315Y-83276655D01*
X218543344Y-83152684D01*
X218394123Y-83060643D01*
X218394118Y-83060641D01*
X218227696Y-83005494D01*
X218227689Y-83005493D01*
X218124985Y-82995000D01*
X217280000Y-82995000D01*
X217280000Y-84367500D01*
X216780000Y-84367500D01*
X216780000Y-82995000D01*
X215935014Y-82995000D01*
X215832310Y-83005493D01*
X215832303Y-83005494D01*
X215665881Y-83060641D01*
X215665876Y-83060643D01*
X215516655Y-83152684D01*
X215392684Y-83276655D01*
X215300643Y-83425876D01*
X215300641Y-83425881D01*
X215245494Y-83592303D01*
X215245493Y-83592310D01*
X215235000Y-83695014D01*
X214310500Y-83695014D01*
X214310500Y-73999123D01*
X214330185Y-73932084D01*
X214382989Y-73886329D01*
X214452147Y-73876385D01*
X214515703Y-73905410D01*
G37*
%TD.AperFunction*%
%TA.AperFunction,Conductor*%
G36*
X243950858Y-89100397D02*
G01*
X244002058Y-89147940D01*
X244019500Y-89211354D01*
X244019500Y-91425500D01*
X243999815Y-91492539D01*
X243947011Y-91538294D01*
X243895500Y-91549500D01*
X242895490Y-91549500D01*
X242828451Y-91529815D01*
X242782696Y-91477011D01*
X242772752Y-91407853D01*
X242792388Y-91356609D01*
X242824707Y-91308239D01*
X242824707Y-91308238D01*
X242824711Y-91308233D01*
X242900818Y-91124494D01*
X242939617Y-90929439D01*
X242939617Y-90730561D01*
X242939617Y-90730558D01*
X242939616Y-90730556D01*
X242900819Y-90535513D01*
X242900818Y-90535506D01*
X242900816Y-90535501D01*
X242824714Y-90351773D01*
X242824707Y-90351760D01*
X242714221Y-90186407D01*
X242714218Y-90186403D01*
X242573596Y-90045781D01*
X242573592Y-90045778D01*
X242408239Y-89935292D01*
X242408233Y-89935289D01*
X242405268Y-89934061D01*
X242403954Y-89933002D01*
X242402863Y-89932419D01*
X242402973Y-89932212D01*
X242350865Y-89890219D01*
X242328801Y-89823925D01*
X242346081Y-89756226D01*
X242397218Y-89708616D01*
X242452722Y-89695500D01*
X243112503Y-89695500D01*
X243112508Y-89695500D01*
X243215297Y-89684999D01*
X243381834Y-89629814D01*
X243531155Y-89537711D01*
X243655211Y-89413655D01*
X243747314Y-89264334D01*
X243777795Y-89172348D01*
X243817566Y-89114905D01*
X243882082Y-89088082D01*
X243950858Y-89100397D01*
G37*
%TD.AperFunction*%
%TA.AperFunction,Conductor*%
G36*
X240787271Y-71279741D02*
G01*
X240819071Y-71287858D01*
X240820635Y-71289538D01*
X240822837Y-71290185D01*
X240844310Y-71314966D01*
X240866682Y-71338995D01*
X240867089Y-71341255D01*
X240868592Y-71342989D01*
X240873259Y-71375452D01*
X240879088Y-71407755D01*
X240878330Y-71410720D01*
X240878536Y-71412147D01*
X240870359Y-71441952D01*
X240819183Y-71565501D01*
X240819180Y-71565513D01*
X240780383Y-71760556D01*
X240780383Y-71959443D01*
X240819180Y-72154486D01*
X240819183Y-72154498D01*
X240895285Y-72338226D01*
X240895292Y-72338239D01*
X241005778Y-72503592D01*
X241005781Y-72503596D01*
X241146403Y-72644218D01*
X241146407Y-72644221D01*
X241311760Y-72754707D01*
X241311773Y-72754714D01*
X241412507Y-72796439D01*
X241466911Y-72840280D01*
X241488976Y-72906574D01*
X241471697Y-72974273D01*
X241420560Y-73021884D01*
X241365055Y-73035000D01*
X241311504Y-73035000D01*
X241118318Y-73073427D01*
X241118306Y-73073430D01*
X240936328Y-73148807D01*
X240936315Y-73148814D01*
X240772537Y-73258248D01*
X240772533Y-73258251D01*
X240633251Y-73397533D01*
X240633248Y-73397537D01*
X240523814Y-73561315D01*
X240523807Y-73561328D01*
X240448430Y-73743307D01*
X240448430Y-73743309D01*
X240440138Y-73785000D01*
X241243012Y-73785000D01*
X241225795Y-73794940D01*
X241169940Y-73850795D01*
X241130444Y-73919204D01*
X241110000Y-73995504D01*
X241110000Y-74074496D01*
X241130444Y-74150796D01*
X241169940Y-74219205D01*
X241225795Y-74275060D01*
X241243012Y-74285000D01*
X240440138Y-74285000D01*
X240448430Y-74326690D01*
X240448430Y-74326692D01*
X240523807Y-74508671D01*
X240523814Y-74508684D01*
X240633248Y-74672462D01*
X240633251Y-74672466D01*
X240772533Y-74811748D01*
X240772537Y-74811751D01*
X240936315Y-74921185D01*
X240936328Y-74921192D01*
X241118306Y-74996569D01*
X241118318Y-74996572D01*
X241311504Y-75034999D01*
X241311508Y-75035000D01*
X241560000Y-75035000D01*
X241560000Y-74335000D01*
X242060000Y-74335000D01*
X242060000Y-75035000D01*
X242308492Y-75035000D01*
X242308495Y-75034999D01*
X242501681Y-74996572D01*
X242501693Y-74996569D01*
X242683671Y-74921192D01*
X242683684Y-74921185D01*
X242847462Y-74811751D01*
X242847466Y-74811748D01*
X242986748Y-74672466D01*
X242986751Y-74672462D01*
X243096185Y-74508684D01*
X243096192Y-74508671D01*
X243171569Y-74326692D01*
X243171569Y-74326690D01*
X243179862Y-74285000D01*
X242376988Y-74285000D01*
X242394205Y-74275060D01*
X242450060Y-74219205D01*
X242489556Y-74150796D01*
X242510000Y-74074496D01*
X242510000Y-73995504D01*
X242489556Y-73919204D01*
X242450060Y-73850795D01*
X242394205Y-73794940D01*
X242376988Y-73785000D01*
X243179862Y-73785000D01*
X243171569Y-73743309D01*
X243171569Y-73743307D01*
X243096192Y-73561328D01*
X243096185Y-73561315D01*
X242986751Y-73397537D01*
X242986748Y-73397533D01*
X242847466Y-73258251D01*
X242847462Y-73258248D01*
X242683684Y-73148814D01*
X242683671Y-73148807D01*
X242501693Y-73073430D01*
X242501681Y-73073427D01*
X242308495Y-73035000D01*
X242214945Y-73035000D01*
X242147906Y-73015315D01*
X242102151Y-72962511D01*
X242092207Y-72893353D01*
X242121232Y-72829797D01*
X242167493Y-72796439D01*
X242268226Y-72754714D01*
X242268226Y-72754713D01*
X242268233Y-72754711D01*
X242433593Y-72644221D01*
X242574221Y-72503593D01*
X242684711Y-72338233D01*
X242685221Y-72337003D01*
X242727471Y-72235000D01*
X242760818Y-72154494D01*
X242799617Y-71959439D01*
X242799617Y-71760561D01*
X242799617Y-71760558D01*
X242799616Y-71760556D01*
X242785478Y-71689478D01*
X242760818Y-71565506D01*
X242748391Y-71535505D01*
X242709641Y-71441952D01*
X242702172Y-71372483D01*
X242733447Y-71310004D01*
X242793536Y-71274352D01*
X242824202Y-71270500D01*
X243895500Y-71270500D01*
X243962539Y-71290185D01*
X244008294Y-71342989D01*
X244019500Y-71394500D01*
X244019500Y-87428645D01*
X243999815Y-87495684D01*
X243947011Y-87541439D01*
X243877853Y-87551383D01*
X243814297Y-87522358D01*
X243777794Y-87467649D01*
X243765631Y-87430943D01*
X243747314Y-87375666D01*
X243698915Y-87297200D01*
X243655213Y-87226348D01*
X243655210Y-87226344D01*
X243531155Y-87102289D01*
X243531151Y-87102286D01*
X243381837Y-87010187D01*
X243285495Y-86978262D01*
X243265461Y-86964391D01*
X243243297Y-86954269D01*
X243237248Y-86944857D01*
X243228051Y-86938489D01*
X243218697Y-86915990D01*
X243205523Y-86895491D01*
X243203064Y-86878389D01*
X243201228Y-86873973D01*
X243200500Y-86860556D01*
X243200500Y-86731277D01*
X243220185Y-86664238D01*
X243272989Y-86618483D01*
X243285499Y-86613570D01*
X243296834Y-86609814D01*
X243359300Y-86571284D01*
X243446155Y-86517711D01*
X243570211Y-86393655D01*
X243662314Y-86244334D01*
X243717499Y-86077797D01*
X243728000Y-85975008D01*
X243728000Y-84624992D01*
X243717499Y-84522203D01*
X243662314Y-84355666D01*
X243570211Y-84206345D01*
X243446155Y-84082289D01*
X243446151Y-84082286D01*
X243296837Y-83990187D01*
X243296835Y-83990186D01*
X243194630Y-83956319D01*
X243130297Y-83935001D01*
X243130295Y-83935000D01*
X243027515Y-83924500D01*
X243027508Y-83924500D01*
X242002492Y-83924500D01*
X242002480Y-83924500D01*
X241971505Y-83927665D01*
X241902812Y-83914895D01*
X241871223Y-83891988D01*
X241865916Y-83886681D01*
X241832431Y-83825358D01*
X241837415Y-83755666D01*
X241879287Y-83699733D01*
X241944751Y-83675316D01*
X241953597Y-83675000D01*
X242308492Y-83675000D01*
X242308495Y-83674999D01*
X242501681Y-83636572D01*
X242501693Y-83636569D01*
X242683671Y-83561192D01*
X242683684Y-83561185D01*
X242847462Y-83451751D01*
X242847466Y-83451748D01*
X242986748Y-83312466D01*
X242986751Y-83312462D01*
X243096185Y-83148684D01*
X243096192Y-83148671D01*
X243171569Y-82966692D01*
X243171569Y-82966690D01*
X243179862Y-82925000D01*
X242376988Y-82925000D01*
X242394205Y-82915060D01*
X242450060Y-82859205D01*
X242489556Y-82790796D01*
X242510000Y-82714496D01*
X242510000Y-82635504D01*
X242489556Y-82559204D01*
X242450060Y-82490795D01*
X242394205Y-82434940D01*
X242376988Y-82425000D01*
X243179862Y-82425000D01*
X243171569Y-82383309D01*
X243171569Y-82383307D01*
X243096192Y-82201328D01*
X243096185Y-82201315D01*
X242986751Y-82037537D01*
X242986748Y-82037533D01*
X242847466Y-81898251D01*
X242847462Y-81898248D01*
X242683684Y-81788814D01*
X242683671Y-81788807D01*
X242501693Y-81713430D01*
X242501681Y-81713427D01*
X242308495Y-81675000D01*
X242060000Y-81675000D01*
X242060000Y-82375000D01*
X241560000Y-82375000D01*
X241560000Y-81675000D01*
X241311504Y-81675000D01*
X241118318Y-81713427D01*
X241118306Y-81713430D01*
X240936328Y-81788807D01*
X240936315Y-81788814D01*
X240772537Y-81898248D01*
X240772533Y-81898251D01*
X240732181Y-81938604D01*
X240670858Y-81972089D01*
X240601166Y-81967105D01*
X240545233Y-81925233D01*
X240520816Y-81859769D01*
X240520500Y-81850923D01*
X240520500Y-81620943D01*
X240519681Y-81617884D01*
X240514451Y-81598365D01*
X240479577Y-81468215D01*
X240448623Y-81414602D01*
X240448623Y-81414601D01*
X240400522Y-81331287D01*
X240400521Y-81331286D01*
X240400520Y-81331284D01*
X240288716Y-81219480D01*
X240288715Y-81219479D01*
X240284385Y-81215149D01*
X240284374Y-81215139D01*
X238917889Y-79848654D01*
X238910521Y-79841286D01*
X238910520Y-79841284D01*
X238798716Y-79729480D01*
X238795550Y-79727652D01*
X238787302Y-79719494D01*
X238774004Y-79695456D01*
X238757807Y-79673269D01*
X238756003Y-79662915D01*
X238753480Y-79658355D01*
X238753954Y-79651160D01*
X238750500Y-79631332D01*
X238750500Y-76410943D01*
X238750499Y-76410939D01*
X238739664Y-76370501D01*
X238739664Y-76370500D01*
X238709577Y-76258215D01*
X238680336Y-76207569D01*
X238630520Y-76121284D01*
X238541430Y-76032194D01*
X238536796Y-76026277D01*
X238526541Y-76000514D01*
X238513254Y-75976178D01*
X238513802Y-75968506D01*
X238510958Y-75961360D01*
X238516259Y-75934145D01*
X238518238Y-75906487D01*
X238523132Y-75898871D01*
X238524319Y-75892780D01*
X238532620Y-75884108D01*
X238546738Y-75862141D01*
X238590515Y-75818365D01*
X238666281Y-75687135D01*
X238705500Y-75540766D01*
X238705500Y-75389234D01*
X238666281Y-75242865D01*
X238590515Y-75111635D01*
X238590513Y-75111633D01*
X238586451Y-75104597D01*
X238588654Y-75103325D01*
X238568041Y-75050022D01*
X238582073Y-74981576D01*
X238630882Y-74931582D01*
X238644163Y-74925129D01*
X238653682Y-74921186D01*
X238653684Y-74921185D01*
X238817462Y-74811751D01*
X238817466Y-74811748D01*
X238956748Y-74672466D01*
X238956751Y-74672462D01*
X239066185Y-74508684D01*
X239066192Y-74508671D01*
X239141569Y-74326692D01*
X239141569Y-74326690D01*
X239149862Y-74285000D01*
X238346988Y-74285000D01*
X238364205Y-74275060D01*
X238420060Y-74219205D01*
X238459556Y-74150796D01*
X238480000Y-74074496D01*
X238480000Y-73995504D01*
X238459556Y-73919204D01*
X238420060Y-73850795D01*
X238364205Y-73794940D01*
X238346988Y-73785000D01*
X239149862Y-73785000D01*
X239141569Y-73743309D01*
X239141569Y-73743307D01*
X239066192Y-73561328D01*
X239066185Y-73561315D01*
X238956751Y-73397537D01*
X238956748Y-73397533D01*
X238817466Y-73258251D01*
X238817462Y-73258248D01*
X238653684Y-73148814D01*
X238653671Y-73148807D01*
X238471693Y-73073430D01*
X238471681Y-73073427D01*
X238278495Y-73035000D01*
X237880000Y-73035000D01*
X237880000Y-73735000D01*
X237380000Y-73735000D01*
X237380000Y-73035000D01*
X236981504Y-73035000D01*
X236788318Y-73073427D01*
X236788306Y-73073430D01*
X236606328Y-73148807D01*
X236606315Y-73148814D01*
X236442537Y-73258248D01*
X236442533Y-73258251D01*
X236303251Y-73397533D01*
X236303248Y-73397537D01*
X236193814Y-73561315D01*
X236193807Y-73561328D01*
X236118430Y-73743307D01*
X236118430Y-73743309D01*
X236110138Y-73785000D01*
X236913012Y-73785000D01*
X236895795Y-73794940D01*
X236839940Y-73850795D01*
X236800444Y-73919204D01*
X236780000Y-73995504D01*
X236780000Y-74074496D01*
X236800444Y-74150796D01*
X236839940Y-74219205D01*
X236895795Y-74275060D01*
X236913012Y-74285000D01*
X236110136Y-74285000D01*
X236103967Y-74292516D01*
X236103325Y-74299681D01*
X236100910Y-74333465D01*
X236100219Y-74334387D01*
X236100117Y-74335533D01*
X236079341Y-74362276D01*
X236059038Y-74389398D01*
X236057959Y-74389800D01*
X236057253Y-74390710D01*
X236025307Y-74401978D01*
X235993574Y-74413815D01*
X235992448Y-74413570D01*
X235991363Y-74413953D01*
X235958411Y-74406165D01*
X235925301Y-74398963D01*
X235924086Y-74398054D01*
X235923367Y-74397884D01*
X235897047Y-74377812D01*
X235777590Y-74258355D01*
X235777588Y-74258352D01*
X235658717Y-74139481D01*
X235658712Y-74139477D01*
X235555681Y-74079993D01*
X235555680Y-74079992D01*
X235521790Y-74060425D01*
X235521789Y-74060424D01*
X235500326Y-74054673D01*
X235369057Y-74019499D01*
X235369055Y-74019499D01*
X235361206Y-74017396D01*
X235361735Y-74015421D01*
X235307859Y-73991583D01*
X235269392Y-73933256D01*
X235268566Y-73863391D01*
X235305643Y-73804170D01*
X235348944Y-73779210D01*
X235454119Y-73744358D01*
X235454124Y-73744356D01*
X235505298Y-73712792D01*
X235603345Y-73652315D01*
X235727315Y-73528345D01*
X235819356Y-73379124D01*
X235819358Y-73379119D01*
X235874505Y-73212697D01*
X235874506Y-73212690D01*
X235884999Y-73109986D01*
X235885000Y-73109973D01*
X235885000Y-72910000D01*
X234634000Y-72910000D01*
X234566961Y-72890315D01*
X234521206Y-72837511D01*
X234510000Y-72786000D01*
X234510000Y-72534000D01*
X234529685Y-72466961D01*
X234582489Y-72421206D01*
X234634000Y-72410000D01*
X235884999Y-72410000D01*
X235884999Y-72210028D01*
X235884998Y-72210013D01*
X235874505Y-72107302D01*
X235819358Y-71940880D01*
X235819356Y-71940875D01*
X235727315Y-71791654D01*
X235603345Y-71667684D01*
X235454124Y-71575643D01*
X235454119Y-71575641D01*
X235287697Y-71520494D01*
X235287690Y-71520493D01*
X235261895Y-71517858D01*
X235197204Y-71491462D01*
X235157052Y-71434281D01*
X235154189Y-71364470D01*
X235189523Y-71304193D01*
X235251836Y-71272588D01*
X235274498Y-71270500D01*
X240755798Y-71270500D01*
X240787271Y-71279741D01*
G37*
%TD.AperFunction*%
%TA.AperFunction,Conductor*%
G36*
X234623039Y-77769685D02*
G01*
X234668794Y-77822489D01*
X234680000Y-77874000D01*
X234680000Y-78899999D01*
X235104972Y-78899999D01*
X235104986Y-78899998D01*
X235207697Y-78889505D01*
X235374119Y-78834358D01*
X235374124Y-78834356D01*
X235523345Y-78742315D01*
X235647315Y-78618345D01*
X235739356Y-78469124D01*
X235742408Y-78462579D01*
X235744815Y-78463701D01*
X235777561Y-78416400D01*
X235842076Y-78389573D01*
X235910852Y-78401884D01*
X235962055Y-78449424D01*
X235979500Y-78512844D01*
X235979500Y-78717720D01*
X235990677Y-78802621D01*
X235995374Y-78838292D01*
X235993659Y-78838517D01*
X235995989Y-78867029D01*
X235994881Y-78878391D01*
X235994313Y-78879764D01*
X235979500Y-78992280D01*
X235979500Y-79036196D01*
X235978915Y-79042198D01*
X235968027Y-79069241D01*
X235959815Y-79097208D01*
X235954394Y-79103102D01*
X235952820Y-79107012D01*
X235947007Y-79111133D01*
X235940982Y-79117684D01*
X235942031Y-79118733D01*
X235429481Y-79631282D01*
X235429479Y-79631285D01*
X235406236Y-79671543D01*
X235355668Y-79719758D01*
X235287061Y-79732980D01*
X235259846Y-79727248D01*
X235207801Y-79710002D01*
X235207798Y-79710001D01*
X235207797Y-79710001D01*
X235207793Y-79710000D01*
X235207790Y-79710000D01*
X235105010Y-79699500D01*
X233754998Y-79699500D01*
X233754981Y-79699501D01*
X233652203Y-79710000D01*
X233652200Y-79710001D01*
X233485668Y-79765185D01*
X233485663Y-79765187D01*
X233336342Y-79857289D01*
X233212289Y-79981342D01*
X233120187Y-80130663D01*
X233120186Y-80130666D01*
X233065001Y-80297203D01*
X233065001Y-80297204D01*
X233065000Y-80297204D01*
X233054500Y-80399983D01*
X233054500Y-81300001D01*
X233054501Y-81300019D01*
X233065000Y-81402796D01*
X233065001Y-81402799D01*
X233115602Y-81555500D01*
X233120186Y-81569334D01*
X233212288Y-81718656D01*
X233336344Y-81842712D01*
X233485666Y-81934814D01*
X233652203Y-81989999D01*
X233754991Y-82000500D01*
X234131945Y-82000499D01*
X234193943Y-82017111D01*
X234198210Y-82019574D01*
X234198211Y-82019574D01*
X234198216Y-82019577D01*
X234350943Y-82060500D01*
X235033331Y-82060500D01*
X235033347Y-82060501D01*
X235040943Y-82060501D01*
X235199054Y-82060501D01*
X235199057Y-82060501D01*
X235351785Y-82019577D01*
X235403015Y-81989999D01*
X235488716Y-81940520D01*
X235600520Y-81828716D01*
X235600520Y-81828714D01*
X235610723Y-81818512D01*
X235610727Y-81818506D01*
X235624232Y-81805001D01*
X235982704Y-81805001D01*
X235982899Y-81807486D01*
X236028718Y-81965198D01*
X236112314Y-82106552D01*
X236112321Y-82106561D01*
X236139111Y-82133351D01*
X236172596Y-82194674D01*
X236167612Y-82264366D01*
X236165991Y-82268484D01*
X236118430Y-82383307D01*
X236118430Y-82383309D01*
X236110138Y-82425000D01*
X236805000Y-82425000D01*
X236805000Y-81805000D01*
X235982705Y-81805000D01*
X235982704Y-81805001D01*
X235624232Y-81805001D01*
X236029464Y-81399769D01*
X236090785Y-81366286D01*
X236160477Y-81371270D01*
X236204824Y-81399771D01*
X236228129Y-81423076D01*
X236228133Y-81423079D01*
X236228135Y-81423081D01*
X236369602Y-81506744D01*
X236411224Y-81518836D01*
X236527426Y-81552597D01*
X236527429Y-81552597D01*
X236527431Y-81552598D01*
X236564306Y-81555500D01*
X236564314Y-81555500D01*
X237181000Y-81555500D01*
X237248039Y-81575185D01*
X237293794Y-81627989D01*
X237305000Y-81679500D01*
X237305000Y-82375000D01*
X237040504Y-82375000D01*
X236964204Y-82395444D01*
X236895795Y-82434940D01*
X236839940Y-82490795D01*
X236800444Y-82559204D01*
X236780000Y-82635504D01*
X236780000Y-82714496D01*
X236800444Y-82790796D01*
X236839940Y-82859205D01*
X236895795Y-82915060D01*
X236913012Y-82925000D01*
X236110138Y-82925000D01*
X236118430Y-82966690D01*
X236118430Y-82966692D01*
X236193807Y-83148671D01*
X236193814Y-83148684D01*
X236303248Y-83312462D01*
X236303251Y-83312466D01*
X236442533Y-83451748D01*
X236442537Y-83451751D01*
X236606315Y-83561185D01*
X236606328Y-83561192D01*
X236788306Y-83636569D01*
X236788318Y-83636572D01*
X236981504Y-83674999D01*
X236981508Y-83675000D01*
X237380000Y-83675000D01*
X237380000Y-82975000D01*
X237880000Y-82975000D01*
X237880000Y-83675000D01*
X238278492Y-83675000D01*
X238278495Y-83674999D01*
X238471681Y-83636572D01*
X238471693Y-83636569D01*
X238653671Y-83561192D01*
X238653684Y-83561185D01*
X238817462Y-83451751D01*
X238817466Y-83451748D01*
X238956748Y-83312466D01*
X238956751Y-83312462D01*
X239066185Y-83148684D01*
X239066192Y-83148671D01*
X239125704Y-83004995D01*
X239169544Y-82950591D01*
X239235838Y-82928526D01*
X239303538Y-82945805D01*
X239350728Y-82996109D01*
X239356659Y-83007738D01*
X239360423Y-83021785D01*
X239387960Y-83069480D01*
X239439479Y-83158714D01*
X239439481Y-83158717D01*
X239558349Y-83277585D01*
X239558355Y-83277590D01*
X239993584Y-83712819D01*
X240027069Y-83774142D01*
X240022085Y-83843834D01*
X239980213Y-83899767D01*
X239914749Y-83924184D01*
X239905903Y-83924500D01*
X239027484Y-83924500D01*
X238924704Y-83935000D01*
X238924703Y-83935001D01*
X238758164Y-83990186D01*
X238758162Y-83990187D01*
X238608848Y-84082286D01*
X238608844Y-84082289D01*
X238484789Y-84206344D01*
X238484786Y-84206348D01*
X238392687Y-84355662D01*
X238392686Y-84355664D01*
X238337501Y-84522203D01*
X238337500Y-84522205D01*
X238330769Y-84588102D01*
X238304373Y-84652794D01*
X238247193Y-84692945D01*
X238207411Y-84699500D01*
X237226003Y-84699500D01*
X237158964Y-84679815D01*
X237113209Y-84627011D01*
X237102645Y-84588103D01*
X237100086Y-84563059D01*
X237099999Y-84562203D01*
X237044814Y-84395666D01*
X236952712Y-84246344D01*
X236828656Y-84122288D01*
X236721087Y-84055939D01*
X236679336Y-84030187D01*
X236679331Y-84030185D01*
X236623423Y-84011659D01*
X236512797Y-83975001D01*
X236512795Y-83975000D01*
X236410010Y-83964500D01*
X235509998Y-83964500D01*
X235509980Y-83964501D01*
X235407203Y-83975000D01*
X235407200Y-83975001D01*
X235240668Y-84030185D01*
X235240659Y-84030189D01*
X235099596Y-84117198D01*
X235032204Y-84135638D01*
X234965541Y-84114715D01*
X234920771Y-84061073D01*
X234910500Y-84011659D01*
X234910500Y-83639059D01*
X234910501Y-83639046D01*
X234910501Y-83470945D01*
X234910501Y-83470943D01*
X234869577Y-83318215D01*
X234830737Y-83250943D01*
X234830737Y-83250942D01*
X234790522Y-83181287D01*
X234790521Y-83181286D01*
X234790520Y-83181284D01*
X234678716Y-83069480D01*
X234678715Y-83069479D01*
X234674385Y-83065149D01*
X234674374Y-83065139D01*
X234577590Y-82968355D01*
X234577588Y-82968352D01*
X234458717Y-82849481D01*
X234458709Y-82849475D01*
X234354795Y-82789481D01*
X234354794Y-82789480D01*
X234354794Y-82789481D01*
X234321785Y-82770423D01*
X234169057Y-82729499D01*
X234010943Y-82729499D01*
X234003347Y-82729499D01*
X234003331Y-82729500D01*
X232778615Y-82729500D01*
X232711576Y-82709815D01*
X232665821Y-82657011D01*
X232660909Y-82644505D01*
X232658325Y-82636706D01*
X232629814Y-82550666D01*
X232537712Y-82401344D01*
X232413656Y-82277288D01*
X232290500Y-82201325D01*
X232264336Y-82185187D01*
X232264331Y-82185185D01*
X232262862Y-82184698D01*
X232097797Y-82130001D01*
X232097795Y-82130000D01*
X231995016Y-82119500D01*
X231995009Y-82119500D01*
X230864500Y-82119500D01*
X230797461Y-82099815D01*
X230751706Y-82047011D01*
X230740500Y-81995500D01*
X230740500Y-81444499D01*
X230760185Y-81377460D01*
X230812989Y-81331705D01*
X230864500Y-81320499D01*
X231995002Y-81320499D01*
X231995008Y-81320499D01*
X232097797Y-81309999D01*
X232264334Y-81254814D01*
X232413656Y-81162712D01*
X232537712Y-81038656D01*
X232629814Y-80889334D01*
X232684999Y-80722797D01*
X232695500Y-80620009D01*
X232695499Y-79719992D01*
X232694478Y-79710001D01*
X232684999Y-79617203D01*
X232684998Y-79617200D01*
X232629814Y-79450666D01*
X232537712Y-79301344D01*
X232413656Y-79177288D01*
X232264334Y-79085186D01*
X232097797Y-79030001D01*
X232097795Y-79030000D01*
X231995010Y-79019500D01*
X230644998Y-79019500D01*
X230644981Y-79019501D01*
X230542203Y-79030000D01*
X230542200Y-79030001D01*
X230375668Y-79085185D01*
X230375663Y-79085187D01*
X230226342Y-79177289D01*
X230102289Y-79301342D01*
X230010187Y-79450663D01*
X230010185Y-79450668D01*
X229955001Y-79617201D01*
X229955000Y-79617207D01*
X229952820Y-79638545D01*
X229943523Y-79661325D01*
X229938294Y-79685366D01*
X229928223Y-79698817D01*
X229926421Y-79703236D01*
X229917143Y-79713620D01*
X229890458Y-79740305D01*
X229829135Y-79773790D01*
X229759443Y-79768806D01*
X229703510Y-79726934D01*
X229679093Y-79661470D01*
X229683701Y-79618028D01*
X229707099Y-79537491D01*
X229707100Y-79537488D01*
X229707295Y-79535001D01*
X229707295Y-79535000D01*
X228359000Y-79535000D01*
X228291961Y-79515315D01*
X228246206Y-79462511D01*
X228235000Y-79411000D01*
X228235000Y-79159000D01*
X228254685Y-79091961D01*
X228307489Y-79046206D01*
X228359000Y-79035000D01*
X229707295Y-79035000D01*
X229707295Y-79034998D01*
X229707100Y-79032513D01*
X229661281Y-78874801D01*
X229618594Y-78802621D01*
X229601411Y-78734897D01*
X229623571Y-78668635D01*
X229678037Y-78624871D01*
X229725326Y-78615500D01*
X232338331Y-78615500D01*
X232338347Y-78615501D01*
X232345943Y-78615501D01*
X232504054Y-78615501D01*
X232504057Y-78615501D01*
X232656785Y-78574577D01*
X232706904Y-78545639D01*
X232793716Y-78495520D01*
X232903691Y-78385544D01*
X232965012Y-78352060D01*
X233034704Y-78357044D01*
X233090637Y-78398915D01*
X233109076Y-78434220D01*
X233120640Y-78469115D01*
X233120643Y-78469124D01*
X233212684Y-78618345D01*
X233336654Y-78742315D01*
X233485875Y-78834356D01*
X233485880Y-78834358D01*
X233652302Y-78889505D01*
X233652309Y-78889506D01*
X233755019Y-78899999D01*
X234179999Y-78899999D01*
X234180000Y-78899998D01*
X234180000Y-77874000D01*
X234199685Y-77806961D01*
X234252489Y-77761206D01*
X234304000Y-77750000D01*
X234556000Y-77750000D01*
X234623039Y-77769685D01*
G37*
%TD.AperFunction*%
%TA.AperFunction,Conductor*%
G36*
X233228665Y-73474826D02*
G01*
X233284744Y-73516503D01*
X233291273Y-73526058D01*
X233292683Y-73528344D01*
X233416654Y-73652315D01*
X233565875Y-73744356D01*
X233565880Y-73744358D01*
X233666783Y-73777794D01*
X233724228Y-73817566D01*
X233751051Y-73882082D01*
X233738736Y-73950858D01*
X233691193Y-74002058D01*
X233627779Y-74019500D01*
X233429057Y-74019500D01*
X233270943Y-74019500D01*
X233118215Y-74060423D01*
X233118214Y-74060423D01*
X233118212Y-74060424D01*
X233118209Y-74060425D01*
X233084322Y-74079990D01*
X233084319Y-74079993D01*
X233071284Y-74087519D01*
X233029438Y-74111678D01*
X232961537Y-74128149D01*
X232918566Y-74113276D01*
X232918715Y-74114468D01*
X232926065Y-74134171D01*
X232922960Y-74148444D01*
X232924771Y-74162936D01*
X232915684Y-74181896D01*
X232911215Y-74202444D01*
X232896266Y-74222412D01*
X232894575Y-74225943D01*
X232890064Y-74230699D01*
X232869482Y-74251282D01*
X232869480Y-74251284D01*
X232709481Y-74411282D01*
X232709477Y-74411287D01*
X232663489Y-74490943D01*
X232630423Y-74548215D01*
X232589499Y-74700943D01*
X232589499Y-74700945D01*
X232589499Y-74844602D01*
X232569814Y-74911641D01*
X232517010Y-74957396D01*
X232452897Y-74967960D01*
X232374988Y-74960000D01*
X231950000Y-74960000D01*
X231950000Y-75986000D01*
X231930315Y-76053039D01*
X231877511Y-76098794D01*
X231826000Y-76110000D01*
X231700000Y-76110000D01*
X231700000Y-76236000D01*
X231680315Y-76303039D01*
X231627511Y-76348794D01*
X231576000Y-76360000D01*
X230325001Y-76360000D01*
X230325001Y-76559986D01*
X230335494Y-76662697D01*
X230390641Y-76829119D01*
X230390643Y-76829124D01*
X230482684Y-76978345D01*
X230606654Y-77102315D01*
X230740644Y-77184961D01*
X230787368Y-77236909D01*
X230798591Y-77305872D01*
X230770747Y-77369954D01*
X230712678Y-77408810D01*
X230675547Y-77414500D01*
X229580808Y-77414500D01*
X229513769Y-77394815D01*
X229493126Y-77378180D01*
X229461870Y-77346923D01*
X229461862Y-77346917D01*
X229383681Y-77300681D01*
X229320398Y-77263256D01*
X229320397Y-77263255D01*
X229320396Y-77263255D01*
X229320393Y-77263254D01*
X229162573Y-77217402D01*
X229162567Y-77217401D01*
X229125701Y-77214500D01*
X229125694Y-77214500D01*
X228959500Y-77214500D01*
X228892461Y-77194815D01*
X228846706Y-77142011D01*
X228835500Y-77090500D01*
X228835500Y-75939500D01*
X228855185Y-75872461D01*
X228907989Y-75826706D01*
X228959500Y-75815500D01*
X229707503Y-75815500D01*
X229707508Y-75815500D01*
X229810297Y-75804999D01*
X229976834Y-75749814D01*
X230023119Y-75721265D01*
X230132302Y-75653920D01*
X230133345Y-75655612D01*
X230188872Y-75633205D01*
X230257515Y-75646238D01*
X230308215Y-75694313D01*
X230325000Y-75756610D01*
X230325000Y-75860000D01*
X231450000Y-75860000D01*
X231450000Y-74960000D01*
X231025028Y-74960000D01*
X231025012Y-74960001D01*
X230922302Y-74970494D01*
X230755880Y-75025641D01*
X230755875Y-75025643D01*
X230600509Y-75121475D01*
X230599431Y-75119727D01*
X230544094Y-75142042D01*
X230475454Y-75128990D01*
X230424768Y-75080900D01*
X230408000Y-75018633D01*
X230408000Y-74102007D01*
X230412254Y-74087519D01*
X230411578Y-74072434D01*
X230421898Y-74054673D01*
X230427685Y-74034968D01*
X230439095Y-74025080D01*
X230446683Y-74012024D01*
X230464967Y-74002662D01*
X230480489Y-73989213D01*
X230495432Y-73987064D01*
X230508875Y-73980182D01*
X230529317Y-73982192D01*
X230549647Y-73979269D01*
X230564491Y-73985650D01*
X230578410Y-73987019D01*
X230599851Y-73999479D01*
X230600197Y-73998920D01*
X230606342Y-74002710D01*
X230606344Y-74002712D01*
X230755666Y-74094814D01*
X230922203Y-74149999D01*
X231024991Y-74160500D01*
X232375008Y-74160499D01*
X232477797Y-74149999D01*
X232644334Y-74094814D01*
X232737284Y-74037481D01*
X232757563Y-74031932D01*
X232776020Y-74021854D01*
X232790589Y-74022895D01*
X232804676Y-74019041D01*
X232824738Y-74025337D01*
X232845712Y-74026837D01*
X232850409Y-74030353D01*
X232845680Y-73980821D01*
X232877697Y-73918719D01*
X232879716Y-73916651D01*
X232917712Y-73878656D01*
X233009814Y-73729334D01*
X233064999Y-73562797D01*
X233064999Y-73562795D01*
X233067128Y-73556371D01*
X233068945Y-73556973D01*
X233097750Y-73503782D01*
X233158957Y-73470084D01*
X233228665Y-73474826D01*
G37*
%TD.AperFunction*%
%TD*%
M02*
