%TF.GenerationSoftware,KiCad,Pcbnew,9.0.7*%
%TF.CreationDate,2026-09-03T01:12:00+05:45*%
%TF.ProjectId,Powerbank_Module,506f7765-7262-4616-9e6b-5f4d6f64756c,rev?*%
%TF.SameCoordinates,Original*%
%TF.FileFunction,Paste,Top*%
%TF.FilePolarity,Positive*%
%FSLAX46Y46*%
G04 Gerber Fmt 4.6, Leading zero omitted, Abs format (unit mm)*
G04 Created by KiCad (PCBNEW 9.0.7) date 2026-09-03 01:12:00*
%MOMM*%
%LPD*%
G01*
G04 APERTURE LIST*
G04 Aperture macros list*
%AMRoundRect*
0 Rectangle with rounded corners*
0 $1 Rounding radius*
0 $2 $3 $4 $5 $6 $7 $8 $9 X,Y pos of 4 corners*
0 Add a 4 corners polygon primitive as box body*
4,1,4,$2,$3,$4,$5,$6,$7,$8,$9,$2,$3,0*
0 Add four circle primitives for the rounded corners*
1,1,$1+$1,$2,$3*
1,1,$1+$1,$4,$5*
1,1,$1+$1,$6,$7*
1,1,$1+$1,$8,$9*
0 Add four rect primitives between the rounded corners*
20,1,$1+$1,$2,$3,$4,$5,0*
20,1,$1+$1,$4,$5,$6,$7,0*
20,1,$1+$1,$6,$7,$8,$9,0*
20,1,$1+$1,$8,$9,$2,$3,0*%
G04 Aperture macros list end*
%ADD10RoundRect,0.250000X-0.400000X-0.625000X0.400000X-0.625000X0.400000X0.625000X-0.400000X0.625000X0*%
%ADD11RoundRect,0.250001X0.872499X1.044999X-0.872499X1.044999X-0.872499X-1.044999X0.872499X-1.044999X0*%
%ADD12RoundRect,0.250000X0.625000X-0.400000X0.625000X0.400000X-0.625000X0.400000X-0.625000X-0.400000X0*%
%ADD13RoundRect,0.250000X-0.625000X0.400000X-0.625000X-0.400000X0.625000X-0.400000X0.625000X0.400000X0*%
%ADD14RoundRect,0.250000X0.400000X0.625000X-0.400000X0.625000X-0.400000X-0.625000X0.400000X-0.625000X0*%
%ADD15RoundRect,0.250001X-0.462499X-0.624999X0.462499X-0.624999X0.462499X0.624999X-0.462499X0.624999X0*%
%ADD16RoundRect,0.250001X-1.044999X0.872499X-1.044999X-0.872499X1.044999X-0.872499X1.044999X0.872499X0*%
%ADD17RoundRect,0.150000X0.425000X-0.150000X0.425000X0.150000X-0.425000X0.150000X-0.425000X-0.150000X0*%
%ADD18RoundRect,0.075000X0.500000X-0.075000X0.500000X0.075000X-0.500000X0.075000X-0.500000X-0.075000X0*%
%ADD19O,2.100000X1.000000*%
%ADD20O,1.800000X1.000000*%
%ADD21RoundRect,0.250000X0.255000X0.440000X-0.255000X0.440000X-0.255000X-0.440000X0.255000X-0.440000X0*%
%ADD22RoundRect,0.150000X0.825000X0.150000X-0.825000X0.150000X-0.825000X-0.150000X0.825000X-0.150000X0*%
G04 APERTURE END LIST*
D10*
%TO.C,R3*%
X232860000Y-85340000D03*
X235960000Y-85340000D03*
%TD*%
D11*
%TO.C,C2*%
X228785000Y-74020000D03*
X222370000Y-74020000D03*
%TD*%
D12*
%TO.C,R1*%
X234510000Y-75760000D03*
X234510000Y-72660000D03*
%TD*%
D13*
%TO.C,R4*%
X231320000Y-80170000D03*
X231320000Y-83270000D03*
%TD*%
D14*
%TO.C,R7*%
X236220000Y-88600000D03*
X233120000Y-88600000D03*
%TD*%
D12*
%TO.C,R2*%
X234430000Y-80850000D03*
X234430000Y-77750000D03*
%TD*%
D15*
%TO.C,D2*%
X239625000Y-88320000D03*
X242600000Y-88320000D03*
%TD*%
D16*
%TO.C,C1*%
X217030000Y-78202500D03*
X217030000Y-84617500D03*
%TD*%
D12*
%TO.C,R6*%
X228010000Y-90950000D03*
X228010000Y-87850000D03*
%TD*%
D10*
%TO.C,R5*%
X224030000Y-84880000D03*
X227130000Y-84880000D03*
%TD*%
D17*
%TO.C,J3*%
X237055000Y-81555000D03*
X237055000Y-80755000D03*
D18*
X237055000Y-79605000D03*
X237055000Y-78605000D03*
X237055000Y-78105000D03*
X237055000Y-77105000D03*
D17*
X237055000Y-75955000D03*
X237055000Y-75155000D03*
X237055000Y-75155000D03*
X237055000Y-75955000D03*
D18*
X237055000Y-76605000D03*
X237055000Y-77605000D03*
X237055000Y-79105000D03*
X237055000Y-80105000D03*
D17*
X237055000Y-80755000D03*
X237055000Y-81555000D03*
D19*
X237630000Y-82675000D03*
D20*
X241810000Y-82675000D03*
D19*
X237630000Y-74035000D03*
D20*
X241810000Y-74035000D03*
%TD*%
D15*
%TO.C,D1*%
X239540000Y-85300000D03*
X242515000Y-85300000D03*
%TD*%
D12*
%TO.C,R8*%
X231700000Y-76110000D03*
X231700000Y-73010000D03*
%TD*%
D21*
%TO.C,TP1*%
X226360000Y-80745000D03*
X226360000Y-79095000D03*
X225160000Y-80745000D03*
X225160000Y-79095000D03*
D22*
X228235000Y-81825000D03*
X228235000Y-80555000D03*
X228235000Y-79285000D03*
X228235000Y-78015000D03*
X223285000Y-78015000D03*
X223285000Y-79285000D03*
X223285000Y-80555000D03*
X223285000Y-81825000D03*
%TD*%
M02*
