%TF.GenerationSoftware,KiCad,Pcbnew,9.0.7*%
%TF.CreationDate,2026-09-03T00:49:35+05:45*%
%TF.ProjectId,Project-2,50726f6a-6563-4742-9d32-2e6b69636164,rev?*%
%TF.SameCoordinates,Original*%
%TF.FileFunction,Legend,Top*%
%TF.FilePolarity,Positive*%
%FSLAX46Y46*%
G04 Gerber Fmt 4.6, Leading zero omitted, Abs format (unit mm)*
G04 Created by KiCad (PCBNEW 9.0.7) date 2026-09-03 00:49:35*
%MOMM*%
%LPD*%
G01*
G04 APERTURE LIST*
%ADD10C,0.150000*%
%ADD11C,0.120000*%
G04 APERTURE END LIST*
D10*
X141886666Y-72194819D02*
X141886666Y-72909104D01*
X141886666Y-72909104D02*
X141839047Y-73051961D01*
X141839047Y-73051961D02*
X141743809Y-73147200D01*
X141743809Y-73147200D02*
X141600952Y-73194819D01*
X141600952Y-73194819D02*
X141505714Y-73194819D01*
X142886666Y-73194819D02*
X142315238Y-73194819D01*
X142600952Y-73194819D02*
X142600952Y-72194819D01*
X142600952Y-72194819D02*
X142505714Y-72337676D01*
X142505714Y-72337676D02*
X142410476Y-72432914D01*
X142410476Y-72432914D02*
X142315238Y-72480533D01*
D11*
%TO.C,J1*%
X138120000Y-73740000D02*
X139120000Y-73740000D01*
X138120000Y-74740000D02*
X138120000Y-73740000D01*
X140036856Y-76380000D02*
X140510000Y-76380000D01*
X140036856Y-77100000D02*
X140510000Y-77100000D01*
X140036856Y-78380000D02*
X140510000Y-78380000D01*
X140036856Y-79100000D02*
X140510000Y-79100000D01*
X140105000Y-74380000D02*
X140510000Y-74380000D01*
X140105000Y-75100000D02*
X140510000Y-75100000D01*
X140510000Y-75740000D02*
X142230000Y-75740000D01*
X140510000Y-77740000D02*
X142230000Y-77740000D01*
X142230000Y-76380000D02*
X146430000Y-76380000D01*
X142230000Y-78380000D02*
X146430000Y-78380000D01*
X146430000Y-76380000D02*
X146430000Y-77100000D01*
X146430000Y-77100000D02*
X142230000Y-77100000D01*
X146430000Y-78380000D02*
X146430000Y-79100000D01*
X146430000Y-79100000D02*
X142230000Y-79100000D01*
X140510000Y-73630000D02*
X142230000Y-73630000D01*
X142230000Y-79850000D01*
X140510000Y-79850000D01*
X140510000Y-73630000D01*
X142230000Y-74380000D02*
X146430000Y-74380000D01*
X146430000Y-75100000D01*
X142230000Y-75100000D01*
X142230000Y-74380000D01*
G36*
X142230000Y-74380000D02*
G01*
X146430000Y-74380000D01*
X146430000Y-75100000D01*
X142230000Y-75100000D01*
X142230000Y-74380000D01*
G37*
%TO.C,D1*%
X111190000Y-71450000D02*
X107330000Y-71450000D01*
X111190000Y-71450000D02*
X111190000Y-74570000D01*
X111190000Y-74570000D02*
X107330000Y-74570000D01*
X111190000Y-74570000D02*
X110070000Y-74570000D01*
X110070000Y-74970000D01*
X111190000Y-74970000D01*
X111190000Y-74570000D01*
X111320000Y-71740000D02*
X111190000Y-71740000D01*
X111320000Y-71740000D01*
X111320000Y-74280000D02*
X111190000Y-74280000D01*
X111320000Y-74280000D01*
X107330000Y-74570000D02*
G75*
G02*
X107330000Y-71450000I0J1560000D01*
G01*
%TO.C,R1*%
X116442936Y-71172500D02*
X117897064Y-71172500D01*
X116442936Y-72992500D02*
X117897064Y-72992500D01*
%TO.C,D2*%
X111190000Y-77460000D02*
X107330000Y-77460000D01*
X111190000Y-77460000D02*
X111190000Y-80580000D01*
X111190000Y-80580000D02*
X107330000Y-80580000D01*
X111190000Y-80580000D02*
X110070000Y-80580000D01*
X110070000Y-80980000D01*
X111190000Y-80980000D01*
X111190000Y-80580000D01*
X111320000Y-77750000D02*
X111190000Y-77750000D01*
X111320000Y-77750000D01*
X111320000Y-80290000D02*
X111190000Y-80290000D01*
X111320000Y-80290000D01*
X107330000Y-80580000D02*
G75*
G02*
X107330000Y-77460000I0J1560000D01*
G01*
%TO.C,R2*%
X133952936Y-70860000D02*
X135407064Y-70860000D01*
X133952936Y-72680000D02*
X135407064Y-72680000D01*
%TO.C,RV1*%
X132160000Y-74235000D02*
X134393000Y-74235000D01*
X132160000Y-81165000D02*
X132160000Y-74235000D01*
X134393000Y-81165000D02*
X132160000Y-81165000D01*
X134827000Y-74235000D02*
X136880000Y-74235000D01*
X136880000Y-74235000D02*
X136880000Y-81165000D01*
X136880000Y-81165000D02*
X134827000Y-81165000D01*
%TO.C,D3*%
X115532500Y-81015000D02*
X119592500Y-81015000D01*
X119592500Y-78745000D02*
X115532500Y-78745000D01*
X119592500Y-81015000D02*
X119592500Y-78745000D01*
%TO.C,U1*%
X120630000Y-73590000D02*
X120630000Y-78890000D01*
X120630000Y-78890000D02*
X130910000Y-78890000D01*
X130910000Y-73590000D02*
X120630000Y-73590000D01*
X130910000Y-75240000D02*
X130910000Y-73590000D01*
X130910000Y-78890000D02*
X130910000Y-77240000D01*
X130970000Y-71100000D02*
X120570000Y-71100000D01*
X120570000Y-81380000D01*
X130970000Y-81380000D01*
X130970000Y-71100000D01*
X130910000Y-77240000D02*
G75*
G02*
X130910000Y-75240000I0J1000000D01*
G01*
%TO.C,R3*%
X117797064Y-75292500D02*
X116342936Y-75292500D01*
X117797064Y-77112500D02*
X116342936Y-77112500D01*
%TD*%
M02*
