%TF.GenerationSoftware,KiCad,Pcbnew,9.0.7*%
%TF.CreationDate,2026-09-03T00:49:35+05:45*%
%TF.ProjectId,Project-2,50726f6a-6563-4742-9d32-2e6b69636164,rev?*%
%TF.SameCoordinates,Original*%
%TF.FileFunction,Copper,L1,Top*%
%TF.FilePolarity,Positive*%
%FSLAX46Y46*%
G04 Gerber Fmt 4.6, Leading zero omitted, Abs format (unit mm)*
G04 Created by KiCad (PCBNEW 9.0.7) date 2026-09-03 00:49:35*
%MOMM*%
%LPD*%
G01*
G04 APERTURE LIST*
G04 Aperture macros list*
%AMRoundRect*
0 Rectangle with rounded corners*
0 $1 Rounding radius*
0 $2 $3 $4 $5 $6 $7 $8 $9 X,Y pos of 4 corners*
0 Add a 4 corners polygon primitive as box body*
4,1,4,$2,$3,$4,$5,$6,$7,$8,$9,$2,$3,0*
0 Add four circle primitives for the rounded corners*
1,1,$1+$1,$2,$3*
1,1,$1+$1,$4,$5*
1,1,$1+$1,$6,$7*
1,1,$1+$1,$8,$9*
0 Add four rect primitives between the rounded corners*
20,1,$1+$1,$2,$3,$4,$5,0*
20,1,$1+$1,$4,$5,$6,$7,0*
20,1,$1+$1,$6,$7,$8,$9,0*
20,1,$1+$1,$8,$9,$2,$3,0*%
G04 Aperture macros list end*
%TA.AperFunction,ComponentPad*%
%ADD10R,1.350000X1.350000*%
%TD*%
%TA.AperFunction,ComponentPad*%
%ADD11C,1.350000*%
%TD*%
%TA.AperFunction,ComponentPad*%
%ADD12R,1.800000X1.800000*%
%TD*%
%TA.AperFunction,ComponentPad*%
%ADD13C,1.800000*%
%TD*%
%TA.AperFunction,SMDPad,CuDef*%
%ADD14RoundRect,0.250000X-0.400000X-0.625000X0.400000X-0.625000X0.400000X0.625000X-0.400000X0.625000X0*%
%TD*%
%TA.AperFunction,ComponentPad*%
%ADD15C,1.440000*%
%TD*%
%TA.AperFunction,SMDPad,CuDef*%
%ADD16RoundRect,0.250001X0.462499X0.624999X-0.462499X0.624999X-0.462499X-0.624999X0.462499X-0.624999X0*%
%TD*%
%TA.AperFunction,SMDPad,CuDef*%
%ADD17RoundRect,0.250000X-0.550000X0.550000X-0.550000X-0.550000X0.550000X-0.550000X0.550000X0.550000X0*%
%TD*%
%TA.AperFunction,SMDPad,CuDef*%
%ADD18RoundRect,0.250000X0.400000X0.625000X-0.400000X0.625000X-0.400000X-0.625000X0.400000X-0.625000X0*%
%TD*%
%TA.AperFunction,Conductor*%
%ADD19C,0.200000*%
%TD*%
G04 APERTURE END LIST*
D10*
%TO.P,J1,1,Pin_1*%
%TO.N,VCC*%
X139120000Y-74740000D03*
D11*
%TO.P,J1,2,Pin_2*%
%TO.N,Out*%
X139120000Y-76740000D03*
%TO.P,J1,3,Pin_3*%
%TO.N,GND*%
X139120000Y-78740000D03*
%TD*%
D12*
%TO.P,D1,1,K*%
%TO.N,Net-(D1-K)*%
X112400000Y-71740000D03*
D13*
%TO.P,D1,2,A*%
%TO.N,VCC*%
X112400000Y-74280000D03*
%TD*%
D14*
%TO.P,R1,1*%
%TO.N,Net-(D1-K)*%
X115620000Y-72082500D03*
%TO.P,R1,2*%
%TO.N,GND*%
X118720000Y-72082500D03*
%TD*%
D12*
%TO.P,D2,1,K*%
%TO.N,VCC*%
X112400000Y-77750000D03*
D13*
%TO.P,D2,2,A*%
%TO.N,Net-(D2-A)*%
X112400000Y-80290000D03*
%TD*%
D14*
%TO.P,R2,1*%
%TO.N,Net-(D2-A)*%
X133130000Y-71770000D03*
%TO.P,R2,2*%
%TO.N,GND*%
X136230000Y-71770000D03*
%TD*%
D15*
%TO.P,RV1,1,1*%
%TO.N,VCC*%
X134610000Y-80240000D03*
%TO.P,RV1,2,2*%
%TO.N,Net-(U1A--)*%
X134610000Y-77700000D03*
%TO.P,RV1,3,3*%
%TO.N,GND*%
X134610000Y-75160000D03*
%TD*%
D16*
%TO.P,D3,1,K*%
%TO.N,GND*%
X118620000Y-79880000D03*
%TO.P,D3,2,A*%
%TO.N,Out*%
X115645000Y-79880000D03*
%TD*%
D17*
%TO.P,U1,1*%
%TO.N,Net-(R3-Pad1)*%
X129580000Y-72430000D03*
%TO.P,U1,2,-*%
%TO.N,Net-(U1A--)*%
X127040000Y-72430000D03*
%TO.P,U1,3,+*%
%TO.N,Net-(D2-A)*%
X124500000Y-72430000D03*
%TO.P,U1,4,V-*%
%TO.N,GND*%
X121960000Y-72430000D03*
%TO.P,U1,5*%
%TO.N,N/C*%
X121960000Y-80050000D03*
%TO.P,U1,6*%
X124500000Y-80050000D03*
%TO.P,U1,7*%
X127040000Y-80050000D03*
%TO.P,U1,8,V+*%
%TO.N,VCC*%
X129580000Y-80050000D03*
%TD*%
D18*
%TO.P,R3,1*%
%TO.N,Net-(R3-Pad1)*%
X118620000Y-76202500D03*
%TO.P,R3,2*%
%TO.N,Out*%
X115520000Y-76202500D03*
%TD*%
D19*
%TO.N,*%
X121960000Y-80050000D02*
X124500000Y-80050000D01*
X124500000Y-80050000D02*
X127040000Y-80050000D01*
%TO.N,Net-(D1-K)*%
X112400000Y-71740000D02*
X115277500Y-71740000D01*
X115277500Y-71740000D02*
X115620000Y-72082500D01*
%TO.N,VCC*%
X112400000Y-74280000D02*
X112400000Y-77750000D01*
X134420000Y-80050000D02*
X134610000Y-80240000D01*
X129580000Y-80050000D02*
X129770000Y-80240000D01*
X137180000Y-74740000D02*
X139120000Y-74740000D01*
X135170000Y-80240000D02*
X136240000Y-79170000D01*
X129770000Y-80240000D02*
X134610000Y-80240000D01*
X136240000Y-75680000D02*
X137180000Y-74740000D01*
X134610000Y-80240000D02*
X135170000Y-80240000D01*
X136240000Y-79170000D02*
X136240000Y-75680000D01*
%TO.N,Net-(D2-A)*%
X114470000Y-73760000D02*
X123870000Y-73760000D01*
X133130000Y-71770000D02*
X133130000Y-71470000D01*
X125510000Y-70500000D02*
X124500000Y-71510000D01*
X112400000Y-80290000D02*
X112650000Y-80290000D01*
X124500000Y-71510000D02*
X124500000Y-72430000D01*
X131990000Y-71770000D02*
X130720000Y-70500000D01*
X112400000Y-80290000D02*
X113940000Y-78750000D01*
X133130000Y-71770000D02*
X131990000Y-71770000D01*
X113940000Y-78750000D02*
X113940000Y-74290000D01*
X113940000Y-74290000D02*
X114470000Y-73760000D01*
X123870000Y-73760000D02*
X124500000Y-73130000D01*
X124740000Y-72190000D02*
X124500000Y-72430000D01*
X130720000Y-70500000D02*
X125510000Y-70500000D01*
X124500000Y-73130000D02*
X124500000Y-72430000D01*
%TO.N,Out*%
X136540000Y-82010000D02*
X116050000Y-82010000D01*
X115645000Y-81605000D02*
X115645000Y-79880000D01*
X115645000Y-76327500D02*
X115520000Y-76202500D01*
X137420000Y-76720000D02*
X136890000Y-77250000D01*
X115645000Y-79880000D02*
X115645000Y-79105000D01*
X136890000Y-77250000D02*
X136890000Y-81660000D01*
X139120000Y-76740000D02*
X139100000Y-76720000D01*
X115520000Y-79755000D02*
X115645000Y-79880000D01*
X115520000Y-76202500D02*
X115772500Y-76202500D01*
X136890000Y-81660000D02*
X136540000Y-82010000D01*
X116050000Y-82010000D02*
X115645000Y-81605000D01*
X115772500Y-76202500D02*
X115810000Y-76240000D01*
X139100000Y-76720000D02*
X137420000Y-76720000D01*
X115520000Y-76202500D02*
X115520000Y-79755000D01*
%TO.N,GND*%
X117390000Y-77950000D02*
X117060000Y-77620000D01*
X118620000Y-79880000D02*
X118620000Y-78220000D01*
X117060000Y-77620000D02*
X117060000Y-74740000D01*
X114630000Y-74570000D02*
X114340000Y-74860000D01*
X118720000Y-70310000D02*
X118720000Y-72082500D01*
X111000000Y-69920000D02*
X118330000Y-69920000D01*
X111200000Y-82260000D02*
X110780000Y-81840000D01*
X121612500Y-72082500D02*
X121960000Y-72430000D01*
X136280000Y-71820000D02*
X136230000Y-71770000D01*
X114340000Y-81200000D02*
X113280000Y-82260000D01*
X110780000Y-81840000D02*
X110780000Y-70140000D01*
X117060000Y-74740000D02*
X116890000Y-74570000D01*
X113280000Y-82260000D02*
X111200000Y-82260000D01*
X116890000Y-74570000D02*
X114630000Y-74570000D01*
X138930000Y-78550000D02*
X138720000Y-78550000D01*
X118620000Y-78220000D02*
X118350000Y-77950000D01*
X110780000Y-70140000D02*
X111000000Y-69920000D01*
X118350000Y-77950000D02*
X117390000Y-77950000D01*
X114340000Y-74860000D02*
X114340000Y-81200000D01*
X118330000Y-69920000D02*
X118720000Y-70310000D01*
%TO.N,Net-(R3-Pad1)*%
X129580000Y-72430000D02*
X129580000Y-72740000D01*
X129580000Y-73980000D02*
X129150000Y-74410000D01*
X129580000Y-72740000D02*
X129380000Y-72940000D01*
X119820000Y-74410000D02*
X118620000Y-75610000D01*
X129150000Y-74410000D02*
X119820000Y-74410000D01*
X129580000Y-72430000D02*
X129580000Y-73980000D01*
%TO.N,Net-(U1A--)*%
X127040000Y-71760000D02*
X127900000Y-70900000D01*
X130554314Y-70900000D02*
X131740000Y-72085686D01*
X131740000Y-72085686D02*
X131740000Y-76870000D01*
X127040000Y-72430000D02*
X127100000Y-72430000D01*
X134450000Y-77540000D02*
X134610000Y-77700000D01*
X127040000Y-72430000D02*
X127040000Y-71760000D01*
X127900000Y-70900000D02*
X130554314Y-70900000D01*
X131740000Y-76870000D02*
X132410000Y-77540000D01*
X132410000Y-77540000D02*
X134450000Y-77540000D01*
%TD*%
%TA.AperFunction,Conductor*%
%TO.N,GND*%
G36*
X131085702Y-72281069D02*
G01*
X131092180Y-72287101D01*
X131103181Y-72298102D01*
X131136666Y-72359425D01*
X131139500Y-72385783D01*
X131139500Y-76783330D01*
X131139499Y-76783348D01*
X131139499Y-76949054D01*
X131139498Y-76949054D01*
X131139499Y-76949057D01*
X131180423Y-77101785D01*
X131204849Y-77144092D01*
X131259477Y-77238712D01*
X131259481Y-77238717D01*
X131378349Y-77357585D01*
X131378355Y-77357590D01*
X131925139Y-77904374D01*
X131925149Y-77904385D01*
X131929479Y-77908715D01*
X131929480Y-77908716D01*
X132041284Y-78020520D01*
X132124763Y-78068716D01*
X132178215Y-78099577D01*
X132330943Y-78140500D01*
X132489057Y-78140500D01*
X133388660Y-78140500D01*
X133455699Y-78160185D01*
X133499143Y-78208203D01*
X133566135Y-78339681D01*
X133679055Y-78495102D01*
X133814898Y-78630945D01*
X133970319Y-78743865D01*
X134137517Y-78829057D01*
X134141493Y-78831083D01*
X134206081Y-78852069D01*
X134263756Y-78891506D01*
X134290955Y-78955865D01*
X134279041Y-79024711D01*
X134231797Y-79076187D01*
X134206081Y-79087931D01*
X134141493Y-79108916D01*
X133970318Y-79196135D01*
X133903742Y-79244506D01*
X133814898Y-79309055D01*
X133814896Y-79309057D01*
X133814895Y-79309057D01*
X133679057Y-79444895D01*
X133679057Y-79444896D01*
X133679055Y-79444898D01*
X133675350Y-79449998D01*
X133574805Y-79588386D01*
X133519475Y-79631051D01*
X133474487Y-79639500D01*
X131004499Y-79639500D01*
X130937460Y-79619815D01*
X130891705Y-79567011D01*
X130880499Y-79515500D01*
X130880499Y-79449998D01*
X130880498Y-79449981D01*
X130869999Y-79347203D01*
X130869998Y-79347200D01*
X130860625Y-79318915D01*
X130814814Y-79180666D01*
X130722712Y-79031344D01*
X130598656Y-78907288D01*
X130449334Y-78815186D01*
X130282797Y-78760001D01*
X130282795Y-78760000D01*
X130180010Y-78749500D01*
X128979998Y-78749500D01*
X128979981Y-78749501D01*
X128877203Y-78760000D01*
X128877200Y-78760001D01*
X128710668Y-78815185D01*
X128710663Y-78815187D01*
X128561342Y-78907289D01*
X128437288Y-79031343D01*
X128437285Y-79031347D01*
X128415538Y-79066605D01*
X128363590Y-79113330D01*
X128294628Y-79124551D01*
X128230546Y-79096708D01*
X128204462Y-79066605D01*
X128182714Y-79031347D01*
X128182711Y-79031343D01*
X128058657Y-78907289D01*
X128058656Y-78907288D01*
X127909334Y-78815186D01*
X127742797Y-78760001D01*
X127742795Y-78760000D01*
X127640010Y-78749500D01*
X126439998Y-78749500D01*
X126439981Y-78749501D01*
X126337203Y-78760000D01*
X126337200Y-78760001D01*
X126170668Y-78815185D01*
X126170663Y-78815187D01*
X126021342Y-78907289D01*
X125897288Y-79031343D01*
X125897285Y-79031347D01*
X125875538Y-79066605D01*
X125823590Y-79113330D01*
X125754628Y-79124551D01*
X125690546Y-79096708D01*
X125664462Y-79066605D01*
X125642714Y-79031347D01*
X125642711Y-79031343D01*
X125518657Y-78907289D01*
X125518656Y-78907288D01*
X125369334Y-78815186D01*
X125202797Y-78760001D01*
X125202795Y-78760000D01*
X125100010Y-78749500D01*
X123899998Y-78749500D01*
X123899981Y-78749501D01*
X123797203Y-78760000D01*
X123797200Y-78760001D01*
X123630668Y-78815185D01*
X123630663Y-78815187D01*
X123481342Y-78907289D01*
X123357288Y-79031343D01*
X123357285Y-79031347D01*
X123335538Y-79066605D01*
X123283590Y-79113330D01*
X123214628Y-79124551D01*
X123150546Y-79096708D01*
X123124462Y-79066605D01*
X123102714Y-79031347D01*
X123102711Y-79031343D01*
X122978657Y-78907289D01*
X122978656Y-78907288D01*
X122829334Y-78815186D01*
X122662797Y-78760001D01*
X122662795Y-78760000D01*
X122560010Y-78749500D01*
X121359998Y-78749500D01*
X121359981Y-78749501D01*
X121257203Y-78760000D01*
X121257200Y-78760001D01*
X121090668Y-78815185D01*
X121090663Y-78815187D01*
X120941342Y-78907289D01*
X120817289Y-79031342D01*
X120725187Y-79180663D01*
X120725185Y-79180668D01*
X120711569Y-79221758D01*
X120670001Y-79347203D01*
X120670001Y-79347204D01*
X120670000Y-79347204D01*
X120659500Y-79449983D01*
X120659500Y-80650001D01*
X120659501Y-80650018D01*
X120670000Y-80752796D01*
X120670001Y-80752799D01*
X120708180Y-80868014D01*
X120725186Y-80919334D01*
X120817287Y-81068655D01*
X120817289Y-81068657D01*
X120946451Y-81197819D01*
X120979936Y-81259142D01*
X120974952Y-81328834D01*
X120933080Y-81384767D01*
X120867616Y-81409184D01*
X120858770Y-81409500D01*
X119481952Y-81409500D01*
X119414913Y-81389815D01*
X119369158Y-81337011D01*
X119359214Y-81267853D01*
X119388239Y-81204297D01*
X119416855Y-81179961D01*
X119550844Y-81097315D01*
X119674815Y-80973344D01*
X119766856Y-80824123D01*
X119766858Y-80824118D01*
X119822005Y-80657696D01*
X119822006Y-80657689D01*
X119832499Y-80554985D01*
X119832500Y-80554972D01*
X119832500Y-80130000D01*
X117407500Y-80130000D01*
X117407500Y-80554985D01*
X117417993Y-80657689D01*
X117417994Y-80657696D01*
X117473141Y-80824118D01*
X117473143Y-80824123D01*
X117565184Y-80973344D01*
X117689155Y-81097315D01*
X117823145Y-81179961D01*
X117869869Y-81231909D01*
X117881092Y-81300872D01*
X117853248Y-81364954D01*
X117795179Y-81403810D01*
X117758048Y-81409500D01*
X116507904Y-81409500D01*
X116440865Y-81389815D01*
X116395110Y-81337011D01*
X116385166Y-81267853D01*
X116414191Y-81204297D01*
X116442807Y-81179962D01*
X116498942Y-81145336D01*
X116576155Y-81097711D01*
X116700211Y-80973655D01*
X116792314Y-80824334D01*
X116847499Y-80657797D01*
X116858000Y-80555008D01*
X116858000Y-79205014D01*
X117407500Y-79205014D01*
X117407500Y-79630000D01*
X118370000Y-79630000D01*
X118870000Y-79630000D01*
X119832500Y-79630000D01*
X119832500Y-79205027D01*
X119832499Y-79205014D01*
X119822006Y-79102310D01*
X119822005Y-79102303D01*
X119766858Y-78935881D01*
X119766856Y-78935876D01*
X119674815Y-78786655D01*
X119550844Y-78662684D01*
X119401623Y-78570643D01*
X119401618Y-78570641D01*
X119235196Y-78515494D01*
X119235189Y-78515493D01*
X119132485Y-78505000D01*
X118870000Y-78505000D01*
X118870000Y-79630000D01*
X118370000Y-79630000D01*
X118370000Y-78505000D01*
X118107514Y-78505000D01*
X118004810Y-78515493D01*
X118004803Y-78515494D01*
X117838381Y-78570641D01*
X117838376Y-78570643D01*
X117689155Y-78662684D01*
X117565184Y-78786655D01*
X117473143Y-78935876D01*
X117473141Y-78935881D01*
X117417994Y-79102303D01*
X117417993Y-79102310D01*
X117407500Y-79205014D01*
X116858000Y-79205014D01*
X116858000Y-79204992D01*
X116847499Y-79102203D01*
X116792314Y-78935666D01*
X116782959Y-78920500D01*
X116700213Y-78786348D01*
X116700210Y-78786344D01*
X116576155Y-78662289D01*
X116576151Y-78662286D01*
X116426837Y-78570187D01*
X116426835Y-78570186D01*
X116356966Y-78547034D01*
X116260297Y-78515001D01*
X116251157Y-78514067D01*
X116231895Y-78512099D01*
X116167204Y-78485701D01*
X116127054Y-78428520D01*
X116120500Y-78388741D01*
X116120500Y-77641232D01*
X116140185Y-77574193D01*
X116192989Y-77528438D01*
X116205495Y-77523526D01*
X116239334Y-77512314D01*
X116388656Y-77420212D01*
X116512712Y-77296156D01*
X116604814Y-77146834D01*
X116659999Y-76980297D01*
X116670500Y-76877509D01*
X116670499Y-75527492D01*
X116665424Y-75477815D01*
X116659999Y-75424703D01*
X116659998Y-75424700D01*
X116638620Y-75360185D01*
X116604814Y-75258166D01*
X116512712Y-75108844D01*
X116388656Y-74984788D01*
X116291229Y-74924695D01*
X116239336Y-74892687D01*
X116239331Y-74892685D01*
X116202242Y-74880395D01*
X116072797Y-74837501D01*
X116072795Y-74837500D01*
X115970010Y-74827000D01*
X115069998Y-74827000D01*
X115069980Y-74827001D01*
X114967203Y-74837500D01*
X114967200Y-74837501D01*
X114800668Y-74892685D01*
X114800659Y-74892690D01*
X114729596Y-74936521D01*
X114721978Y-74938605D01*
X114716011Y-74943776D01*
X114688761Y-74947694D01*
X114662203Y-74954961D01*
X114654668Y-74952596D01*
X114646853Y-74953720D01*
X114621809Y-74942282D01*
X114595540Y-74934038D01*
X114590480Y-74927975D01*
X114583297Y-74924695D01*
X114568410Y-74901530D01*
X114550771Y-74880395D01*
X114548831Y-74871065D01*
X114545523Y-74865917D01*
X114540500Y-74830982D01*
X114540500Y-74590097D01*
X114560185Y-74523058D01*
X114576819Y-74502416D01*
X114682416Y-74396819D01*
X114743739Y-74363334D01*
X114770097Y-74360500D01*
X118720903Y-74360500D01*
X118787942Y-74380185D01*
X118833697Y-74432989D01*
X118843641Y-74502147D01*
X118814616Y-74565703D01*
X118808603Y-74572160D01*
X118620764Y-74760000D01*
X118590082Y-74790682D01*
X118528759Y-74824166D01*
X118502401Y-74827000D01*
X118169999Y-74827000D01*
X118169980Y-74827001D01*
X118067203Y-74837500D01*
X118067200Y-74837501D01*
X117900668Y-74892685D01*
X117900663Y-74892687D01*
X117751342Y-74984789D01*
X117627289Y-75108842D01*
X117535187Y-75258163D01*
X117535185Y-75258168D01*
X117517584Y-75311284D01*
X117480001Y-75424703D01*
X117480001Y-75424704D01*
X117480000Y-75424704D01*
X117469500Y-75527483D01*
X117469500Y-76877501D01*
X117469501Y-76877518D01*
X117480000Y-76980296D01*
X117480001Y-76980299D01*
X117534277Y-77144091D01*
X117535186Y-77146834D01*
X117627288Y-77296156D01*
X117751344Y-77420212D01*
X117900666Y-77512314D01*
X118067203Y-77567499D01*
X118169991Y-77578000D01*
X119070008Y-77577999D01*
X119070016Y-77577998D01*
X119070019Y-77577998D01*
X119164407Y-77568356D01*
X119172797Y-77567499D01*
X119339334Y-77512314D01*
X119488656Y-77420212D01*
X119612712Y-77296156D01*
X119704814Y-77146834D01*
X119759999Y-76980297D01*
X119770500Y-76877509D01*
X119770499Y-75527492D01*
X119765424Y-75477815D01*
X119759999Y-75424703D01*
X119759998Y-75424700D01*
X119757807Y-75418087D01*
X119755405Y-75348258D01*
X119787832Y-75291402D01*
X120032416Y-75046819D01*
X120093739Y-75013334D01*
X120120097Y-75010500D01*
X129063331Y-75010500D01*
X129063347Y-75010501D01*
X129070943Y-75010501D01*
X129229054Y-75010501D01*
X129229057Y-75010501D01*
X129381785Y-74969577D01*
X129431904Y-74940639D01*
X129518716Y-74890520D01*
X129630520Y-74778716D01*
X129630520Y-74778714D01*
X129640728Y-74768507D01*
X129640730Y-74768504D01*
X129938506Y-74470728D01*
X129938511Y-74470724D01*
X129948714Y-74460520D01*
X129948716Y-74460520D01*
X130060520Y-74348716D01*
X130112040Y-74259480D01*
X130139577Y-74211785D01*
X130180501Y-74059057D01*
X130180501Y-73900943D01*
X130180501Y-73893348D01*
X130180500Y-73893330D01*
X130180500Y-73842162D01*
X130200185Y-73775123D01*
X130252989Y-73729368D01*
X130278552Y-73720907D01*
X130282788Y-73719999D01*
X130282797Y-73719999D01*
X130449334Y-73664814D01*
X130598656Y-73572712D01*
X130722712Y-73448656D01*
X130814814Y-73299334D01*
X130869999Y-73132797D01*
X130880500Y-73030009D01*
X130880499Y-72374780D01*
X130900183Y-72307743D01*
X130952987Y-72261988D01*
X131022146Y-72252044D01*
X131085702Y-72281069D01*
G37*
%TD.AperFunction*%
%TA.AperFunction,Conductor*%
G36*
X135603181Y-75799628D02*
G01*
X135636666Y-75860951D01*
X135639500Y-75887309D01*
X135639500Y-76704091D01*
X135619815Y-76771130D01*
X135567011Y-76816885D01*
X135497853Y-76826829D01*
X135434297Y-76797804D01*
X135427819Y-76791772D01*
X135405104Y-76769057D01*
X135405102Y-76769055D01*
X135249681Y-76656135D01*
X135078509Y-76568918D01*
X135078508Y-76568917D01*
X135078505Y-76568916D01*
X135013108Y-76547667D01*
X134955432Y-76508229D01*
X134928234Y-76443871D01*
X134940149Y-76375024D01*
X134987393Y-76323549D01*
X135013108Y-76311805D01*
X135078319Y-76290616D01*
X135249419Y-76203436D01*
X135278646Y-76182201D01*
X135278646Y-76182200D01*
X134656447Y-75560000D01*
X134662661Y-75560000D01*
X134764394Y-75532741D01*
X134855606Y-75480080D01*
X134930080Y-75405606D01*
X134982741Y-75314394D01*
X135010000Y-75212661D01*
X135010000Y-75206447D01*
X135603181Y-75799628D01*
G37*
%TD.AperFunction*%
%TA.AperFunction,Conductor*%
G36*
X141662539Y-69460185D02*
G01*
X141708294Y-69512989D01*
X141719500Y-69564500D01*
X141719500Y-82815500D01*
X141699815Y-82882539D01*
X141647011Y-82928294D01*
X141595500Y-82939500D01*
X110574500Y-82939500D01*
X110507461Y-82919815D01*
X110461706Y-82867011D01*
X110450500Y-82815500D01*
X110450500Y-70792135D01*
X110999500Y-70792135D01*
X110999500Y-72687870D01*
X110999501Y-72687876D01*
X111005908Y-72747483D01*
X111056202Y-72882328D01*
X111056206Y-72882335D01*
X111142452Y-72997544D01*
X111142455Y-72997547D01*
X111257664Y-73083793D01*
X111257671Y-73083797D01*
X111337580Y-73113601D01*
X111393514Y-73155472D01*
X111417931Y-73220936D01*
X111403080Y-73289209D01*
X111381929Y-73317463D01*
X111331756Y-73367636D01*
X111331752Y-73367641D01*
X111202187Y-73545974D01*
X111102104Y-73742393D01*
X111102103Y-73742396D01*
X111033985Y-73952047D01*
X110999500Y-74169778D01*
X110999500Y-74390221D01*
X111033985Y-74607952D01*
X111102103Y-74817603D01*
X111102104Y-74817606D01*
X111168389Y-74947694D01*
X111201834Y-75013334D01*
X111202187Y-75014025D01*
X111331752Y-75192358D01*
X111331756Y-75192363D01*
X111487636Y-75348243D01*
X111487641Y-75348247D01*
X111665976Y-75477814D01*
X111731794Y-75511350D01*
X111782591Y-75559324D01*
X111799500Y-75621835D01*
X111799500Y-76225500D01*
X111779815Y-76292539D01*
X111727011Y-76338294D01*
X111675501Y-76349500D01*
X111452130Y-76349500D01*
X111452123Y-76349501D01*
X111392516Y-76355908D01*
X111257671Y-76406202D01*
X111257664Y-76406206D01*
X111142455Y-76492452D01*
X111142452Y-76492455D01*
X111056206Y-76607664D01*
X111056202Y-76607671D01*
X111005908Y-76742517D01*
X110999501Y-76802116D01*
X110999500Y-76802135D01*
X110999500Y-78697870D01*
X110999501Y-78697876D01*
X111005908Y-78757483D01*
X111056202Y-78892328D01*
X111056206Y-78892335D01*
X111142452Y-79007544D01*
X111142455Y-79007547D01*
X111257664Y-79093793D01*
X111257671Y-79093797D01*
X111337580Y-79123601D01*
X111393514Y-79165472D01*
X111417931Y-79230936D01*
X111403080Y-79299209D01*
X111381929Y-79327463D01*
X111331756Y-79377636D01*
X111331752Y-79377641D01*
X111202187Y-79555974D01*
X111102104Y-79752393D01*
X111102103Y-79752396D01*
X111033985Y-79962047D01*
X111007384Y-80130000D01*
X110999500Y-80179778D01*
X110999500Y-80400222D01*
X111013081Y-80485971D01*
X111033985Y-80617952D01*
X111102103Y-80827603D01*
X111102104Y-80827606D01*
X111148843Y-80919334D01*
X111191621Y-81003290D01*
X111202187Y-81024025D01*
X111331752Y-81202358D01*
X111331756Y-81202363D01*
X111487636Y-81358243D01*
X111487641Y-81358247D01*
X111542762Y-81398294D01*
X111665978Y-81487815D01*
X111740808Y-81525943D01*
X111862393Y-81587895D01*
X111862396Y-81587896D01*
X111967221Y-81621955D01*
X112072049Y-81656015D01*
X112289778Y-81690500D01*
X112289779Y-81690500D01*
X112510221Y-81690500D01*
X112510222Y-81690500D01*
X112727951Y-81656015D01*
X112937606Y-81587895D01*
X113134022Y-81487815D01*
X113312365Y-81358242D01*
X113468242Y-81202365D01*
X113597815Y-81024022D01*
X113697895Y-80827606D01*
X113766015Y-80617951D01*
X113800500Y-80400222D01*
X113800500Y-80179778D01*
X113766015Y-79962049D01*
X113743188Y-79891794D01*
X113741193Y-79821953D01*
X113773436Y-79765797D01*
X114220319Y-79318915D01*
X114281642Y-79285430D01*
X114351334Y-79290414D01*
X114407267Y-79332286D01*
X114431684Y-79397750D01*
X114432000Y-79406596D01*
X114432000Y-80555015D01*
X114442500Y-80657795D01*
X114442501Y-80657796D01*
X114497686Y-80824335D01*
X114497687Y-80824337D01*
X114589786Y-80973651D01*
X114589789Y-80973655D01*
X114713844Y-81097710D01*
X114713848Y-81097713D01*
X114863162Y-81189812D01*
X114863164Y-81189813D01*
X114863166Y-81189814D01*
X114959504Y-81221737D01*
X114979538Y-81235607D01*
X115001703Y-81245730D01*
X115007750Y-81255140D01*
X115016949Y-81261509D01*
X115026304Y-81284010D01*
X115039477Y-81304508D01*
X115041935Y-81321608D01*
X115043772Y-81326025D01*
X115044500Y-81339443D01*
X115044500Y-81518330D01*
X115044499Y-81518348D01*
X115044499Y-81684054D01*
X115044498Y-81684054D01*
X115085423Y-81836785D01*
X115114358Y-81886900D01*
X115114359Y-81886904D01*
X115114360Y-81886904D01*
X115164479Y-81973714D01*
X115164481Y-81973717D01*
X115283349Y-82092585D01*
X115283355Y-82092590D01*
X115565139Y-82374374D01*
X115565149Y-82374385D01*
X115569479Y-82378715D01*
X115569480Y-82378716D01*
X115681284Y-82490520D01*
X115681286Y-82490521D01*
X115681290Y-82490524D01*
X115818209Y-82569573D01*
X115818216Y-82569577D01*
X115930019Y-82599534D01*
X115970942Y-82610500D01*
X115970943Y-82610500D01*
X136453331Y-82610500D01*
X136453347Y-82610501D01*
X136460943Y-82610501D01*
X136619054Y-82610501D01*
X136619057Y-82610501D01*
X136771785Y-82569577D01*
X136821904Y-82540639D01*
X136908716Y-82490520D01*
X137020520Y-82378716D01*
X137020521Y-82378714D01*
X137370520Y-82028716D01*
X137449577Y-81891784D01*
X137490501Y-81739057D01*
X137490501Y-81580942D01*
X137490501Y-81573347D01*
X137490500Y-81573329D01*
X137490500Y-77550097D01*
X137510185Y-77483058D01*
X137526819Y-77462416D01*
X137632416Y-77356819D01*
X137693739Y-77323334D01*
X137720097Y-77320500D01*
X138025579Y-77320500D01*
X138092618Y-77340185D01*
X138125895Y-77371612D01*
X138223379Y-77505787D01*
X138354213Y-77636621D01*
X138360559Y-77641232D01*
X138428831Y-77690834D01*
X138443806Y-77710254D01*
X139073554Y-78340000D01*
X139067339Y-78340000D01*
X138965606Y-78367259D01*
X138874394Y-78419920D01*
X138799920Y-78494394D01*
X138747259Y-78585606D01*
X138720000Y-78687339D01*
X138720000Y-78693553D01*
X138130015Y-78103568D01*
X138115049Y-78124167D01*
X138031084Y-78288956D01*
X138031083Y-78288959D01*
X137973933Y-78464852D01*
X137945000Y-78647526D01*
X137945000Y-78832473D01*
X137973933Y-79015147D01*
X138031083Y-79191040D01*
X138031084Y-79191043D01*
X138115050Y-79355834D01*
X138130015Y-79376430D01*
X138130016Y-79376431D01*
X138720000Y-78786447D01*
X138720000Y-78792661D01*
X138747259Y-78894394D01*
X138799920Y-78985606D01*
X138874394Y-79060080D01*
X138965606Y-79112741D01*
X139067339Y-79140000D01*
X139073553Y-79140000D01*
X138483568Y-79729983D01*
X138483568Y-79729984D01*
X138504165Y-79744949D01*
X138668956Y-79828915D01*
X138668959Y-79828916D01*
X138844852Y-79886066D01*
X139027527Y-79915000D01*
X139212473Y-79915000D01*
X139395147Y-79886066D01*
X139571040Y-79828916D01*
X139571043Y-79828915D01*
X139735836Y-79744947D01*
X139735845Y-79744942D01*
X139756430Y-79729984D01*
X139756431Y-79729983D01*
X139166448Y-79140000D01*
X139172661Y-79140000D01*
X139274394Y-79112741D01*
X139365606Y-79060080D01*
X139440080Y-78985606D01*
X139492741Y-78894394D01*
X139520000Y-78792661D01*
X139520000Y-78786447D01*
X140109983Y-79376430D01*
X140109984Y-79376430D01*
X140124942Y-79355845D01*
X140124947Y-79355836D01*
X140208915Y-79191043D01*
X140208916Y-79191040D01*
X140266066Y-79015147D01*
X140295000Y-78832473D01*
X140295000Y-78647526D01*
X140266066Y-78464852D01*
X140208916Y-78288959D01*
X140208915Y-78288956D01*
X140124949Y-78124165D01*
X140109983Y-78103568D01*
X139520000Y-78693551D01*
X139520000Y-78687339D01*
X139492741Y-78585606D01*
X139440080Y-78494394D01*
X139365606Y-78419920D01*
X139274394Y-78367259D01*
X139172661Y-78340000D01*
X139166447Y-78340000D01*
X139780675Y-77725771D01*
X139811165Y-77690836D01*
X139885787Y-77636621D01*
X140016621Y-77505787D01*
X140125378Y-77356096D01*
X140209379Y-77191235D01*
X140266555Y-77015264D01*
X140295500Y-76832514D01*
X140295500Y-76647486D01*
X140266555Y-76464736D01*
X140229693Y-76351286D01*
X140209380Y-76288767D01*
X140209379Y-76288764D01*
X140164349Y-76200388D01*
X140125378Y-76123904D01*
X140041453Y-76008391D01*
X140017974Y-75942586D01*
X140033799Y-75874532D01*
X140067459Y-75836241D01*
X140152546Y-75772546D01*
X140238796Y-75657331D01*
X140289091Y-75522483D01*
X140295500Y-75462873D01*
X140295499Y-74017128D01*
X140289091Y-73957517D01*
X140267990Y-73900943D01*
X140238797Y-73822671D01*
X140238793Y-73822664D01*
X140152547Y-73707455D01*
X140152544Y-73707452D01*
X140037335Y-73621206D01*
X140037328Y-73621202D01*
X139902482Y-73570908D01*
X139902483Y-73570908D01*
X139842883Y-73564501D01*
X139842881Y-73564500D01*
X139842873Y-73564500D01*
X139842864Y-73564500D01*
X138397129Y-73564500D01*
X138397123Y-73564501D01*
X138337516Y-73570908D01*
X138202671Y-73621202D01*
X138202664Y-73621206D01*
X138087455Y-73707452D01*
X138087452Y-73707455D01*
X138001206Y-73822664D01*
X138001202Y-73822671D01*
X137950908Y-73957517D01*
X137944501Y-74017116D01*
X137944501Y-74017123D01*
X137944322Y-74020452D01*
X137943065Y-74020384D01*
X137924815Y-74082539D01*
X137872011Y-74128294D01*
X137820500Y-74139500D01*
X137266670Y-74139500D01*
X137266654Y-74139499D01*
X137259058Y-74139499D01*
X137100943Y-74139499D01*
X137024579Y-74159961D01*
X136948214Y-74180423D01*
X136948209Y-74180426D01*
X136811290Y-74259475D01*
X136811282Y-74259481D01*
X136026254Y-75044509D01*
X135964931Y-75077994D01*
X135895239Y-75073010D01*
X135839306Y-75031138D01*
X135816100Y-74976226D01*
X135799958Y-74874315D01*
X135740616Y-74691678D01*
X135653434Y-74520577D01*
X135632201Y-74491352D01*
X135632200Y-74491351D01*
X135010000Y-75113552D01*
X135010000Y-75107339D01*
X134982741Y-75005606D01*
X134930080Y-74914394D01*
X134855606Y-74839920D01*
X134764394Y-74787259D01*
X134662661Y-74760000D01*
X134656447Y-74760000D01*
X135278646Y-74137798D01*
X135249415Y-74116561D01*
X135078321Y-74029383D01*
X134895684Y-73970040D01*
X134706015Y-73940000D01*
X134513985Y-73940000D01*
X134324315Y-73970040D01*
X134141678Y-74029383D01*
X133970578Y-74116564D01*
X133941352Y-74137798D01*
X133941351Y-74137798D01*
X134563554Y-74760000D01*
X134557339Y-74760000D01*
X134455606Y-74787259D01*
X134364394Y-74839920D01*
X134289920Y-74914394D01*
X134237259Y-75005606D01*
X134210000Y-75107339D01*
X134210000Y-75113553D01*
X133587798Y-74491351D01*
X133587798Y-74491352D01*
X133566564Y-74520578D01*
X133479383Y-74691678D01*
X133420040Y-74874315D01*
X133390000Y-75063984D01*
X133390000Y-75256015D01*
X133420040Y-75445684D01*
X133479383Y-75628321D01*
X133566561Y-75799415D01*
X133587798Y-75828646D01*
X134210000Y-75206445D01*
X134210000Y-75212661D01*
X134237259Y-75314394D01*
X134289920Y-75405606D01*
X134364394Y-75480080D01*
X134455606Y-75532741D01*
X134557339Y-75560000D01*
X134563554Y-75560000D01*
X133941351Y-76182200D01*
X133941352Y-76182201D01*
X133970577Y-76203434D01*
X134141680Y-76290616D01*
X134206891Y-76311805D01*
X134264567Y-76351242D01*
X134291765Y-76415601D01*
X134279850Y-76484447D01*
X134232606Y-76535923D01*
X134206892Y-76547667D01*
X134141492Y-76568917D01*
X133970318Y-76656135D01*
X133904313Y-76704091D01*
X133814898Y-76769055D01*
X133814896Y-76769057D01*
X133814895Y-76769057D01*
X133680772Y-76903181D01*
X133619449Y-76936666D01*
X133593091Y-76939500D01*
X132710097Y-76939500D01*
X132643058Y-76919815D01*
X132622416Y-76903181D01*
X132376819Y-76657584D01*
X132343334Y-76596261D01*
X132340500Y-76569903D01*
X132340500Y-73228283D01*
X132360185Y-73161244D01*
X132412989Y-73115489D01*
X132482147Y-73105545D01*
X132503498Y-73110575D01*
X132577203Y-73134999D01*
X132679991Y-73145500D01*
X133580008Y-73145499D01*
X133580016Y-73145498D01*
X133580019Y-73145498D01*
X133636302Y-73139748D01*
X133682797Y-73134999D01*
X133849334Y-73079814D01*
X133998656Y-72987712D01*
X134122712Y-72863656D01*
X134214814Y-72714334D01*
X134269999Y-72547797D01*
X134280500Y-72445009D01*
X134280500Y-72444986D01*
X135080001Y-72444986D01*
X135090494Y-72547697D01*
X135145641Y-72714119D01*
X135145643Y-72714124D01*
X135237684Y-72863345D01*
X135361654Y-72987315D01*
X135510875Y-73079356D01*
X135510880Y-73079358D01*
X135677302Y-73134505D01*
X135677309Y-73134506D01*
X135780019Y-73144999D01*
X135979999Y-73144999D01*
X136480000Y-73144999D01*
X136679972Y-73144999D01*
X136679986Y-73144998D01*
X136782697Y-73134505D01*
X136949119Y-73079358D01*
X136949124Y-73079356D01*
X137098345Y-72987315D01*
X137222315Y-72863345D01*
X137314356Y-72714124D01*
X137314358Y-72714119D01*
X137369505Y-72547697D01*
X137369506Y-72547690D01*
X137379999Y-72444986D01*
X137380000Y-72444973D01*
X137380000Y-72020000D01*
X136480000Y-72020000D01*
X136480000Y-73144999D01*
X135979999Y-73144999D01*
X135980000Y-73144998D01*
X135980000Y-72020000D01*
X135080001Y-72020000D01*
X135080001Y-72444986D01*
X134280500Y-72444986D01*
X134280499Y-71727309D01*
X134280499Y-71095013D01*
X135080000Y-71095013D01*
X135080000Y-71520000D01*
X135980000Y-71520000D01*
X136480000Y-71520000D01*
X137379999Y-71520000D01*
X137379999Y-71095028D01*
X137379998Y-71095013D01*
X137369505Y-70992302D01*
X137314358Y-70825880D01*
X137314356Y-70825875D01*
X137222315Y-70676654D01*
X137098345Y-70552684D01*
X136949124Y-70460643D01*
X136949119Y-70460641D01*
X136782697Y-70405494D01*
X136782690Y-70405493D01*
X136679986Y-70395000D01*
X136480000Y-70395000D01*
X136480000Y-71520000D01*
X135980000Y-71520000D01*
X135980000Y-70395000D01*
X135780029Y-70395000D01*
X135780012Y-70395001D01*
X135677302Y-70405494D01*
X135510880Y-70460641D01*
X135510875Y-70460643D01*
X135361654Y-70552684D01*
X135237684Y-70676654D01*
X135145643Y-70825875D01*
X135145641Y-70825880D01*
X135090494Y-70992302D01*
X135090493Y-70992309D01*
X135080000Y-71095013D01*
X134280499Y-71095013D01*
X134280499Y-71094998D01*
X134280498Y-71094981D01*
X134269999Y-70992203D01*
X134269998Y-70992200D01*
X134252219Y-70938546D01*
X134214814Y-70825666D01*
X134122712Y-70676344D01*
X133998656Y-70552288D01*
X133885438Y-70482455D01*
X133849336Y-70460187D01*
X133849331Y-70460185D01*
X133847862Y-70459698D01*
X133682797Y-70405001D01*
X133682795Y-70405000D01*
X133580010Y-70394500D01*
X132679998Y-70394500D01*
X132679980Y-70394501D01*
X132577203Y-70405000D01*
X132577200Y-70405001D01*
X132410668Y-70460185D01*
X132410663Y-70460187D01*
X132261342Y-70552289D01*
X132137289Y-70676342D01*
X132070181Y-70785142D01*
X132018233Y-70831867D01*
X131949270Y-70843088D01*
X131885188Y-70815245D01*
X131876961Y-70807726D01*
X131207590Y-70138355D01*
X131207588Y-70138352D01*
X131088717Y-70019481D01*
X131088716Y-70019480D01*
X131001904Y-69969360D01*
X131001904Y-69969359D01*
X131001900Y-69969358D01*
X130951785Y-69940423D01*
X130799057Y-69899499D01*
X130640943Y-69899499D01*
X130633347Y-69899499D01*
X130633331Y-69899500D01*
X125596670Y-69899500D01*
X125596654Y-69899499D01*
X125589058Y-69899499D01*
X125430943Y-69899499D01*
X125354579Y-69919961D01*
X125278214Y-69940423D01*
X125278209Y-69940426D01*
X125141290Y-70019475D01*
X125141282Y-70019481D01*
X124131286Y-71029478D01*
X124131284Y-71029480D01*
X124131282Y-71029480D01*
X124131283Y-71029481D01*
X124067579Y-71093183D01*
X124006255Y-71126667D01*
X123979900Y-71129500D01*
X123899999Y-71129500D01*
X123899980Y-71129501D01*
X123797203Y-71140000D01*
X123797200Y-71140001D01*
X123630668Y-71195185D01*
X123630663Y-71195187D01*
X123481342Y-71287289D01*
X123357287Y-71411344D01*
X123335244Y-71447082D01*
X123283295Y-71493806D01*
X123214333Y-71505027D01*
X123150251Y-71477183D01*
X123124168Y-71447081D01*
X123102319Y-71411659D01*
X123102316Y-71411655D01*
X122978345Y-71287684D01*
X122829124Y-71195643D01*
X122829119Y-71195641D01*
X122662697Y-71140494D01*
X122662690Y-71140493D01*
X122559986Y-71130000D01*
X122210000Y-71130000D01*
X122210000Y-72306000D01*
X122190315Y-72373039D01*
X122137511Y-72418794D01*
X122086000Y-72430000D01*
X121960000Y-72430000D01*
X121960000Y-72556000D01*
X121940315Y-72623039D01*
X121887511Y-72668794D01*
X121836000Y-72680000D01*
X120660001Y-72680000D01*
X120660001Y-73033134D01*
X120659025Y-73033134D01*
X120643698Y-73097169D01*
X120593280Y-73145540D01*
X120536121Y-73159500D01*
X119932046Y-73159500D01*
X119865007Y-73139815D01*
X119819252Y-73087011D01*
X119809308Y-73017853D01*
X119814340Y-72996496D01*
X119859505Y-72860197D01*
X119859506Y-72860190D01*
X119869999Y-72757486D01*
X119870000Y-72757473D01*
X119870000Y-72332500D01*
X117570001Y-72332500D01*
X117570001Y-72757486D01*
X117580493Y-72860195D01*
X117625660Y-72996495D01*
X117628062Y-73066324D01*
X117592331Y-73126366D01*
X117529810Y-73157559D01*
X117507954Y-73159500D01*
X116832573Y-73159500D01*
X116765534Y-73139815D01*
X116719779Y-73087011D01*
X116709835Y-73017853D01*
X116714867Y-72996496D01*
X116717909Y-72987315D01*
X116759999Y-72860297D01*
X116770500Y-72757509D01*
X116770499Y-71407513D01*
X117570000Y-71407513D01*
X117570000Y-71832500D01*
X118470000Y-71832500D01*
X118970000Y-71832500D01*
X119869999Y-71832500D01*
X119869999Y-71830013D01*
X120660000Y-71830013D01*
X120660000Y-72180000D01*
X121710000Y-72180000D01*
X121710000Y-71130000D01*
X121360028Y-71130000D01*
X121360012Y-71130001D01*
X121257302Y-71140494D01*
X121090880Y-71195641D01*
X121090875Y-71195643D01*
X120941654Y-71287684D01*
X120817684Y-71411654D01*
X120725643Y-71560875D01*
X120725641Y-71560880D01*
X120670494Y-71727302D01*
X120670493Y-71727309D01*
X120660000Y-71830013D01*
X119869999Y-71830013D01*
X119869999Y-71407528D01*
X119869998Y-71407513D01*
X119859505Y-71304802D01*
X119804358Y-71138380D01*
X119804356Y-71138375D01*
X119712315Y-70989154D01*
X119588345Y-70865184D01*
X119439124Y-70773143D01*
X119439119Y-70773141D01*
X119272697Y-70717994D01*
X119272690Y-70717993D01*
X119169986Y-70707500D01*
X118970000Y-70707500D01*
X118970000Y-71832500D01*
X118470000Y-71832500D01*
X118470000Y-70707500D01*
X118270029Y-70707500D01*
X118270012Y-70707501D01*
X118167302Y-70717994D01*
X118000880Y-70773141D01*
X118000875Y-70773143D01*
X117851654Y-70865184D01*
X117727684Y-70989154D01*
X117635643Y-71138375D01*
X117635641Y-71138380D01*
X117580494Y-71304802D01*
X117580493Y-71304809D01*
X117570000Y-71407513D01*
X116770499Y-71407513D01*
X116770499Y-71407492D01*
X116759999Y-71304703D01*
X116704814Y-71138166D01*
X116612712Y-70988844D01*
X116488656Y-70864788D01*
X116339334Y-70772686D01*
X116172797Y-70717501D01*
X116172795Y-70717500D01*
X116070010Y-70707000D01*
X115169998Y-70707000D01*
X115169980Y-70707001D01*
X115067203Y-70717500D01*
X115067200Y-70717501D01*
X114900668Y-70772685D01*
X114900663Y-70772687D01*
X114751342Y-70864789D01*
X114627289Y-70988842D01*
X114605291Y-71024506D01*
X114579075Y-71067011D01*
X114570695Y-71080597D01*
X114518747Y-71127321D01*
X114465156Y-71139500D01*
X113924499Y-71139500D01*
X113857460Y-71119815D01*
X113811705Y-71067011D01*
X113800499Y-71015500D01*
X113800499Y-70792129D01*
X113800498Y-70792123D01*
X113800497Y-70792116D01*
X113794091Y-70732517D01*
X113788674Y-70717994D01*
X113743797Y-70597671D01*
X113743793Y-70597664D01*
X113657547Y-70482455D01*
X113657544Y-70482452D01*
X113542335Y-70396206D01*
X113542328Y-70396202D01*
X113407482Y-70345908D01*
X113407483Y-70345908D01*
X113347883Y-70339501D01*
X113347881Y-70339500D01*
X113347873Y-70339500D01*
X113347864Y-70339500D01*
X111452129Y-70339500D01*
X111452123Y-70339501D01*
X111392516Y-70345908D01*
X111257671Y-70396202D01*
X111257664Y-70396206D01*
X111142455Y-70482452D01*
X111142452Y-70482455D01*
X111056206Y-70597664D01*
X111056202Y-70597671D01*
X111005908Y-70732517D01*
X111001590Y-70772685D01*
X110999501Y-70792123D01*
X110999500Y-70792135D01*
X110450500Y-70792135D01*
X110450500Y-69564500D01*
X110470185Y-69497461D01*
X110522989Y-69451706D01*
X110574500Y-69440500D01*
X141595500Y-69440500D01*
X141662539Y-69460185D01*
G37*
%TD.AperFunction*%
%TD*%
M02*
