%TF.GenerationSoftware,KiCad,Pcbnew,9.0.7*%
%TF.CreationDate,2026-09-03T00:49:35+05:45*%
%TF.ProjectId,Project-2,50726f6a-6563-4742-9d32-2e6b69636164,rev?*%
%TF.SameCoordinates,Original*%
%TF.FileFunction,Copper,L2,Bot*%
%TF.FilePolarity,Positive*%
%FSLAX46Y46*%
G04 Gerber Fmt 4.6, Leading zero omitted, Abs format (unit mm)*
G04 Created by KiCad (PCBNEW 9.0.7) date 2026-09-03 00:49:35*
%MOMM*%
%LPD*%
G01*
G04 APERTURE LIST*
%ADD10C,0.300000*%
%TA.AperFunction,NonConductor*%
%ADD11C,0.300000*%
%TD*%
%TA.AperFunction,ComponentPad*%
%ADD12R,1.350000X1.350000*%
%TD*%
%TA.AperFunction,ComponentPad*%
%ADD13C,1.350000*%
%TD*%
%TA.AperFunction,ComponentPad*%
%ADD14R,1.800000X1.800000*%
%TD*%
%TA.AperFunction,ComponentPad*%
%ADD15C,1.800000*%
%TD*%
%TA.AperFunction,ComponentPad*%
%ADD16C,1.440000*%
%TD*%
G04 APERTURE END LIST*
D10*
D11*
X136895489Y-71610828D02*
X136895489Y-70110828D01*
X136252632Y-71610828D02*
X136252632Y-70825114D01*
X136252632Y-70825114D02*
X136324060Y-70682257D01*
X136324060Y-70682257D02*
X136466917Y-70610828D01*
X136466917Y-70610828D02*
X136681203Y-70610828D01*
X136681203Y-70610828D02*
X136824060Y-70682257D01*
X136824060Y-70682257D02*
X136895489Y-70753685D01*
X134895489Y-70610828D02*
X134895489Y-71610828D01*
X135538346Y-70610828D02*
X135538346Y-71396542D01*
X135538346Y-71396542D02*
X135466917Y-71539400D01*
X135466917Y-71539400D02*
X135324060Y-71610828D01*
X135324060Y-71610828D02*
X135109774Y-71610828D01*
X135109774Y-71610828D02*
X134966917Y-71539400D01*
X134966917Y-71539400D02*
X134895489Y-71467971D01*
X134181203Y-70610828D02*
X134181203Y-71610828D01*
X134181203Y-70753685D02*
X134109774Y-70682257D01*
X134109774Y-70682257D02*
X133966917Y-70610828D01*
X133966917Y-70610828D02*
X133752631Y-70610828D01*
X133752631Y-70610828D02*
X133609774Y-70682257D01*
X133609774Y-70682257D02*
X133538346Y-70825114D01*
X133538346Y-70825114D02*
X133538346Y-71610828D01*
X132252631Y-71539400D02*
X132395488Y-71610828D01*
X132395488Y-71610828D02*
X132681203Y-71610828D01*
X132681203Y-71610828D02*
X132824060Y-71539400D01*
X132824060Y-71539400D02*
X132895488Y-71396542D01*
X132895488Y-71396542D02*
X132895488Y-70825114D01*
X132895488Y-70825114D02*
X132824060Y-70682257D01*
X132824060Y-70682257D02*
X132681203Y-70610828D01*
X132681203Y-70610828D02*
X132395488Y-70610828D01*
X132395488Y-70610828D02*
X132252631Y-70682257D01*
X132252631Y-70682257D02*
X132181203Y-70825114D01*
X132181203Y-70825114D02*
X132181203Y-70967971D01*
X132181203Y-70967971D02*
X132895488Y-71110828D01*
X131895489Y-71753685D02*
X130752631Y-71753685D01*
X130538346Y-70610828D02*
X130252632Y-71610828D01*
X130252632Y-71610828D02*
X129966917Y-70896542D01*
X129966917Y-70896542D02*
X129681203Y-71610828D01*
X129681203Y-71610828D02*
X129395489Y-70610828D01*
X128181203Y-71610828D02*
X128181203Y-70825114D01*
X128181203Y-70825114D02*
X128252631Y-70682257D01*
X128252631Y-70682257D02*
X128395488Y-70610828D01*
X128395488Y-70610828D02*
X128681203Y-70610828D01*
X128681203Y-70610828D02*
X128824060Y-70682257D01*
X128181203Y-71539400D02*
X128324060Y-71610828D01*
X128324060Y-71610828D02*
X128681203Y-71610828D01*
X128681203Y-71610828D02*
X128824060Y-71539400D01*
X128824060Y-71539400D02*
X128895488Y-71396542D01*
X128895488Y-71396542D02*
X128895488Y-71253685D01*
X128895488Y-71253685D02*
X128824060Y-71110828D01*
X128824060Y-71110828D02*
X128681203Y-71039400D01*
X128681203Y-71039400D02*
X128324060Y-71039400D01*
X128324060Y-71039400D02*
X128181203Y-70967971D01*
X127252631Y-71610828D02*
X127395488Y-71539400D01*
X127395488Y-71539400D02*
X127466917Y-71396542D01*
X127466917Y-71396542D02*
X127466917Y-70110828D01*
X126038346Y-71610828D02*
X126038346Y-70825114D01*
X126038346Y-70825114D02*
X126109774Y-70682257D01*
X126109774Y-70682257D02*
X126252631Y-70610828D01*
X126252631Y-70610828D02*
X126538346Y-70610828D01*
X126538346Y-70610828D02*
X126681203Y-70682257D01*
X126038346Y-71539400D02*
X126181203Y-71610828D01*
X126181203Y-71610828D02*
X126538346Y-71610828D01*
X126538346Y-71610828D02*
X126681203Y-71539400D01*
X126681203Y-71539400D02*
X126752631Y-71396542D01*
X126752631Y-71396542D02*
X126752631Y-71253685D01*
X126752631Y-71253685D02*
X126681203Y-71110828D01*
X126681203Y-71110828D02*
X126538346Y-71039400D01*
X126538346Y-71039400D02*
X126181203Y-71039400D01*
X126181203Y-71039400D02*
X126038346Y-70967971D01*
X125681203Y-71753685D02*
X124538345Y-71753685D01*
X123609774Y-71539400D02*
X123752631Y-71610828D01*
X123752631Y-71610828D02*
X124038346Y-71610828D01*
X124038346Y-71610828D02*
X124181203Y-71539400D01*
X124181203Y-71539400D02*
X124252631Y-71396542D01*
X124252631Y-71396542D02*
X124252631Y-70825114D01*
X124252631Y-70825114D02*
X124181203Y-70682257D01*
X124181203Y-70682257D02*
X124038346Y-70610828D01*
X124038346Y-70610828D02*
X123752631Y-70610828D01*
X123752631Y-70610828D02*
X123609774Y-70682257D01*
X123609774Y-70682257D02*
X123538346Y-70825114D01*
X123538346Y-70825114D02*
X123538346Y-70967971D01*
X123538346Y-70967971D02*
X124252631Y-71110828D01*
X122895489Y-70610828D02*
X122895489Y-71610828D01*
X122895489Y-70753685D02*
X122824060Y-70682257D01*
X122824060Y-70682257D02*
X122681203Y-70610828D01*
X122681203Y-70610828D02*
X122466917Y-70610828D01*
X122466917Y-70610828D02*
X122324060Y-70682257D01*
X122324060Y-70682257D02*
X122252632Y-70825114D01*
X122252632Y-70825114D02*
X122252632Y-71610828D01*
X120895489Y-70610828D02*
X120895489Y-71825114D01*
X120895489Y-71825114D02*
X120966917Y-71967971D01*
X120966917Y-71967971D02*
X121038346Y-72039400D01*
X121038346Y-72039400D02*
X121181203Y-72110828D01*
X121181203Y-72110828D02*
X121395489Y-72110828D01*
X121395489Y-72110828D02*
X121538346Y-72039400D01*
X120895489Y-71539400D02*
X121038346Y-71610828D01*
X121038346Y-71610828D02*
X121324060Y-71610828D01*
X121324060Y-71610828D02*
X121466917Y-71539400D01*
X121466917Y-71539400D02*
X121538346Y-71467971D01*
X121538346Y-71467971D02*
X121609774Y-71325114D01*
X121609774Y-71325114D02*
X121609774Y-70896542D01*
X121609774Y-70896542D02*
X121538346Y-70753685D01*
X121538346Y-70753685D02*
X121466917Y-70682257D01*
X121466917Y-70682257D02*
X121324060Y-70610828D01*
X121324060Y-70610828D02*
X121038346Y-70610828D01*
X121038346Y-70610828D02*
X120895489Y-70682257D01*
X120181203Y-71610828D02*
X120181203Y-70610828D01*
X120181203Y-70110828D02*
X120252631Y-70182257D01*
X120252631Y-70182257D02*
X120181203Y-70253685D01*
X120181203Y-70253685D02*
X120109774Y-70182257D01*
X120109774Y-70182257D02*
X120181203Y-70110828D01*
X120181203Y-70110828D02*
X120181203Y-70253685D01*
X119466917Y-70610828D02*
X119466917Y-71610828D01*
X119466917Y-70753685D02*
X119395488Y-70682257D01*
X119395488Y-70682257D02*
X119252631Y-70610828D01*
X119252631Y-70610828D02*
X119038345Y-70610828D01*
X119038345Y-70610828D02*
X118895488Y-70682257D01*
X118895488Y-70682257D02*
X118824060Y-70825114D01*
X118824060Y-70825114D02*
X118824060Y-71610828D01*
X117538345Y-71539400D02*
X117681202Y-71610828D01*
X117681202Y-71610828D02*
X117966917Y-71610828D01*
X117966917Y-71610828D02*
X118109774Y-71539400D01*
X118109774Y-71539400D02*
X118181202Y-71396542D01*
X118181202Y-71396542D02*
X118181202Y-70825114D01*
X118181202Y-70825114D02*
X118109774Y-70682257D01*
X118109774Y-70682257D02*
X117966917Y-70610828D01*
X117966917Y-70610828D02*
X117681202Y-70610828D01*
X117681202Y-70610828D02*
X117538345Y-70682257D01*
X117538345Y-70682257D02*
X117466917Y-70825114D01*
X117466917Y-70825114D02*
X117466917Y-70967971D01*
X117466917Y-70967971D02*
X118181202Y-71110828D01*
X116252631Y-71539400D02*
X116395488Y-71610828D01*
X116395488Y-71610828D02*
X116681203Y-71610828D01*
X116681203Y-71610828D02*
X116824060Y-71539400D01*
X116824060Y-71539400D02*
X116895488Y-71396542D01*
X116895488Y-71396542D02*
X116895488Y-70825114D01*
X116895488Y-70825114D02*
X116824060Y-70682257D01*
X116824060Y-70682257D02*
X116681203Y-70610828D01*
X116681203Y-70610828D02*
X116395488Y-70610828D01*
X116395488Y-70610828D02*
X116252631Y-70682257D01*
X116252631Y-70682257D02*
X116181203Y-70825114D01*
X116181203Y-70825114D02*
X116181203Y-70967971D01*
X116181203Y-70967971D02*
X116895488Y-71110828D01*
X115538346Y-71610828D02*
X115538346Y-70610828D01*
X115538346Y-70896542D02*
X115466917Y-70753685D01*
X115466917Y-70753685D02*
X115395489Y-70682257D01*
X115395489Y-70682257D02*
X115252631Y-70610828D01*
X115252631Y-70610828D02*
X115109774Y-70610828D01*
D10*
D11*
X136266917Y-72996542D02*
X136338346Y-72925114D01*
X136338346Y-72925114D02*
X136481203Y-72853685D01*
X136481203Y-72853685D02*
X136624060Y-72853685D01*
X136624060Y-72853685D02*
X136766917Y-72925114D01*
X136766917Y-72925114D02*
X136838346Y-72996542D01*
X136838346Y-72996542D02*
X136909774Y-73139400D01*
X136909774Y-73139400D02*
X136909774Y-73282257D01*
X136909774Y-73282257D02*
X136838346Y-73425114D01*
X136838346Y-73425114D02*
X136766917Y-73496542D01*
X136766917Y-73496542D02*
X136624060Y-73567971D01*
X136624060Y-73567971D02*
X136481203Y-73567971D01*
X136481203Y-73567971D02*
X136338346Y-73496542D01*
X136338346Y-73496542D02*
X136266917Y-73425114D01*
X136266917Y-72853685D02*
X136266917Y-73425114D01*
X136266917Y-73425114D02*
X136195489Y-73496542D01*
X136195489Y-73496542D02*
X136124060Y-73496542D01*
X136124060Y-73496542D02*
X135981203Y-73425114D01*
X135981203Y-73425114D02*
X135909774Y-73282257D01*
X135909774Y-73282257D02*
X135909774Y-72925114D01*
X135909774Y-72925114D02*
X136052632Y-72710828D01*
X136052632Y-72710828D02*
X136266917Y-72567971D01*
X136266917Y-72567971D02*
X136552632Y-72496542D01*
X136552632Y-72496542D02*
X136838346Y-72567971D01*
X136838346Y-72567971D02*
X137052632Y-72710828D01*
X137052632Y-72710828D02*
X137195489Y-72925114D01*
X137195489Y-72925114D02*
X137266917Y-73210828D01*
X137266917Y-73210828D02*
X137195489Y-73496542D01*
X137195489Y-73496542D02*
X137052632Y-73710828D01*
X137052632Y-73710828D02*
X136838346Y-73853685D01*
X136838346Y-73853685D02*
X136552632Y-73925114D01*
X136552632Y-73925114D02*
X136266917Y-73853685D01*
X136266917Y-73853685D02*
X136052632Y-73710828D01*
X134695489Y-73639400D02*
X134838346Y-73710828D01*
X134838346Y-73710828D02*
X135124061Y-73710828D01*
X135124061Y-73710828D02*
X135266918Y-73639400D01*
X135266918Y-73639400D02*
X135338346Y-73496542D01*
X135338346Y-73496542D02*
X135338346Y-72925114D01*
X135338346Y-72925114D02*
X135266918Y-72782257D01*
X135266918Y-72782257D02*
X135124061Y-72710828D01*
X135124061Y-72710828D02*
X134838346Y-72710828D01*
X134838346Y-72710828D02*
X134695489Y-72782257D01*
X134695489Y-72782257D02*
X134624061Y-72925114D01*
X134624061Y-72925114D02*
X134624061Y-73067971D01*
X134624061Y-73067971D02*
X135338346Y-73210828D01*
X133981204Y-73710828D02*
X133981204Y-72710828D01*
X133981204Y-72853685D02*
X133909775Y-72782257D01*
X133909775Y-72782257D02*
X133766918Y-72710828D01*
X133766918Y-72710828D02*
X133552632Y-72710828D01*
X133552632Y-72710828D02*
X133409775Y-72782257D01*
X133409775Y-72782257D02*
X133338347Y-72925114D01*
X133338347Y-72925114D02*
X133338347Y-73710828D01*
X133338347Y-72925114D02*
X133266918Y-72782257D01*
X133266918Y-72782257D02*
X133124061Y-72710828D01*
X133124061Y-72710828D02*
X132909775Y-72710828D01*
X132909775Y-72710828D02*
X132766918Y-72782257D01*
X132766918Y-72782257D02*
X132695489Y-72925114D01*
X132695489Y-72925114D02*
X132695489Y-73710828D01*
X131981204Y-73710828D02*
X131981204Y-72210828D01*
X131981204Y-72782257D02*
X131838347Y-72710828D01*
X131838347Y-72710828D02*
X131552632Y-72710828D01*
X131552632Y-72710828D02*
X131409775Y-72782257D01*
X131409775Y-72782257D02*
X131338347Y-72853685D01*
X131338347Y-72853685D02*
X131266918Y-72996542D01*
X131266918Y-72996542D02*
X131266918Y-73425114D01*
X131266918Y-73425114D02*
X131338347Y-73567971D01*
X131338347Y-73567971D02*
X131409775Y-73639400D01*
X131409775Y-73639400D02*
X131552632Y-73710828D01*
X131552632Y-73710828D02*
X131838347Y-73710828D01*
X131838347Y-73710828D02*
X131981204Y-73639400D01*
X130052632Y-73639400D02*
X130195489Y-73710828D01*
X130195489Y-73710828D02*
X130481204Y-73710828D01*
X130481204Y-73710828D02*
X130624061Y-73639400D01*
X130624061Y-73639400D02*
X130695489Y-73496542D01*
X130695489Y-73496542D02*
X130695489Y-72925114D01*
X130695489Y-72925114D02*
X130624061Y-72782257D01*
X130624061Y-72782257D02*
X130481204Y-72710828D01*
X130481204Y-72710828D02*
X130195489Y-72710828D01*
X130195489Y-72710828D02*
X130052632Y-72782257D01*
X130052632Y-72782257D02*
X129981204Y-72925114D01*
X129981204Y-72925114D02*
X129981204Y-73067971D01*
X129981204Y-73067971D02*
X130695489Y-73210828D01*
X128695490Y-73710828D02*
X128695490Y-72210828D01*
X128695490Y-73639400D02*
X128838347Y-73710828D01*
X128838347Y-73710828D02*
X129124061Y-73710828D01*
X129124061Y-73710828D02*
X129266918Y-73639400D01*
X129266918Y-73639400D02*
X129338347Y-73567971D01*
X129338347Y-73567971D02*
X129409775Y-73425114D01*
X129409775Y-73425114D02*
X129409775Y-72996542D01*
X129409775Y-72996542D02*
X129338347Y-72853685D01*
X129338347Y-72853685D02*
X129266918Y-72782257D01*
X129266918Y-72782257D02*
X129124061Y-72710828D01*
X129124061Y-72710828D02*
X128838347Y-72710828D01*
X128838347Y-72710828D02*
X128695490Y-72782257D01*
X127338347Y-73710828D02*
X127338347Y-72210828D01*
X127338347Y-73639400D02*
X127481204Y-73710828D01*
X127481204Y-73710828D02*
X127766918Y-73710828D01*
X127766918Y-73710828D02*
X127909775Y-73639400D01*
X127909775Y-73639400D02*
X127981204Y-73567971D01*
X127981204Y-73567971D02*
X128052632Y-73425114D01*
X128052632Y-73425114D02*
X128052632Y-72996542D01*
X128052632Y-72996542D02*
X127981204Y-72853685D01*
X127981204Y-72853685D02*
X127909775Y-72782257D01*
X127909775Y-72782257D02*
X127766918Y-72710828D01*
X127766918Y-72710828D02*
X127481204Y-72710828D01*
X127481204Y-72710828D02*
X127338347Y-72782257D01*
X126052632Y-73639400D02*
X126195489Y-73710828D01*
X126195489Y-73710828D02*
X126481204Y-73710828D01*
X126481204Y-73710828D02*
X126624061Y-73639400D01*
X126624061Y-73639400D02*
X126695489Y-73496542D01*
X126695489Y-73496542D02*
X126695489Y-72925114D01*
X126695489Y-72925114D02*
X126624061Y-72782257D01*
X126624061Y-72782257D02*
X126481204Y-72710828D01*
X126481204Y-72710828D02*
X126195489Y-72710828D01*
X126195489Y-72710828D02*
X126052632Y-72782257D01*
X126052632Y-72782257D02*
X125981204Y-72925114D01*
X125981204Y-72925114D02*
X125981204Y-73067971D01*
X125981204Y-73067971D02*
X126695489Y-73210828D01*
X124695490Y-73710828D02*
X124695490Y-72210828D01*
X124695490Y-73639400D02*
X124838347Y-73710828D01*
X124838347Y-73710828D02*
X125124061Y-73710828D01*
X125124061Y-73710828D02*
X125266918Y-73639400D01*
X125266918Y-73639400D02*
X125338347Y-73567971D01*
X125338347Y-73567971D02*
X125409775Y-73425114D01*
X125409775Y-73425114D02*
X125409775Y-72996542D01*
X125409775Y-72996542D02*
X125338347Y-72853685D01*
X125338347Y-72853685D02*
X125266918Y-72782257D01*
X125266918Y-72782257D02*
X125124061Y-72710828D01*
X125124061Y-72710828D02*
X124838347Y-72710828D01*
X124838347Y-72710828D02*
X124695490Y-72782257D01*
X124338347Y-73853685D02*
X123195489Y-73853685D01*
X122838347Y-72710828D02*
X122838347Y-73996542D01*
X122838347Y-73996542D02*
X122909775Y-74139400D01*
X122909775Y-74139400D02*
X123052632Y-74210828D01*
X123052632Y-74210828D02*
X123124061Y-74210828D01*
X122838347Y-72210828D02*
X122909775Y-72282257D01*
X122909775Y-72282257D02*
X122838347Y-72353685D01*
X122838347Y-72353685D02*
X122766918Y-72282257D01*
X122766918Y-72282257D02*
X122838347Y-72210828D01*
X122838347Y-72210828D02*
X122838347Y-72353685D01*
X121909775Y-73710828D02*
X122052632Y-73639400D01*
X122052632Y-73639400D02*
X122124061Y-73567971D01*
X122124061Y-73567971D02*
X122195489Y-73425114D01*
X122195489Y-73425114D02*
X122195489Y-72996542D01*
X122195489Y-72996542D02*
X122124061Y-72853685D01*
X122124061Y-72853685D02*
X122052632Y-72782257D01*
X122052632Y-72782257D02*
X121909775Y-72710828D01*
X121909775Y-72710828D02*
X121695489Y-72710828D01*
X121695489Y-72710828D02*
X121552632Y-72782257D01*
X121552632Y-72782257D02*
X121481204Y-72853685D01*
X121481204Y-72853685D02*
X121409775Y-72996542D01*
X121409775Y-72996542D02*
X121409775Y-73425114D01*
X121409775Y-73425114D02*
X121481204Y-73567971D01*
X121481204Y-73567971D02*
X121552632Y-73639400D01*
X121552632Y-73639400D02*
X121695489Y-73710828D01*
X121695489Y-73710828D02*
X121909775Y-73710828D01*
X120124061Y-72710828D02*
X120124061Y-73710828D01*
X120766918Y-72710828D02*
X120766918Y-73496542D01*
X120766918Y-73496542D02*
X120695489Y-73639400D01*
X120695489Y-73639400D02*
X120552632Y-73710828D01*
X120552632Y-73710828D02*
X120338346Y-73710828D01*
X120338346Y-73710828D02*
X120195489Y-73639400D01*
X120195489Y-73639400D02*
X120124061Y-73567971D01*
X119409775Y-73710828D02*
X119409775Y-72710828D01*
X119409775Y-72996542D02*
X119338346Y-72853685D01*
X119338346Y-72853685D02*
X119266918Y-72782257D01*
X119266918Y-72782257D02*
X119124060Y-72710828D01*
X119124060Y-72710828D02*
X118981203Y-72710828D01*
X118481204Y-72710828D02*
X118481204Y-73710828D01*
X118481204Y-72853685D02*
X118409775Y-72782257D01*
X118409775Y-72782257D02*
X118266918Y-72710828D01*
X118266918Y-72710828D02*
X118052632Y-72710828D01*
X118052632Y-72710828D02*
X117909775Y-72782257D01*
X117909775Y-72782257D02*
X117838347Y-72925114D01*
X117838347Y-72925114D02*
X117838347Y-73710828D01*
X116552632Y-73639400D02*
X116695489Y-73710828D01*
X116695489Y-73710828D02*
X116981204Y-73710828D01*
X116981204Y-73710828D02*
X117124061Y-73639400D01*
X117124061Y-73639400D02*
X117195489Y-73496542D01*
X117195489Y-73496542D02*
X117195489Y-72925114D01*
X117195489Y-72925114D02*
X117124061Y-72782257D01*
X117124061Y-72782257D02*
X116981204Y-72710828D01*
X116981204Y-72710828D02*
X116695489Y-72710828D01*
X116695489Y-72710828D02*
X116552632Y-72782257D01*
X116552632Y-72782257D02*
X116481204Y-72925114D01*
X116481204Y-72925114D02*
X116481204Y-73067971D01*
X116481204Y-73067971D02*
X117195489Y-73210828D01*
X115981204Y-72710828D02*
X115624061Y-73710828D01*
X115266918Y-72710828D02*
X115624061Y-73710828D01*
X115624061Y-73710828D02*
X115766918Y-74067971D01*
X115766918Y-74067971D02*
X115838347Y-74139400D01*
X115838347Y-74139400D02*
X115981204Y-74210828D01*
D12*
%TO.P,J1,1,Pin_1*%
%TO.N,VCC*%
X139120000Y-74740000D03*
D13*
%TO.P,J1,2,Pin_2*%
%TO.N,Out*%
X139120000Y-76740000D03*
%TO.P,J1,3,Pin_3*%
%TO.N,GND*%
X139120000Y-78740000D03*
%TD*%
D14*
%TO.P,D1,1,K*%
%TO.N,Net-(D1-K)*%
X112400000Y-71740000D03*
D15*
%TO.P,D1,2,A*%
%TO.N,VCC*%
X112400000Y-74280000D03*
%TD*%
D14*
%TO.P,D2,1,K*%
%TO.N,VCC*%
X112400000Y-77750000D03*
D15*
%TO.P,D2,2,A*%
%TO.N,Net-(D2-A)*%
X112400000Y-80290000D03*
%TD*%
D16*
%TO.P,RV1,1,1*%
%TO.N,VCC*%
X134610000Y-80240000D03*
%TO.P,RV1,2,2*%
%TO.N,Net-(U1A--)*%
X134610000Y-77700000D03*
%TO.P,RV1,3,3*%
%TO.N,GND*%
X134610000Y-75160000D03*
%TD*%
%TA.AperFunction,Conductor*%
%TO.N,VCC*%
G36*
X114397313Y-69460185D02*
G01*
X114443068Y-69512989D01*
X114454274Y-69564500D01*
X114454274Y-72768053D01*
X114486127Y-72768053D01*
X114553166Y-72787738D01*
X114598921Y-72840542D01*
X114610127Y-72892053D01*
X114610127Y-74868053D01*
X133275341Y-74868053D01*
X133342380Y-74887738D01*
X133388135Y-74940542D01*
X133398079Y-75009700D01*
X133397814Y-75011450D01*
X133389500Y-75063944D01*
X133389500Y-75256054D01*
X133419553Y-75445802D01*
X133478916Y-75628506D01*
X133566135Y-75799681D01*
X133679055Y-75955102D01*
X133814898Y-76090945D01*
X133970319Y-76203865D01*
X134136942Y-76288764D01*
X134141493Y-76291083D01*
X134206081Y-76312069D01*
X134263756Y-76351506D01*
X134290955Y-76415865D01*
X134279041Y-76484711D01*
X134231797Y-76536187D01*
X134206081Y-76547931D01*
X134141493Y-76568916D01*
X133970318Y-76656135D01*
X133881645Y-76720560D01*
X133814898Y-76769055D01*
X133814896Y-76769057D01*
X133814895Y-76769057D01*
X133679057Y-76904895D01*
X133679057Y-76904896D01*
X133679055Y-76904898D01*
X133630560Y-76971645D01*
X133566135Y-77060318D01*
X133478916Y-77231493D01*
X133419553Y-77414197D01*
X133405046Y-77505789D01*
X133389500Y-77603945D01*
X133389500Y-77796055D01*
X133396996Y-77843381D01*
X133419553Y-77985802D01*
X133478916Y-78168506D01*
X133540191Y-78288764D01*
X133566135Y-78339681D01*
X133679055Y-78495102D01*
X133814898Y-78630945D01*
X133970319Y-78743865D01*
X133996842Y-78757379D01*
X134141495Y-78831084D01*
X134206890Y-78852332D01*
X134264566Y-78891769D01*
X134291765Y-78956127D01*
X134279851Y-79024974D01*
X134232607Y-79076450D01*
X134206893Y-79088194D01*
X134141677Y-79109384D01*
X133970578Y-79196564D01*
X133941352Y-79217798D01*
X133941351Y-79217798D01*
X134563554Y-79840000D01*
X134557339Y-79840000D01*
X134455606Y-79867259D01*
X134364394Y-79919920D01*
X134289920Y-79994394D01*
X134237259Y-80085606D01*
X134210000Y-80187339D01*
X134210000Y-80193553D01*
X133587798Y-79571351D01*
X133587798Y-79571352D01*
X133566564Y-79600578D01*
X133479383Y-79771678D01*
X133420040Y-79954315D01*
X133390000Y-80143984D01*
X133390000Y-80336015D01*
X133420040Y-80525684D01*
X133479383Y-80708321D01*
X133566561Y-80879415D01*
X133587798Y-80908646D01*
X134210000Y-80286445D01*
X134210000Y-80292661D01*
X134237259Y-80394394D01*
X134289920Y-80485606D01*
X134364394Y-80560080D01*
X134455606Y-80612741D01*
X134557339Y-80640000D01*
X134563554Y-80640000D01*
X133941351Y-81262200D01*
X133941352Y-81262201D01*
X133970577Y-81283434D01*
X134141678Y-81370616D01*
X134324315Y-81429959D01*
X134513985Y-81460000D01*
X134706015Y-81460000D01*
X134895684Y-81429959D01*
X135078321Y-81370616D01*
X135249419Y-81283436D01*
X135278646Y-81262201D01*
X135278646Y-81262200D01*
X134656447Y-80640000D01*
X134662661Y-80640000D01*
X134764394Y-80612741D01*
X134855606Y-80560080D01*
X134930080Y-80485606D01*
X134982741Y-80394394D01*
X135010000Y-80292661D01*
X135010000Y-80286446D01*
X135632200Y-80908646D01*
X135632201Y-80908646D01*
X135653436Y-80879419D01*
X135740616Y-80708321D01*
X135799959Y-80525684D01*
X135830000Y-80336015D01*
X135830000Y-80143984D01*
X135799959Y-79954315D01*
X135740616Y-79771678D01*
X135653434Y-79600577D01*
X135632201Y-79571352D01*
X135632200Y-79571351D01*
X135010000Y-80193552D01*
X135010000Y-80187339D01*
X134982741Y-80085606D01*
X134930080Y-79994394D01*
X134855606Y-79919920D01*
X134764394Y-79867259D01*
X134662661Y-79840000D01*
X134656447Y-79840000D01*
X135278646Y-79217798D01*
X135249415Y-79196561D01*
X135078321Y-79109383D01*
X135013107Y-79088194D01*
X134955432Y-79048756D01*
X134928234Y-78984397D01*
X134940149Y-78915551D01*
X134987394Y-78864075D01*
X135013109Y-78852332D01*
X135078504Y-78831084D01*
X135078506Y-78831082D01*
X135078509Y-78831082D01*
X135249681Y-78743865D01*
X135405102Y-78630945D01*
X135540945Y-78495102D01*
X135653865Y-78339681D01*
X135741082Y-78168509D01*
X135800447Y-77985801D01*
X135830500Y-77796055D01*
X135830500Y-77603945D01*
X135800447Y-77414199D01*
X135741082Y-77231491D01*
X135653865Y-77060319D01*
X135540945Y-76904898D01*
X135405102Y-76769055D01*
X135249681Y-76656135D01*
X135078504Y-76568915D01*
X135013919Y-76547931D01*
X134956243Y-76508494D01*
X134929044Y-76444136D01*
X134940958Y-76375289D01*
X134988202Y-76323813D01*
X135013919Y-76312069D01*
X135078504Y-76291084D01*
X135078506Y-76291082D01*
X135078509Y-76291082D01*
X135249681Y-76203865D01*
X135405102Y-76090945D01*
X135540945Y-75955102D01*
X135653865Y-75799681D01*
X135741082Y-75628509D01*
X135800447Y-75445801D01*
X135830500Y-75256055D01*
X135830500Y-75063945D01*
X135829888Y-75060080D01*
X135822186Y-75011450D01*
X135831141Y-74942157D01*
X135876137Y-74888705D01*
X135942889Y-74868066D01*
X135944659Y-74868053D01*
X137821000Y-74868053D01*
X137888039Y-74887738D01*
X137933794Y-74940542D01*
X137945000Y-74992053D01*
X137945000Y-75462844D01*
X137951401Y-75522372D01*
X137951403Y-75522379D01*
X138001645Y-75657086D01*
X138001649Y-75657093D01*
X138087809Y-75772186D01*
X138172832Y-75835835D01*
X138214703Y-75891769D01*
X138219687Y-75961461D01*
X138198839Y-76007987D01*
X138114624Y-76123900D01*
X138030620Y-76288764D01*
X138030619Y-76288767D01*
X137973445Y-76464734D01*
X137944500Y-76647486D01*
X137944500Y-76832513D01*
X137973445Y-77015265D01*
X138030619Y-77191232D01*
X138030620Y-77191235D01*
X138101665Y-77330667D01*
X138114622Y-77356096D01*
X138223379Y-77505787D01*
X138354213Y-77636621D01*
X138358421Y-77639678D01*
X138358432Y-77639686D01*
X138401094Y-77695019D01*
X138407069Y-77764633D01*
X138374459Y-77826426D01*
X138358432Y-77840314D01*
X138354210Y-77843381D01*
X138223381Y-77974210D01*
X138223381Y-77974211D01*
X138223379Y-77974213D01*
X138204644Y-78000000D01*
X138114622Y-78123903D01*
X138030620Y-78288764D01*
X138030619Y-78288767D01*
X137973445Y-78464734D01*
X137973445Y-78464736D01*
X137944500Y-78647486D01*
X137944500Y-78832514D01*
X137957652Y-78915551D01*
X137973445Y-79015265D01*
X138030619Y-79191232D01*
X138030620Y-79191235D01*
X138114622Y-79356096D01*
X138223379Y-79505787D01*
X138354213Y-79636621D01*
X138503904Y-79745378D01*
X138517672Y-79752393D01*
X138668764Y-79829379D01*
X138668767Y-79829380D01*
X138701453Y-79840000D01*
X138844736Y-79886555D01*
X139027486Y-79915500D01*
X139027487Y-79915500D01*
X139212513Y-79915500D01*
X139212514Y-79915500D01*
X139395264Y-79886555D01*
X139571235Y-79829379D01*
X139736096Y-79745378D01*
X139885787Y-79636621D01*
X140016621Y-79505787D01*
X140125378Y-79356096D01*
X140209379Y-79191235D01*
X140266555Y-79015264D01*
X140295500Y-78832514D01*
X140295500Y-78647486D01*
X140266555Y-78464736D01*
X140237967Y-78376750D01*
X140209380Y-78288767D01*
X140209379Y-78288764D01*
X140125377Y-78123903D01*
X140016621Y-77974213D01*
X139885787Y-77843379D01*
X139881576Y-77840319D01*
X139838909Y-77784994D01*
X139832926Y-77715381D01*
X139865529Y-77653585D01*
X139881570Y-77639684D01*
X139885787Y-77636621D01*
X140016621Y-77505787D01*
X140125378Y-77356096D01*
X140209379Y-77191235D01*
X140266555Y-77015264D01*
X140295500Y-76832514D01*
X140295500Y-76647486D01*
X140266555Y-76464736D01*
X140216951Y-76312069D01*
X140209380Y-76288767D01*
X140209379Y-76288764D01*
X140125377Y-76123903D01*
X140125375Y-76123900D01*
X140041159Y-76007987D01*
X140017680Y-75942183D01*
X140033505Y-75874129D01*
X140067167Y-75835836D01*
X140152190Y-75772186D01*
X140238350Y-75657093D01*
X140238354Y-75657086D01*
X140288596Y-75522379D01*
X140288598Y-75522372D01*
X140294999Y-75462844D01*
X140295000Y-75462827D01*
X140295000Y-74990000D01*
X139435686Y-74990000D01*
X139440080Y-74985606D01*
X139492741Y-74894394D01*
X139520000Y-74792661D01*
X139520000Y-74687339D01*
X139492741Y-74585606D01*
X139440080Y-74494394D01*
X139435686Y-74490000D01*
X140295000Y-74490000D01*
X140295000Y-74017172D01*
X140294999Y-74017155D01*
X140288598Y-73957627D01*
X140288596Y-73957620D01*
X140238354Y-73822913D01*
X140238350Y-73822906D01*
X140152190Y-73707812D01*
X140152187Y-73707809D01*
X140037093Y-73621649D01*
X140037086Y-73621645D01*
X139902379Y-73571403D01*
X139902372Y-73571401D01*
X139842844Y-73565000D01*
X139370000Y-73565000D01*
X139370000Y-74424314D01*
X139365606Y-74419920D01*
X139274394Y-74367259D01*
X139172661Y-74340000D01*
X139067339Y-74340000D01*
X138965606Y-74367259D01*
X138874394Y-74419920D01*
X138870000Y-74424314D01*
X138870000Y-73565000D01*
X138397155Y-73565000D01*
X138337627Y-73571401D01*
X138337620Y-73571403D01*
X138202913Y-73621645D01*
X138202911Y-73621646D01*
X138123431Y-73681146D01*
X138057967Y-73705563D01*
X137989694Y-73690712D01*
X137940288Y-73641307D01*
X137925120Y-73581879D01*
X137925120Y-71555328D01*
X137674989Y-71555328D01*
X137607950Y-71535643D01*
X137562195Y-71482839D01*
X137550989Y-71431328D01*
X137550989Y-69564500D01*
X137570674Y-69497461D01*
X137623478Y-69451706D01*
X137674989Y-69440500D01*
X141595500Y-69440500D01*
X141662539Y-69460185D01*
X141708294Y-69512989D01*
X141719500Y-69564500D01*
X141719500Y-82815500D01*
X141699815Y-82882539D01*
X141647011Y-82928294D01*
X141595500Y-82939500D01*
X110574500Y-82939500D01*
X110507461Y-82919815D01*
X110461706Y-82867011D01*
X110450500Y-82815500D01*
X110450500Y-80179778D01*
X110999500Y-80179778D01*
X110999500Y-80400221D01*
X111033985Y-80617952D01*
X111102103Y-80827603D01*
X111102104Y-80827606D01*
X111128503Y-80879415D01*
X111202184Y-81024021D01*
X111202187Y-81024025D01*
X111331752Y-81202358D01*
X111331756Y-81202363D01*
X111487636Y-81358243D01*
X111487641Y-81358247D01*
X111627694Y-81460000D01*
X111665978Y-81487815D01*
X111794375Y-81553237D01*
X111862393Y-81587895D01*
X111862396Y-81587896D01*
X111967221Y-81621955D01*
X112072049Y-81656015D01*
X112289778Y-81690500D01*
X112289779Y-81690500D01*
X112510221Y-81690500D01*
X112510222Y-81690500D01*
X112727951Y-81656015D01*
X112937606Y-81587895D01*
X113134022Y-81487815D01*
X113312365Y-81358242D01*
X113468242Y-81202365D01*
X113597815Y-81024022D01*
X113697895Y-80827606D01*
X113766015Y-80617951D01*
X113800500Y-80400222D01*
X113800500Y-80179778D01*
X113766015Y-79962049D01*
X113731955Y-79857221D01*
X113697896Y-79752396D01*
X113697895Y-79752393D01*
X113638905Y-79636621D01*
X113597815Y-79555978D01*
X113561349Y-79505787D01*
X113468247Y-79377641D01*
X113468243Y-79377636D01*
X113417683Y-79327076D01*
X113384198Y-79265753D01*
X113389182Y-79196061D01*
X113431054Y-79140128D01*
X113462031Y-79123213D01*
X113542086Y-79093354D01*
X113542093Y-79093350D01*
X113657187Y-79007190D01*
X113657190Y-79007187D01*
X113743350Y-78892093D01*
X113743354Y-78892086D01*
X113793596Y-78757379D01*
X113793598Y-78757372D01*
X113799999Y-78697844D01*
X113800000Y-78697827D01*
X113800000Y-78000000D01*
X112775278Y-78000000D01*
X112819333Y-77923694D01*
X112850000Y-77809244D01*
X112850000Y-77690756D01*
X112819333Y-77576306D01*
X112775278Y-77500000D01*
X113800000Y-77500000D01*
X113800000Y-76802172D01*
X113799999Y-76802155D01*
X113793598Y-76742627D01*
X113793596Y-76742620D01*
X113743354Y-76607913D01*
X113743350Y-76607906D01*
X113657190Y-76492812D01*
X113657187Y-76492809D01*
X113542093Y-76406649D01*
X113542086Y-76406645D01*
X113407379Y-76356403D01*
X113407372Y-76356401D01*
X113347844Y-76350000D01*
X112650000Y-76350000D01*
X112650000Y-77374722D01*
X112573694Y-77330667D01*
X112459244Y-77300000D01*
X112340756Y-77300000D01*
X112226306Y-77330667D01*
X112150000Y-77374722D01*
X112150000Y-76350000D01*
X111452155Y-76350000D01*
X111392627Y-76356401D01*
X111392620Y-76356403D01*
X111257913Y-76406645D01*
X111257906Y-76406649D01*
X111142812Y-76492809D01*
X111142809Y-76492812D01*
X111056649Y-76607906D01*
X111056645Y-76607913D01*
X111006403Y-76742620D01*
X111006401Y-76742627D01*
X111000000Y-76802155D01*
X111000000Y-77500000D01*
X112024722Y-77500000D01*
X111980667Y-77576306D01*
X111950000Y-77690756D01*
X111950000Y-77809244D01*
X111980667Y-77923694D01*
X112024722Y-78000000D01*
X111000000Y-78000000D01*
X111000000Y-78697844D01*
X111006401Y-78757372D01*
X111006403Y-78757379D01*
X111056645Y-78892086D01*
X111056649Y-78892093D01*
X111142809Y-79007187D01*
X111142812Y-79007190D01*
X111257906Y-79093350D01*
X111257913Y-79093354D01*
X111337968Y-79123213D01*
X111393902Y-79165084D01*
X111418319Y-79230549D01*
X111403467Y-79298822D01*
X111382317Y-79327075D01*
X111331756Y-79377636D01*
X111331752Y-79377641D01*
X111202187Y-79555974D01*
X111102104Y-79752393D01*
X111102103Y-79752396D01*
X111033985Y-79962047D01*
X110999500Y-80179778D01*
X110450500Y-80179778D01*
X110450500Y-70792135D01*
X110999500Y-70792135D01*
X110999500Y-72687870D01*
X110999501Y-72687876D01*
X111005908Y-72747483D01*
X111056202Y-72882328D01*
X111056206Y-72882335D01*
X111142452Y-72997544D01*
X111142455Y-72997547D01*
X111257664Y-73083793D01*
X111257671Y-73083797D01*
X111302618Y-73100561D01*
X111392517Y-73134091D01*
X111452127Y-73140500D01*
X111562693Y-73140499D01*
X111629730Y-73160183D01*
X111650372Y-73176818D01*
X112311415Y-73837861D01*
X112226306Y-73860667D01*
X112123694Y-73919910D01*
X112039910Y-74003694D01*
X111980667Y-74106306D01*
X111957861Y-74191414D01*
X111248932Y-73482485D01*
X111248931Y-73482485D01*
X111202616Y-73546233D01*
X111102567Y-73742589D01*
X111034473Y-73952164D01*
X111000000Y-74169818D01*
X111000000Y-74390181D01*
X111034473Y-74607835D01*
X111102567Y-74817410D01*
X111202611Y-75013756D01*
X111248932Y-75077513D01*
X111957861Y-74368584D01*
X111980667Y-74453694D01*
X112039910Y-74556306D01*
X112123694Y-74640090D01*
X112226306Y-74699333D01*
X112311414Y-74722137D01*
X111602485Y-75431065D01*
X111602485Y-75431066D01*
X111666243Y-75477388D01*
X111862589Y-75577432D01*
X112072164Y-75645526D01*
X112289819Y-75680000D01*
X112510181Y-75680000D01*
X112727835Y-75645526D01*
X112937410Y-75577432D01*
X113133760Y-75477386D01*
X113197513Y-75431066D01*
X113197514Y-75431066D01*
X112488585Y-74722138D01*
X112573694Y-74699333D01*
X112676306Y-74640090D01*
X112760090Y-74556306D01*
X112819333Y-74453694D01*
X112842137Y-74368585D01*
X113551066Y-75077514D01*
X113551066Y-75077513D01*
X113597386Y-75013760D01*
X113697432Y-74817410D01*
X113765526Y-74607835D01*
X113800000Y-74390181D01*
X113800000Y-74169818D01*
X113765526Y-73952164D01*
X113697432Y-73742589D01*
X113597388Y-73546243D01*
X113551066Y-73482485D01*
X113551065Y-73482485D01*
X112842137Y-74191413D01*
X112819333Y-74106306D01*
X112760090Y-74003694D01*
X112676306Y-73919910D01*
X112573694Y-73860667D01*
X112488584Y-73837861D01*
X113149628Y-73176818D01*
X113210951Y-73143333D01*
X113237308Y-73140499D01*
X113347872Y-73140499D01*
X113407483Y-73134091D01*
X113542331Y-73083796D01*
X113657546Y-72997546D01*
X113743796Y-72882331D01*
X113794091Y-72747483D01*
X113800500Y-72687873D01*
X113800499Y-70792128D01*
X113794091Y-70732517D01*
X113743796Y-70597669D01*
X113743795Y-70597668D01*
X113743793Y-70597664D01*
X113657547Y-70482455D01*
X113657544Y-70482452D01*
X113542335Y-70396206D01*
X113542328Y-70396202D01*
X113407482Y-70345908D01*
X113407483Y-70345908D01*
X113347883Y-70339501D01*
X113347881Y-70339500D01*
X113347873Y-70339500D01*
X113347864Y-70339500D01*
X111452129Y-70339500D01*
X111452123Y-70339501D01*
X111392516Y-70345908D01*
X111257671Y-70396202D01*
X111257664Y-70396206D01*
X111142455Y-70482452D01*
X111142452Y-70482455D01*
X111056206Y-70597664D01*
X111056202Y-70597671D01*
X111005908Y-70732517D01*
X110999501Y-70792116D01*
X110999501Y-70792123D01*
X110999500Y-70792135D01*
X110450500Y-70792135D01*
X110450500Y-69564500D01*
X110470185Y-69497461D01*
X110522989Y-69451706D01*
X110574500Y-69440500D01*
X114330274Y-69440500D01*
X114397313Y-69460185D01*
G37*
%TD.AperFunction*%
%TD*%
M02*
